<?xml version="1.0" encoding="UTF-8"?>
<!DOCTYPE svg PUBLIC "-//W3C//DTD SVG 1.1//EN" "http://www.w3.org/Graphics/SVG/1.1/DTD/svg11.dtd">
<svg xmlns="http://www.w3.org/2000/svg" version="1.1" width="58px" height="61px" style="shape-rendering:geometricPrecision; text-rendering:geometricPrecision; image-rendering:optimizeQuality; fill-rule:evenodd; clip-rule:evenodd" xmlns:xlink="http://www.w3.org/1999/xlink">
<g><path style="opacity:0.843" fill="#c47201" d="M 21.5,-0.5 C 26.1667,-0.5 30.8333,-0.5 35.5,-0.5C 42.6185,1.61685 47.9518,5.95018 51.5,12.5C 49.0976,10.0908 46.4309,8.09082 43.5,6.5C 42.8333,6.5 42.1667,6.5 41.5,6.5C 41.0269,5.09368 40.0269,4.42702 38.5,4.5C 38.3893,3.88258 38.056,3.38258 37.5,3C 32.3158,2.18368 27.3158,2.35034 22.5,3.5C 19.2065,3.25903 16.2065,4.09237 13.5,6C 9.60185,9.72881 5.93519,13.5621 2.5,17.5C 6.26081,8.73805 12.5941,2.73805 21.5,-0.5 Z"/></g>
<g><path style="opacity:1" fill="#e28403" d="M 22.5,4.5 C 22.5,4.16667 22.5,3.83333 22.5,3.5C 27.8797,3.32429 33.213,3.65762 38.5,4.5C 38.8333,5.16667 39.1667,5.83333 39.5,6.5C 37.8828,5.962 36.2161,5.62867 34.5,5.5C 30.7016,4.51658 26.7016,4.18325 22.5,4.5 Z"/></g>
<g><path style="opacity:1" fill="#d37b02" d="M 22.5,3.5 C 27.3158,2.35034 32.3158,2.18368 37.5,3C 38.056,3.38258 38.3893,3.88258 38.5,4.5C 33.213,3.65762 27.8797,3.32429 22.5,3.5 Z"/></g>
<g><path style="opacity:0.993" fill="#fe9402" d="M 30.5,5.5 C 35.1057,6.43214 39.439,8.26547 43.5,11C 46.7816,14.1091 49.7816,17.2757 52.5,20.5C 52.5,21.1667 52.5,21.8333 52.5,22.5C 55.3358,30.9712 55.0025,39.3046 51.5,47.5C 47.9518,54.0498 42.6185,58.3831 35.5,60.5C 30.8333,60.5 26.1667,60.5 21.5,60.5C 14.3815,58.3831 9.04818,54.0498 5.5,47.5C 4.12125,43.2761 3.12125,38.9428 2.5,34.5C 3.229,28.3256 4.56234,22.3256 6.5,16.5C 13.014,9.57609 21.014,5.90942 30.5,5.5 Z"/></g>
<g><path style="opacity:1" fill="#d57d02" d="M 38.5,4.5 C 40.0269,4.42702 41.0269,5.09368 41.5,6.5C 40.8333,6.5 40.1667,6.5 39.5,6.5C 39.1667,5.83333 38.8333,5.16667 38.5,4.5 Z"/></g>
<g><path style="opacity:1" fill="#ed8a03" d="M 22.5,4.5 C 26.7016,4.18325 30.7016,4.51658 34.5,5.5C 33.1667,5.5 31.8333,5.5 30.5,5.5C 21.014,5.90942 13.014,9.57609 6.5,16.5C 9.83277,9.83405 15.1661,5.83405 22.5,4.5 Z"/></g>
<g><path style="opacity:1" fill="#ce7801" d="M 43.5,6.5 C 46.4309,8.09082 49.0976,10.0908 51.5,12.5C 54.2011,15.2353 55.8678,18.5686 56.5,22.5C 55.8333,22.1667 55.1667,21.8333 54.5,21.5C 54.573,19.9731 53.9063,18.9731 52.5,18.5C 52.6716,17.5084 52.3382,16.8417 51.5,16.5C 49.2369,12.8971 46.5703,9.56378 43.5,6.5 Z"/></g>
<g><path style="opacity:1" fill="#e08302" d="M 41.5,6.5 C 42.1667,6.5 42.8333,6.5 43.5,6.5C 46.5703,9.56378 49.2369,12.8971 51.5,16.5C 47.8333,13.5 44.5,10.1667 41.5,6.5 Z"/></g>
<g><path style="opacity:1" fill="#f28d03" d="M 30.5,5.5 C 31.8333,5.5 33.1667,5.5 34.5,5.5C 36.2161,5.62867 37.8828,5.962 39.5,6.5C 40.1667,6.5 40.8333,6.5 41.5,6.5C 44.5,10.1667 47.8333,13.5 51.5,16.5C 52.3382,16.8417 52.6716,17.5084 52.5,18.5C 52.5,19.1667 52.5,19.8333 52.5,20.5C 49.7816,17.2757 46.7816,14.1091 43.5,11C 39.439,8.26547 35.1057,6.43214 30.5,5.5 Z"/></g>
<g><path style="opacity:1" fill="#d77d02" d="M 22.5,3.5 C 22.5,3.83333 22.5,4.16667 22.5,4.5C 15.1661,5.83405 9.83277,9.83405 6.5,16.5C 4.95302,17.7682 3.95302,19.4348 3.5,21.5C 1.72017,22.9899 1.05351,24.9899 1.5,27.5C 0.699293,29.0418 0.36596,30.7085 0.5,32.5C 0.166667,32.5 -0.166667,32.5 -0.5,32.5C -0.5,30.8333 -0.5,29.1667 -0.5,27.5C 0.284188,24.1995 1.28419,20.8661 2.5,17.5C 5.93519,13.5621 9.60185,9.72881 13.5,6C 16.2065,4.09237 19.2065,3.25903 22.5,3.5 Z"/></g>
<g><path style="opacity:1" fill="#e48503" d="M 3.5,21.5 C 3.12487,23.6976 2.4582,25.6976 1.5,27.5C 1.05351,24.9899 1.72017,22.9899 3.5,21.5 Z"/></g>
<g><path style="opacity:1" fill="#e78703" d="M 52.5,18.5 C 53.9063,18.9731 54.573,19.9731 54.5,21.5C 54.5,22.1667 54.5,22.8333 54.5,23.5C 53.8333,23.1667 53.1667,22.8333 52.5,22.5C 52.5,21.8333 52.5,21.1667 52.5,20.5C 52.5,19.8333 52.5,19.1667 52.5,18.5 Z"/></g>
<g><path style="opacity:1" fill="#da7e02" d="M 54.5,21.5 C 55.1667,21.8333 55.8333,22.1667 56.5,22.5C 56.2627,23.791 56.596,24.791 57.5,25.5C 57.5,28.5 57.5,31.5 57.5,34.5C 57.1667,34.5 56.8333,34.5 56.5,34.5C 56.7489,30.5422 56.0823,26.8756 54.5,23.5C 54.5,22.8333 54.5,22.1667 54.5,21.5 Z"/></g>
<g><path style="opacity:1" fill="#ef8c02" d="M 52.5,22.5 C 53.1667,22.8333 53.8333,23.1667 54.5,23.5C 56.0823,26.8756 56.7489,30.5422 56.5,34.5C 56.5813,39.6017 54.9147,43.935 51.5,47.5C 55.0025,39.3046 55.3358,30.9712 52.5,22.5 Z"/></g>
<g><path style="opacity:0.904" fill="#f08c02" d="M 6.5,16.5 C 4.56234,22.3256 3.229,28.3256 2.5,34.5C 3.12125,38.9428 4.12125,43.2761 5.5,47.5C 2.06822,43.2052 0.401552,38.2052 0.5,32.5C 0.36596,30.7085 0.699293,29.0418 1.5,27.5C 2.4582,25.6976 3.12487,23.6976 3.5,21.5C 3.95302,19.4348 4.95302,17.7682 6.5,16.5 Z"/></g>
</svg>
