<?xml version="1.0" encoding="UTF-8"?>
<!DOCTYPE svg PUBLIC "-//W3C//DTD SVG 1.1//EN" "http://www.w3.org/Graphics/SVG/1.1/DTD/svg11.dtd">
<svg xmlns="http://www.w3.org/2000/svg" version="1.1" width="54px" height="45px" style="shape-rendering:geometricPrecision; text-rendering:geometricPrecision; image-rendering:optimizeQuality; fill-rule:evenodd; clip-rule:evenodd" xmlns:xlink="http://www.w3.org/1999/xlink">
<g><path style="opacity:0.976" fill="#f6f0db" d="M 4.5,-0.5 C 10.1667,-0.5 15.8333,-0.5 21.5,-0.5C 18.2071,1.48347 14.8738,3.48347 11.5,5.5C 7.69298,6.2259 5.02631,4.89257 3.5,1.5C 3.83333,0.833333 4.16667,0.166667 4.5,-0.5 Z"/></g>
<g><path style="opacity:0.995" fill="#f6f0dc" d="M 31.5,-0.5 C 37.1667,-0.5 42.8333,-0.5 48.5,-0.5C 48.6728,4.3234 46.3394,6.3234 41.5,5.5C 38.1587,3.49674 34.8253,1.49674 31.5,-0.5 Z"/></g>
<g><path style="opacity:0.995" fill="#3eb1ed" d="M 21.5,-0.5 C 24.8333,-0.5 28.1667,-0.5 31.5,-0.5C 34.8253,1.49674 38.1587,3.49674 41.5,5.5C 42.5,7.5 43.5,9.5 44.5,11.5C 45.299,14.4299 45.6323,17.4299 45.5,20.5C 44.7656,19.1225 44.0989,17.6225 43.5,16C 38.798,15.1717 34.1313,15.3384 29.5,16.5C 30.9492,17.1719 32.2825,17.8386 33.5,18.5C 31.8333,18.5 30.1667,18.5 28.5,18.5C 28.5,16.5 28.5,14.5 28.5,12.5C 33.6673,13.5081 35.334,11.6748 33.5,7C 25.1671,6.17688 21.8338,10.0102 23.5,18.5C 22.1667,18.5 20.8333,18.5 19.5,18.5C 20.209,17.596 21.209,17.2627 22.5,17.5C 22.5,14.8333 22.5,12.1667 22.5,9.5C 17.8468,8.99916 13.5135,9.66582 9.5,11.5C 9.5,10.8333 9.5,10.1667 9.5,9.5C 10.6005,8.39514 11.2671,7.06181 11.5,5.5C 14.8738,3.48347 18.2071,1.48347 21.5,-0.5 Z"/></g>
<g><path style="opacity:0.107" fill="#191a1a" d="M 3.5,1.5 C 5.02631,4.89257 7.69298,6.2259 11.5,5.5C 11.2671,7.06181 10.6005,8.39514 9.5,9.5C 7.05035,9.70197 4.71702,9.36863 2.5,8.5C 1.36594,6.03362 1.19927,3.36695 2,0.5C 2.38258,1.05596 2.88258,1.38929 3.5,1.5 Z"/></g>
<g><path style="opacity:0.106" fill="#191a1a" d="M 48.5,-0.5 C 48.8333,-0.5 49.1667,-0.5 49.5,-0.5C 51.9923,3.77307 51.9923,8.10641 49.5,12.5C 47.9582,11.6993 46.2915,11.366 44.5,11.5C 43.5,9.5 42.5,7.5 41.5,5.5C 46.3394,6.3234 48.6728,4.3234 48.5,-0.5 Z"/></g>
<g><path style="opacity:1" fill="#f9fcfe" d="M 33.5,18.5 C 34.7659,22.4251 33.0992,24.0918 28.5,23.5C 28.5,27.8333 28.5,32.1667 28.5,36.5C 26.8333,36.5 25.1667,36.5 23.5,36.5C 23.8182,31.9677 23.4849,27.6344 22.5,23.5C 18.7162,23.4747 17.7162,21.8081 19.5,18.5C 20.8333,18.5 22.1667,18.5 23.5,18.5C 21.8338,10.0102 25.1671,6.17688 33.5,7C 35.334,11.6748 33.6673,13.5081 28.5,12.5C 28.5,14.5 28.5,16.5 28.5,18.5C 30.1667,18.5 31.8333,18.5 33.5,18.5 Z"/></g>
<g><path style="opacity:0.932" fill="#efe9d6" d="M 2.5,8.5 C 4.71702,9.36863 7.05035,9.70197 9.5,9.5C 9.5,10.1667 9.5,10.8333 9.5,11.5C 8.69079,13.0276 8.02412,14.6943 7.5,16.5C 4.45504,15.6057 2.78838,13.6057 2.5,10.5C 2.5,9.83333 2.5,9.16667 2.5,8.5 Z"/></g>
<g><path style="opacity:0.93" fill="#f6eed7" d="M 44.5,11.5 C 46.2915,11.366 47.9582,11.6993 49.5,12.5C 49.5,12.8333 49.5,13.1667 49.5,13.5C 50.3201,17.2221 48.9868,19.5554 45.5,20.5C 45.6323,17.4299 45.299,14.4299 44.5,11.5 Z"/></g>
<g><path style="opacity:0.999" fill="#2e9eea" d="M 19.5,18.5 C 17.7162,21.8081 18.7162,23.4747 22.5,23.5C 22.5,23.8333 22.5,24.1667 22.5,24.5C 18.0293,23.9106 14.0293,24.5772 10.5,26.5C 10.1667,26.5 9.83333,26.5 9.5,26.5C 8.9853,24.1055 8.31863,21.7722 7.5,19.5C 7.5,18.5 7.5,17.5 7.5,16.5C 8.02412,14.6943 8.69079,13.0276 9.5,11.5C 13.5135,9.66582 17.8468,8.99916 22.5,9.5C 22.5,12.1667 22.5,14.8333 22.5,17.5C 21.209,17.2627 20.209,17.596 19.5,18.5 Z"/></g>
<g><path style="opacity:0.111" fill="#111212" d="M 2.5,10.5 C 2.78838,13.6057 4.45504,15.6057 7.5,16.5C 7.5,17.5 7.5,18.5 7.5,19.5C 6.5041,19.4142 5.67076,19.7476 5,20.5C 4.50454,22.4727 4.33788,24.4727 4.5,26.5C 6.16667,26.5 7.83333,26.5 9.5,26.5C 9.83333,26.5 10.1667,26.5 10.5,26.5C 10.8333,27.8333 11.1667,29.1667 11.5,30.5C 7.16667,30.1667 5.16667,32.1667 5.5,36.5C 10.8333,36.5 16.1667,36.5 21.5,36.5C 22.1667,36.5 22.8333,36.5 23.5,36.5C 25.1667,36.5 26.8333,36.5 28.5,36.5C 29.5,36.5 30.5,36.5 31.5,36.5C 37.1667,36.5 42.8333,36.5 48.5,36.5C 47.8413,32.0061 45.1746,30.3395 40.5,31.5C 40.8333,30.8333 41.1667,30.1667 41.5,29.5C 44.1194,29.7683 46.6194,29.435 49,28.5C 50.1215,25.1284 48.9549,23.1284 45.5,22.5C 45.5,21.8333 45.5,21.1667 45.5,20.5C 48.9868,19.5554 50.3201,17.2221 49.5,13.5C 50.8333,14.5 52.1667,15.5 53.5,16.5C 53.5,18.1667 53.5,19.8333 53.5,21.5C 52.1667,21.8333 52.1667,22.1667 53.5,22.5C 53.5,22.8333 53.5,23.1667 53.5,23.5C 51.6936,25.4598 51.3603,27.6264 52.5,30C 52.1136,35.0581 51.1136,39.8915 49.5,44.5C 48.5,44.5 47.5,44.5 46.5,44.5C 46.1667,43.1667 45.8333,43.1667 45.5,44.5C 31.8333,44.5 18.1667,44.5 4.5,44.5C 2.30182,41.4281 1.96848,38.0947 3.5,34.5C 1.21036,31.365 0.543693,28.0317 1.5,24.5C 1.19571,21.6143 0.529041,18.9476 -0.5,16.5C -0.5,16.1667 -0.5,15.8333 -0.5,15.5C 0.312714,13.7392 1.31271,12.0725 2.5,10.5 Z"/></g>
<g><path style="opacity:0.995" fill="#2384e4" d="M 41.5,28.5 C 41.5,28.8333 41.5,29.1667 41.5,29.5C 41.1667,30.1667 40.8333,30.8333 40.5,31.5C 37.6484,33.0909 34.6484,34.4242 31.5,35.5C 29.6122,33.0122 28.9455,30.0122 29.5,26.5C 33.9707,25.9106 37.9707,26.5772 41.5,28.5 Z"/></g>
<g><path style="opacity:0.978" fill="#2486e4" d="M 22.5,24.5 C 22.815,28.3714 22.4816,32.0381 21.5,35.5C 17.8564,34.3449 14.5231,32.6782 11.5,30.5C 11.1667,29.1667 10.8333,27.8333 10.5,26.5C 14.0293,24.5772 18.0293,23.9106 22.5,24.5 Z"/></g>
<g><path style="opacity:0.913" fill="#e8e2cd" d="M 45.5,22.5 C 48.9549,23.1284 50.1215,25.1284 49,28.5C 46.6194,29.435 44.1194,29.7683 41.5,29.5C 41.5,29.1667 41.5,28.8333 41.5,28.5C 42.6528,26.364 43.9862,24.364 45.5,22.5 Z"/></g>
<g><path style="opacity:1" fill="#3397e8" d="M 45.5,20.5 C 45.5,21.1667 45.5,21.8333 45.5,22.5C 43.9862,24.364 42.6528,26.364 41.5,28.5C 37.9707,26.5772 33.9707,25.9106 29.5,26.5C 28.9455,30.0122 29.6122,33.0122 31.5,35.5C 31.5,35.8333 31.5,36.1667 31.5,36.5C 30.5,36.5 29.5,36.5 28.5,36.5C 28.5,32.1667 28.5,27.8333 28.5,23.5C 33.0992,24.0918 34.7659,22.4251 33.5,18.5C 32.2825,17.8386 30.9492,17.1719 29.5,16.5C 34.1313,15.3384 38.798,15.1717 43.5,16C 44.0989,17.6225 44.7656,19.1225 45.5,20.5 Z"/></g>
<g><path style="opacity:0.904" fill="#eee8d3" d="M 7.5,19.5 C 8.31863,21.7722 8.9853,24.1055 9.5,26.5C 7.83333,26.5 6.16667,26.5 4.5,26.5C 4.33788,24.4727 4.50454,22.4727 5,20.5C 5.67076,19.7476 6.5041,19.4142 7.5,19.5 Z"/></g>
<g><path style="opacity:1" fill="#94c2f0" d="M 22.5,23.5 C 23.4849,27.6344 23.8182,31.9677 23.5,36.5C 22.8333,36.5 22.1667,36.5 21.5,36.5C 21.5,36.1667 21.5,35.8333 21.5,35.5C 22.4816,32.0381 22.815,28.3714 22.5,24.5C 22.5,24.1667 22.5,23.8333 22.5,23.5 Z"/></g>
<g><path style="opacity:1" fill="#f1ecd8" d="M 11.5,30.5 C 14.5231,32.6782 17.8564,34.3449 21.5,35.5C 21.5,35.8333 21.5,36.1667 21.5,36.5C 16.1667,36.5 10.8333,36.5 5.5,36.5C 5.16667,32.1667 7.16667,30.1667 11.5,30.5 Z"/></g>
<g><path style="opacity:0.978" fill="#f1ead4" d="M 40.5,31.5 C 45.1746,30.3395 47.8413,32.0061 48.5,36.5C 42.8333,36.5 37.1667,36.5 31.5,36.5C 31.5,36.1667 31.5,35.8333 31.5,35.5C 34.6484,34.4242 37.6484,33.0909 40.5,31.5 Z"/></g>
</svg>
