<?xml version="1.0" encoding="UTF-8"?>
<!DOCTYPE svg PUBLIC "-//W3C//DTD SVG 1.1//EN" "http://www.w3.org/Graphics/SVG/1.1/DTD/svg11.dtd">
<svg xmlns="http://www.w3.org/2000/svg" version="1.1" width="54px" height="45px" style="shape-rendering:geometricPrecision; text-rendering:geometricPrecision; image-rendering:optimizeQuality; fill-rule:evenodd; clip-rule:evenodd" xmlns:xlink="http://www.w3.org/1999/xlink">
<g><path style="opacity:0.999" fill="#dbf6fd" d="M 6.5,-0.5 C 18.1667,-0.5 29.8333,-0.5 41.5,-0.5C 42.1667,0.166667 42.8333,0.833333 43.5,1.5C 42.5655,2.56764 42.2322,3.90097 42.5,5.5C 41.3052,5.67754 40.1385,6.01087 39,6.5C 31.5444,2.97755 27.3778,5.31089 26.5,13.5C 20.3454,13.5888 15.3454,11.2554 11.5,6.5C 10.8165,6.86273 10.1499,7.19607 9.5,7.5C 7.31008,6.02521 5.97675,4.02521 5.5,1.5C 5.06178,1.56544 4.72845,1.39877 4.5,1C 5.4158,0.721579 6.08247,0.221579 6.5,-0.5 Z"/></g>
<g><path style="opacity:0.012" fill="#161616" d="M 43.5,1.5 C 45.0808,3.14166 45.7475,5.14166 45.5,7.5C 44.7777,6.44886 43.7777,5.78219 42.5,5.5C 42.2322,3.90097 42.5655,2.56764 43.5,1.5 Z"/></g>
<g><path style="opacity:0.066" fill="#171717" d="M 5.5,1.5 C 5.97675,4.02521 7.31008,6.02521 9.5,7.5C 9.5,8.16667 9.5,8.83333 9.5,9.5C 7.3792,9.32526 5.3792,9.65859 3.5,10.5C 3.06525,7.16248 3.73192,4.16248 5.5,1.5 Z"/></g>
<g><path style="opacity:0.989" fill="#3ab4ee" d="M 42.5,5.5 C 43.7777,5.78219 44.7777,6.44886 45.5,7.5C 46.1667,7.5 46.5,7.83333 46.5,8.5C 45.6618,8.84171 45.3284,9.50838 45.5,10.5C 44.4168,10.5394 43.4168,10.8728 42.5,11.5C 41.52,14.0865 41.1866,16.7531 41.5,19.5C 41.1667,19.5 40.8333,19.5 40.5,19.5C 40.5,18.1667 40.5,16.8333 40.5,15.5C 30.6103,15.5941 20.9436,15.5941 11.5,15.5C 11.9382,15.5654 12.2716,15.3988 12.5,15C 11.1312,13.2811 10.1312,11.4478 9.5,9.5C 9.5,8.83333 9.5,8.16667 9.5,7.5C 10.1499,7.19607 10.8165,6.86273 11.5,6.5C 15.3454,11.2554 20.3454,13.5888 26.5,13.5C 27.3778,5.31089 31.5444,2.97755 39,6.5C 40.1385,6.01087 41.3052,5.67754 42.5,5.5 Z"/></g>
<g><path style="opacity:0.013" fill="#000000" d="M 46.5,8.5 C 47.1667,8.5 47.5,8.83333 47.5,9.5C 46.8333,9.83333 46.1667,10.1667 45.5,10.5C 45.3284,9.50838 45.6618,8.84171 46.5,8.5 Z"/></g>
<g><path style="opacity:0.985" fill="#dcf4fa" d="M 9.5,9.5 C 10.1312,11.4478 11.1312,13.2811 12.5,15C 12.2716,15.3988 11.9382,15.5654 11.5,15.5C 10.8333,15.5 10.5,15.8333 10.5,16.5C 5.06868,17.9064 2.73534,15.9064 3.5,10.5C 5.3792,9.65859 7.3792,9.32526 9.5,9.5 Z"/></g>
<g><path style="opacity:0.928" fill="#d8ecf1" d="M 47.5,9.5 C 48.5,10.8333 49.5,12.1667 50.5,13.5C 49.5415,18.1687 46.5415,20.1687 41.5,19.5C 41.1866,16.7531 41.52,14.0865 42.5,11.5C 43.4168,10.8728 44.4168,10.5394 45.5,10.5C 46.1667,10.1667 46.8333,9.83333 47.5,9.5 Z"/></g>
<g><path style="opacity:0.12" fill="#111212" d="M 3.5,10.5 C 2.73534,15.9064 5.06868,17.9064 10.5,16.5C 10.4326,17.9587 10.7659,19.2921 11.5,20.5C 6.87749,19.4082 5.04416,21.0748 6,25.5C 8.3806,26.435 10.8806,26.7683 13.5,26.5C 13.5,27.1667 13.8333,27.5 14.5,27.5C 12.7512,28.9851 10.7512,29.9851 8.5,30.5C 7.83333,30.5 7.5,30.8333 7.5,31.5C 6.56552,32.5676 6.23219,33.901 6.5,35.5C 18.8333,35.5 31.1667,35.5 43.5,35.5C 44.1571,32.1592 42.8237,30.1592 39.5,29.5C 41.4233,28.6922 43.4233,28.1922 45.5,28C 48.033,25.916 48.033,23.916 45.5,22C 43.8659,21.5065 42.1992,21.3398 40.5,21.5C 40.5,20.8333 40.5,20.1667 40.5,19.5C 40.8333,19.5 41.1667,19.5 41.5,19.5C 46.5415,20.1687 49.5415,18.1687 50.5,13.5C 51.6327,15.0552 52.2994,16.8886 52.5,19C 51.0144,23.3536 50.1811,27.8536 50,32.5C 49.1667,34 48,35.1667 46.5,36C 47.205,39.2847 45.8717,41.7847 42.5,43.5C 31.0124,43.4897 19.5124,43.4897 8,43.5C 6.52719,43.0969 5.19386,42.4303 4,41.5C 3.50335,39.1902 3.33669,36.8568 3.5,34.5C 6.18674,35.0606 6.18674,34.3939 3.5,32.5C 2.98894,26.8541 1.65561,21.5208 -0.5,16.5C -0.5,16.1667 -0.5,15.8333 -0.5,15.5C 0.132443,13.2574 1.46578,11.5907 3.5,10.5 Z"/></g>
<g><path style="opacity:0.988" fill="#d6eff8" d="M 39.5,21.5 C 39.8333,21.5 40.1667,21.5 40.5,21.5C 42.1992,21.3398 43.8659,21.5065 45.5,22C 48.033,23.916 48.033,25.916 45.5,28C 43.4233,28.1922 41.4233,28.6922 39.5,29.5C 42.8237,30.1592 44.1571,32.1592 43.5,35.5C 31.1667,35.5 18.8333,35.5 6.5,35.5C 6.23219,33.901 6.56552,32.5676 7.5,31.5C 17.1695,36.2334 26.1695,35.2334 34.5,28.5C 36.8901,26.7334 38.5568,24.4001 39.5,21.5 Z"/></g>
<g><path style="opacity:1" fill="#2f9cea" d="M 39.5,21.5 C 38.5568,24.4001 36.8901,26.7334 34.5,28.5C 32.4294,27.1914 29.9294,26.5248 27,26.5C 23.3095,26.3869 20.1428,27.3869 17.5,29.5C 17.1788,27.9519 16.1788,27.2852 14.5,27.5C 13.8333,27.5 13.5,27.1667 13.5,26.5C 12.8902,25.609 12.5569,24.609 12.5,23.5C 14.9424,23.6463 15.6091,22.813 14.5,21C 23.0104,20.1768 31.3437,20.3434 39.5,21.5 Z"/></g>
<g><path style="opacity:1" fill="#ddf6fd" d="M 11.5,20.5 C 13.4812,21.1054 13.8146,22.1054 12.5,23.5C 12.5569,24.609 12.8902,25.609 13.5,26.5C 10.8806,26.7683 8.3806,26.435 6,25.5C 5.04416,21.0748 6.87749,19.4082 11.5,20.5 Z"/></g>
<g><path style="opacity:0.993" fill="#2eaaed" d="M 11.5,15.5 C 20.9436,15.5941 30.6103,15.5941 40.5,15.5C 40.5,16.8333 40.5,18.1667 40.5,19.5C 40.5,20.1667 40.5,20.8333 40.5,21.5C 40.1667,21.5 39.8333,21.5 39.5,21.5C 31.3437,20.3434 23.0104,20.1768 14.5,21C 15.6091,22.813 14.9424,23.6463 12.5,23.5C 13.8146,22.1054 13.4812,21.1054 11.5,20.5C 10.7659,19.2921 10.4326,17.9587 10.5,16.5C 10.5,15.8333 10.8333,15.5 11.5,15.5 Z"/></g>
<g><path style="opacity:1" fill="#2d89e6" d="M 34.5,28.5 C 26.1695,35.2334 17.1695,36.2334 7.5,31.5C 7.5,30.8333 7.83333,30.5 8.5,30.5C 11.5448,30.4921 14.5448,30.1587 17.5,29.5C 20.1428,27.3869 23.3095,26.3869 27,26.5C 29.9294,26.5248 32.4294,27.1914 34.5,28.5 Z"/></g>
<g><path style="opacity:1" fill="#c2e4f6" d="M 14.5,27.5 C 16.1788,27.2852 17.1788,27.9519 17.5,29.5C 14.5448,30.1587 11.5448,30.4921 8.5,30.5C 10.7512,29.9851 12.7512,28.9851 14.5,27.5 Z"/></g>
<g><path style="opacity:0.012" fill="#939393" d="M 3.5,32.5 C 6.18674,34.3939 6.18674,35.0606 3.5,34.5C 3.5,33.8333 3.5,33.1667 3.5,32.5 Z"/></g>
</svg>
