<?xml version="1.0" encoding="UTF-8"?>
<!DOCTYPE svg PUBLIC "-//W3C//DTD SVG 1.1//EN" "http://www.w3.org/Graphics/SVG/1.1/DTD/svg11.dtd">
<svg xmlns="http://www.w3.org/2000/svg" version="1.1" width="54px" height="45px" style="shape-rendering:geometricPrecision; text-rendering:geometricPrecision; image-rendering:optimizeQuality; fill-rule:evenodd; clip-rule:evenodd" xmlns:xlink="http://www.w3.org/1999/xlink">
<g><path style="opacity:0.965" fill="#fcf1dd" d="M 5.5,-0.5 C 10.5,-0.5 15.5,-0.5 20.5,-0.5C 17.8695,1.15264 15.2028,2.8193 12.5,4.5C 9.01402,5.17149 6.34735,4.17149 4.5,1.5C 4.83333,0.833333 5.16667,0.166667 5.5,-0.5 Z"/></g>
<g><path style="opacity:1" fill="#fc5d69" d="M 20.5,-0.5 C 24.5,-0.5 28.5,-0.5 32.5,-0.5C 33.8484,0.60064 35.3484,1.60064 37,2.5C 37.8249,4.7008 37.3249,6.53413 35.5,8C 31.3211,6.77322 26.9877,6.43989 22.5,7C 19.8541,7.80409 17.8541,9.30409 16.5,11.5C 14.5,10.1667 12.5,8.83333 10.5,7.5C 11.1667,6.5 11.8333,5.5 12.5,4.5C 15.2028,2.8193 17.8695,1.15264 20.5,-0.5 Z"/></g>
<g><path style="opacity:0.087" fill="#191918" d="M 4.5,1.5 C 6.34735,4.17149 9.01402,5.17149 12.5,4.5C 11.8333,5.5 11.1667,6.5 10.5,7.5C 9.59872,8.29049 8.93205,9.29049 8.5,10.5C 6.86124,10.0742 5.52791,10.0742 4.5,10.5C 3.05984,9.05391 2.39317,7.22057 2.5,5C 2.60826,3.31887 3.27493,2.1522 4.5,1.5 Z"/></g>
<g><path style="opacity:0.102" fill="#181817" d="M 48.5,-0.5 C 48.8333,-0.5 49.1667,-0.5 49.5,-0.5C 51.1534,2.75721 51.4867,6.09055 50.5,9.5C 49.6431,10.4252 48.6431,11.0919 47.5,11.5C 45.1432,11.6633 42.8098,11.4966 40.5,11C 38.6968,6.4528 40.3634,4.4528 45.5,5C 46.9711,3.41671 47.9711,1.58337 48.5,-0.5 Z"/></g>
<g><path style="opacity:1" fill="#f6edd1" d="M 32.5,-0.5 C 37.8333,-0.5 43.1667,-0.5 48.5,-0.5C 47.9711,1.58337 46.9711,3.41671 45.5,5C 40.3634,4.4528 38.6968,6.4528 40.5,11C 42.8098,11.4966 45.1432,11.6633 47.5,11.5C 48.1667,12.1667 48.8333,12.8333 49.5,13.5C 50.3201,17.2221 48.9868,19.5554 45.5,20.5C 45.822,18.2776 45.1554,16.4443 43.5,15C 38.1771,14.5006 32.8437,14.334 27.5,14.5C 27.2436,16.7925 27.5769,18.9592 28.5,21C 31.6946,21.1805 34.6946,21.6805 37.5,22.5C 36.075,23.922 35.075,25.5887 34.5,27.5C 26.6308,31.2643 20.2974,29.5976 15.5,22.5C 15.244,18.7307 15.5773,15.0641 16.5,11.5C 17.8541,9.30409 19.8541,7.80409 22.5,7C 26.9877,6.43989 31.3211,6.77322 35.5,8C 37.3249,6.53413 37.8249,4.7008 37,2.5C 35.3484,1.60064 33.8484,0.60064 32.5,-0.5 Z"/></g>
<g><path style="opacity:0.991" fill="#f9eed2" d="M 8.5,10.5 C 8.80155,13.0593 8.46822,15.3926 7.5,17.5C 4.08968,17.6162 2.75635,15.9496 3.5,12.5C 3.83333,11.8333 4.16667,11.1667 4.5,10.5C 5.52791,10.0742 6.86124,10.0742 8.5,10.5 Z"/></g>
<g><path style="opacity:0.998" fill="#fcd14d" d="M 10.5,7.5 C 12.5,8.83333 14.5,10.1667 16.5,11.5C 15.5773,15.0641 15.244,18.7307 15.5,22.5C 13.9991,23.7515 12.3325,24.7515 10.5,25.5C 9.5,24.1667 8.5,22.8333 7.5,21.5C 7.5,20.1667 7.5,18.8333 7.5,17.5C 8.46822,15.3926 8.80155,13.0593 8.5,10.5C 8.93205,9.29049 9.59872,8.29049 10.5,7.5 Z"/></g>
<g><path style="opacity:0.121" fill="#131313" d="M 3.5,12.5 C 2.75635,15.9496 4.08968,17.6162 7.5,17.5C 7.5,18.8333 7.5,20.1667 7.5,21.5C 6.5,21.5 5.5,21.5 4.5,21.5C 3.09359,26.9313 5.09359,29.2647 10.5,28.5C 11.3382,28.8417 11.6716,29.5084 11.5,30.5C 7.686,30.6509 6.01934,32.6509 6.5,36.5C 12.1667,36.5 17.8333,36.5 23.5,36.5C 25.8333,36.5 28.1667,36.5 30.5,36.5C 35.5,36.5 40.5,36.5 45.5,36.5C 45.8174,32.8284 44.1507,31.1617 40.5,31.5C 40.8333,30.8333 41.1667,30.1667 41.5,29.5C 47.32,29.5203 48.6533,27.1869 45.5,22.5C 45.5,21.8333 45.5,21.1667 45.5,20.5C 48.9868,19.5554 50.3201,17.2221 49.5,13.5C 50.9663,14.347 51.7996,15.6803 52,17.5C 52.2078,19.859 52.3744,22.0257 52.5,24C 50.9461,28.18 49.6128,32.5133 48.5,37C 48.9863,39.0266 48.9863,41.1933 48.5,43.5C 46.901,43.2322 45.5676,43.5655 44.5,44.5C 32.5,44.5 20.5,44.5 8.5,44.5C 7.83333,43.1667 7.16667,43.1667 6.5,44.5C 6.16667,44.5 5.83333,44.5 5.5,44.5C 4.62097,42.772 3.9543,40.9386 3.5,39C 5.18945,36.655 4.68945,34.8216 2,33.5C 1.12109,26.8408 0.787757,20.1742 1,13.5C 1.67076,12.7476 2.5041,12.4142 3.5,12.5 Z"/></g>
<g><path style="opacity:0.984" fill="#f4f0d9" d="M 38.5,31.5 C 39.1667,31.5 39.8333,31.5 40.5,31.5C 44.1507,31.1617 45.8174,32.8284 45.5,36.5C 40.5,36.5 35.5,36.5 30.5,36.5C 33.3953,35.2013 36.062,33.5346 38.5,31.5 Z"/></g>
<g><path style="opacity:1" fill="#f4f0d9" d="M 11.5,30.5 C 15.3058,32.9934 19.3058,34.9934 23.5,36.5C 17.8333,36.5 12.1667,36.5 6.5,36.5C 6.01934,32.6509 7.686,30.6509 11.5,30.5 Z"/></g>
<g><path style="opacity:1" fill="#2d9ae7" d="M 37.5,22.5 C 40.0821,22.0254 42.0821,22.6921 43.5,24.5C 43.1075,26.2838 42.4408,27.9505 41.5,29.5C 41.1667,30.1667 40.8333,30.8333 40.5,31.5C 39.8333,31.5 39.1667,31.5 38.5,31.5C 37.5,29.8333 36.1667,28.5 34.5,27.5C 35.075,25.5887 36.075,23.922 37.5,22.5 Z"/></g>
<g><path style="opacity:0.996" fill="#47ca7a" d="M 15.5,22.5 C 20.2974,29.5976 26.6308,31.2643 34.5,27.5C 36.1667,28.5 37.5,29.8333 38.5,31.5C 36.062,33.5346 33.3953,35.2013 30.5,36.5C 28.1667,36.5 25.8333,36.5 23.5,36.5C 19.3058,34.9934 15.3058,32.9934 11.5,30.5C 11.6716,29.5084 11.3382,28.8417 10.5,28.5C 10.5,27.5 10.5,26.5 10.5,25.5C 12.3325,24.7515 13.9991,23.7515 15.5,22.5 Z"/></g>
<g><path style="opacity:0.866" fill="#e9e4d4" d="M 45.5,22.5 C 48.6533,27.1869 47.32,29.5203 41.5,29.5C 42.4408,27.9505 43.1075,26.2838 43.5,24.5C 44.1667,23.8333 44.8333,23.1667 45.5,22.5 Z"/></g>
<g><path style="opacity:0.944" fill="#eee6ce" d="M 7.5,21.5 C 8.5,22.8333 9.5,24.1667 10.5,25.5C 10.5,26.5 10.5,27.5 10.5,28.5C 5.09359,29.2647 3.09359,26.9313 4.5,21.5C 5.5,21.5 6.5,21.5 7.5,21.5 Z"/></g>
<g><path style="opacity:1" fill="#34b3ee" d="M 45.5,20.5 C 45.5,21.1667 45.5,21.8333 45.5,22.5C 44.8333,23.1667 44.1667,23.8333 43.5,24.5C 42.0821,22.6921 40.0821,22.0254 37.5,22.5C 34.6946,21.6805 31.6946,21.1805 28.5,21C 27.5769,18.9592 27.2436,16.7925 27.5,14.5C 32.8437,14.334 38.1771,14.5006 43.5,15C 45.1554,16.4443 45.822,18.2776 45.5,20.5 Z"/></g>
</svg>
