<?xml version="1.0" encoding="UTF-8"?>
<!DOCTYPE svg PUBLIC "-//W3C//DTD SVG 1.1//EN" "http://www.w3.org/Graphics/SVG/1.1/DTD/svg11.dtd">
<svg xmlns="http://www.w3.org/2000/svg" version="1.1" width="56px" height="45px" style="shape-rendering:geometricPrecision; text-rendering:geometricPrecision; image-rendering:optimizeQuality; fill-rule:evenodd; clip-rule:evenodd" xmlns:xlink="http://www.w3.org/1999/xlink">
<g><path style="opacity:0.09" fill="#0f0f0f" d="M 6.5,0.5 C 6.73527,5.40275 9.40193,8.06942 14.5,8.5C 10.7961,9.23315 7.12945,9.89982 3.5,10.5C 3.1936,7.61456 3.52693,4.9479 4.5,2.5C 4.55999,3.04309 4.89333,3.37642 5.5,3.5C 6.38568,2.67504 6.71901,1.67504 6.5,0.5 Z"/></g>
<g><path style="opacity:0.995" fill="#daf4fc" d="M 6.5,0.5 C 6.5,0.166667 6.5,-0.166667 6.5,-0.5C 14.8333,-0.5 23.1667,-0.5 31.5,-0.5C 30.2073,1.29585 28.7073,2.96252 27,4.5C 26.51,5.79323 26.3433,7.12656 26.5,8.5C 31.9572,8.04027 34.6239,5.04027 34.5,-0.5C 37.5,-0.5 40.5,-0.5 43.5,-0.5C 43.5,-0.166667 43.5,0.166667 43.5,0.5C 43.9453,5.71638 41.6119,8.38304 36.5,8.5C 29.9733,10.5673 23.3067,11.0673 16.5,10C 13.9787,11.5579 12.312,13.7245 11.5,16.5C 11.1667,16.5 10.8333,16.5 10.5,16.5C 5.06868,17.9064 2.73534,15.9064 3.5,10.5C 7.12945,9.89982 10.7961,9.23315 14.5,8.5C 9.40193,8.06942 6.73527,5.40275 6.5,0.5 Z"/></g>
<g><path style="opacity:1" fill="#46b9f1" d="M 31.5,-0.5 C 32.5,-0.5 33.5,-0.5 34.5,-0.5C 34.6239,5.04027 31.9572,8.04027 26.5,8.5C 26.3433,7.12656 26.51,5.79323 27,4.5C 28.7073,2.96252 30.2073,1.29585 31.5,-0.5 Z"/></g>
<g><path style="opacity:0.016" fill="#9f9f9f" d="M 6.5,0.5 C 6.71901,1.67504 6.38568,2.67504 5.5,3.5C 4.89333,3.37642 4.55999,3.04309 4.5,2.5C 5.73834,2.18999 5.73834,1.68999 4.5,1C 5.09442,0.535656 5.76109,0.368989 6.5,0.5 Z"/></g>
<g><path style="opacity:0.137" fill="#0b0d0e" d="M 43.5,0.5 C 44.6828,1.50449 46.0161,2.33782 47.5,3C 47.394,5.46565 47.0606,7.96565 46.5,10.5C 44.5,10.5 42.5,10.5 40.5,10.5C 38.847,10.3404 37.5137,9.67373 36.5,8.5C 41.6119,8.38304 43.9453,5.71638 43.5,0.5 Z"/></g>
<g><path style="opacity:0.996" fill="#35b1ee" d="M 36.5,8.5 C 37.5137,9.67373 38.847,10.3404 40.5,10.5C 41.9726,12.5929 41.4726,14.2595 39,15.5C 38.5045,17.4727 38.3379,19.4727 38.5,21.5C 37.5489,20.0813 37.2155,18.4147 37.5,16.5C 28.8333,16.5 20.1667,16.5 11.5,16.5C 12.312,13.7245 13.9787,11.5579 16.5,10C 23.3067,11.0673 29.9733,10.5673 36.5,8.5 Z"/></g>
<g><path style="opacity:0.983" fill="#d7f1f8" d="M 40.5,10.5 C 42.5,10.5 44.5,10.5 46.5,10.5C 49.2921,10.6225 51.2921,11.9558 52.5,14.5C 51.7811,16.0913 50.7811,17.5913 49.5,19C 46.6287,19.1177 43.962,19.7844 41.5,21C 43.5938,22.3515 45.9272,22.8515 48.5,22.5C 49.9064,27.9313 47.9064,30.2647 42.5,29.5C 42.4729,27.8007 41.8062,26.4674 40.5,25.5C 39.8333,24.1667 39.1667,22.8333 38.5,21.5C 38.3379,19.4727 38.5045,17.4727 39,15.5C 41.4726,14.2595 41.9726,12.5929 40.5,10.5 Z"/></g>
<g><path style="opacity:0.124" fill="#131313" d="M 3.5,10.5 C 2.73534,15.9064 5.06868,17.9064 10.5,16.5C 10.5,17.8333 10.5,19.1667 10.5,20.5C 6.39542,20.4962 4.89542,22.4962 6,26.5C 8.04083,27.4231 10.2075,27.7564 12.5,27.5C 13.1098,28.391 13.4431,29.391 13.5,30.5C 8.5,29.5 6.5,31.5 7.5,36.5C 11.5,36.5 15.5,36.5 19.5,36.5C 20.8333,36.5 22.1667,36.5 23.5,36.5C 26.1667,36.5 28.8333,36.5 31.5,36.5C 32.8333,36.5 34.1667,36.5 35.5,36.5C 38.8333,36.5 42.1667,36.5 45.5,36.5C 45.6308,33.6333 44.2974,31.9666 41.5,31.5C 41.3284,30.5084 41.6618,29.8417 42.5,29.5C 47.9064,30.2647 49.9064,27.9313 48.5,22.5C 45.9272,22.8515 43.5938,22.3515 41.5,21C 43.962,19.7844 46.6287,19.1177 49.5,19C 50.7811,17.5913 51.7811,16.0913 52.5,14.5C 55.0748,18.772 54.7414,22.9386 51.5,27C 53.0837,30.7327 52.2504,33.8994 49,36.5C 49.2409,40.2671 47.7409,42.9338 44.5,44.5C 33.5,44.5 22.5,44.5 11.5,44.5C 11.1667,43.1667 10.8333,43.1667 10.5,44.5C 9.83333,44.5 9.16667,44.5 8.5,44.5C 8.15829,43.6618 7.49162,43.3284 6.5,43.5C 3.30527,40.5958 2.6386,37.4291 4.5,34C 4,33.5 3.5,33 3,32.5C 3.07522,26.6975 1.90856,21.3642 -0.5,16.5C -0.5,16.1667 -0.5,15.8333 -0.5,15.5C 0.127626,13.3384 1.46096,11.6718 3.5,10.5 Z"/></g>
<g><path style="opacity:0.985" fill="#d8eff7" d="M 41.5,31.5 C 44.2974,31.9666 45.6308,33.6333 45.5,36.5C 42.1667,36.5 38.8333,36.5 35.5,36.5C 37.2274,34.4333 39.2274,32.7666 41.5,31.5 Z"/></g>
<g><path style="opacity:1" fill="#2787e6" d="M 40.5,25.5 C 41.8062,26.4674 42.4729,27.8007 42.5,29.5C 41.6618,29.8417 41.3284,30.5084 41.5,31.5C 39.2274,32.7666 37.2274,34.4333 35.5,36.5C 34.1667,36.5 32.8333,36.5 31.5,36.5C 28.7565,33.9405 26.0898,33.9405 23.5,36.5C 22.1667,36.5 20.8333,36.5 19.5,36.5C 17.8333,34.1667 15.8333,32.1667 13.5,30.5C 13.4431,29.391 13.1098,28.391 12.5,27.5C 21.5701,25.5692 30.9034,24.9026 40.5,25.5 Z"/></g>
<g><path style="opacity:1" fill="#c0e2fa" d="M 31.5,36.5 C 28.8333,36.5 26.1667,36.5 23.5,36.5C 26.0898,33.9405 28.7565,33.9405 31.5,36.5 Z"/></g>
<g><path style="opacity:0.997" fill="#ddf4fd" d="M 13.5,30.5 C 15.8333,32.1667 17.8333,34.1667 19.5,36.5C 15.5,36.5 11.5,36.5 7.5,36.5C 6.5,31.5 8.5,29.5 13.5,30.5 Z"/></g>
<g><path style="opacity:0.998" fill="#d9f2fa" d="M 10.5,20.5 C 11.4067,22.6568 12.0733,24.9902 12.5,27.5C 10.2075,27.7564 8.04083,27.4231 6,26.5C 4.89542,22.4962 6.39542,20.4962 10.5,20.5 Z"/></g>
<g><path style="opacity:1" fill="#2b9fea" d="M 10.5,16.5 C 10.8333,16.5 11.1667,16.5 11.5,16.5C 20.1667,16.5 28.8333,16.5 37.5,16.5C 37.2155,18.4147 37.5489,20.0813 38.5,21.5C 39.1667,22.8333 39.8333,24.1667 40.5,25.5C 30.9034,24.9026 21.5701,25.5692 12.5,27.5C 12.0733,24.9902 11.4067,22.6568 10.5,20.5C 10.5,19.1667 10.5,17.8333 10.5,16.5 Z"/></g>
<g><path style="opacity:0.004" fill="#000000" d="M 6.5,43.5 C 6.5,43.8333 6.5,44.1667 6.5,44.5C 5.82986,44.0187 5.82986,43.6853 6.5,43.5 Z"/></g>
</svg>
