<?xml version="1.0" encoding="UTF-8"?>
<!DOCTYPE svg PUBLIC "-//W3C//DTD SVG 1.1//EN" "http://www.w3.org/Graphics/SVG/1.1/DTD/svg11.dtd">
<svg xmlns="http://www.w3.org/2000/svg" version="1.1" width="181px" height="158px" style="shape-rendering:geometricPrecision; text-rendering:geometricPrecision; image-rendering:optimizeQuality; fill-rule:evenodd; clip-rule:evenodd" xmlns:xlink="http://www.w3.org/1999/xlink">
<g><path style="opacity:1" fill="#fdfefd" d="M -0.5,-0.5 C 59.8333,-0.5 120.167,-0.5 180.5,-0.5C 180.5,52.1667 180.5,104.833 180.5,157.5C 120.167,157.5 59.8333,157.5 -0.5,157.5C -0.5,104.833 -0.5,52.1667 -0.5,-0.5 Z"/></g>
<g><path style="opacity:1" fill="#598658" d="M 124.5,7.5 C 122.821,7.71481 121.821,7.04814 121.5,5.5C 123.332,4.28194 124.332,4.9486 124.5,7.5 Z"/></g>
<g><path style="opacity:1" fill="#7e9931" d="M 59.5,7.5 C 59.5,8.5 59.5,9.5 59.5,10.5C 53.5827,10.39 47.9161,9.39001 42.5,7.5C 43.6544,4.41438 45.9877,3.08104 49.5,3.5C 52.5318,3.80636 55.5318,4.30636 58.5,5C 59.2524,5.67076 59.5858,6.5041 59.5,7.5 Z"/></g>
<g><path style="opacity:1" fill="#618a31" d="M 138.5,5.5 C 136.7,13.0678 132.033,15.4011 124.5,12.5C 125.456,10.9246 126.123,9.25797 126.5,7.5C 130.075,3.31383 134.075,2.64716 138.5,5.5 Z"/></g>
<g><path style="opacity:1" fill="#d8dfcc" d="M 41.5,9.5 C 41.5,10.8333 41.5,12.1667 41.5,13.5C 41.8016,16.0593 41.4682,18.3926 40.5,20.5C 39.6664,15.38 38.3331,15.38 36.5,20.5C 35.71,19.3915 35.21,18.0581 35,16.5C 34.586,16.9574 34.086,17.2907 33.5,17.5C 32.0298,11.0408 31.3631,11.3742 31.5,18.5C 30.1618,14.4946 30.4952,10.4946 32.5,6.5C 36.8354,3.33579 39.8354,4.33579 41.5,9.5 Z"/></g>
<g><path style="opacity:1" fill="#2c873c" d="M 48.5,12.5 C 46.8249,14.456 47.1582,15.7893 49.5,16.5C 48.713,18.1042 47.3797,18.7709 45.5,18.5C 43.7376,17.7377 42.7376,16.4044 42.5,14.5C 43.6256,13.2858 44.9589,12.2858 46.5,11.5C 47.4164,11.5427 48.0831,11.8761 48.5,12.5 Z"/></g>
<g><path style="opacity:1" fill="#96c89c" d="M 159.5,14.5 C 157.821,14.7148 156.821,14.0481 156.5,12.5C 157.209,11.596 158.209,11.2627 159.5,11.5C 159.5,12.5 159.5,13.5 159.5,14.5 Z"/></g>
<g><path style="opacity:1" fill="#c3d297" d="M 29.5,8.5 C 29.5,13.1667 29.5,17.8333 29.5,22.5C 25.3586,22.6964 23.0252,20.6964 22.5,16.5C 22.4534,14.9623 23.1201,13.9623 24.5,13.5C 24.5,12.8333 24.5,12.1667 24.5,11.5C 25.2998,9.25915 26.9664,8.25915 29.5,8.5 Z"/></g>
<g><path style="opacity:1" fill="#78bc8e" d="M 48.5,12.5 C 50.6204,13.4033 50.9538,14.7367 49.5,16.5C 47.1582,15.7893 46.8249,14.456 48.5,12.5 Z"/></g>
<g><path style="opacity:1" fill="#bdcd6d" d="M 24.5,13.5 C 25.7348,13.2786 26.7348,12.6119 27.5,11.5C 27.8333,12 28.1667,12.5 28.5,13C 27.8035,15.8961 27.4702,18.7294 27.5,21.5C 26.5,20.5 25.5,19.5 24.5,18.5C 25.0522,16.9974 25.0522,15.3307 24.5,13.5 Z"/></g>
<g><path style="opacity:1" fill="#85a465" d="M 24.5,11.5 C 24.5,12.1667 24.5,12.8333 24.5,13.5C 23.1201,13.9623 22.4534,14.9623 22.5,16.5C 23.0252,20.6964 25.3586,22.6964 29.5,22.5C 27.4085,24.8072 25.2418,24.4739 23,21.5C 21.2814,18.5457 21.1147,15.5457 22.5,12.5C 23.1667,12.1667 23.8333,11.8333 24.5,11.5 Z"/></g>
<g><path style="opacity:1" fill="#81ad51" d="M 161.5,15.5 C 164.438,16.622 166.438,18.622 167.5,21.5C 167.716,26.5612 166.549,31.2278 164,35.5C 162.404,31.9372 162.237,28.2706 163.5,24.5C 163.539,21.1903 162.206,18.5237 159.5,16.5C 159.957,15.7025 160.624,15.3691 161.5,15.5 Z"/></g>
<g><path style="opacity:1" fill="#b4c455" d="M 36.5,20.5 C 36.631,21.2389 36.4643,21.9056 36,22.5C 35.0138,21.8288 33.8471,21.8288 32.5,22.5C 32.1667,21.1667 31.8333,19.8333 31.5,18.5C 31.3631,11.3742 32.0298,11.0408 33.5,17.5C 34.086,17.2907 34.586,16.9574 35,16.5C 35.21,18.0581 35.71,19.3915 36.5,20.5 Z"/></g>
<g><path style="opacity:1" fill="#b5c4a3" d="M 51.5,20.5 C 50.7515,22.3325 49.7515,23.9991 48.5,25.5C 47.5,24.1667 46.5,24.1667 45.5,25.5C 43.8632,26.2178 42.1966,26.3845 40.5,26C 42.3772,24.8147 44.3772,23.8147 46.5,23C 45.062,22.7811 43.7287,22.2811 42.5,21.5C 44.9688,20.8319 47.3021,20.1653 49.5,19.5C 50.9245,17.9689 51.5912,18.3023 51.5,20.5 Z"/></g>
<g><path style="opacity:1" fill="#7c9c5a" d="M 148.5,7.5 C 151.69,7.68712 153.69,9.35379 154.5,12.5C 155.194,20.64 151.528,24.14 143.5,23C 137.169,19.1863 136.169,14.353 140.5,8.5C 143.117,6.5663 145.783,6.23297 148.5,7.5 Z"/></g>
<g><path style="opacity:1" fill="#cfdca9" d="M 144.5,8.5 C 143.697,9.42317 143.53,10.4232 144,11.5C 145.793,12.9703 147.793,13.9703 150,14.5C 151.376,14.3158 152.209,13.6491 152.5,12.5C 153.833,14.1667 153.833,15.8333 152.5,17.5C 152.209,16.3509 151.376,15.6842 150,15.5C 146.856,16.5146 143.689,16.5146 140.5,15.5C 140.5,16.5 140.5,17.5 140.5,18.5C 139.167,16.1667 139.167,13.8333 140.5,11.5C 141.262,9.73758 142.596,8.73758 144.5,8.5 Z"/></g>
<g><path style="opacity:1" fill="#c0d164" d="M 140.5,11.5 C 145.421,13.3536 145.421,14.3536 140.5,14.5C 140.5,13.5 140.5,12.5 140.5,11.5 Z"/></g>
<g><path style="opacity:1" fill="#c2d17a" d="M 148.5,7.5 C 150.555,8.55876 151.889,10.2254 152.5,12.5C 152.209,13.6491 151.376,14.3158 150,14.5C 147.793,13.9703 145.793,12.9703 144,11.5C 143.53,10.4232 143.697,9.42317 144.5,8.5C 145.568,7.56552 146.901,7.23219 148.5,7.5 Z"/></g>
<g><path style="opacity:1" fill="#b8cf71" d="M 51.5,20.5 C 54.179,20.5246 55.5123,21.858 55.5,24.5C 54.1938,25.4674 53.5271,26.8007 53.5,28.5C 52.1667,28.5 50.8333,28.5 49.5,28.5C 48.8902,27.609 48.5569,26.609 48.5,25.5C 49.7515,23.9991 50.7515,22.3325 51.5,20.5 Z"/></g>
<g><path style="opacity:1" fill="#87a459" d="M 157.5,22.5 C 156.461,24.5311 154.795,25.8645 152.5,26.5C 150.801,26.6602 149.134,26.4935 147.5,26C 150.667,24.1667 153.833,22.3333 157,20.5C 157.464,21.0944 157.631,21.7611 157.5,22.5 Z"/></g>
<g><path style="opacity:1" fill="#6ba433" d="M 17.5,16.5 C 20.5438,21.1341 19.8772,25.3007 15.5,29C 11.0748,29.9558 9.40815,28.1225 10.5,23.5C 10.9867,22.5266 11.4867,21.5266 12,20.5C 14.167,19.5119 16.0003,18.1786 17.5,16.5 Z"/></g>
<g><path style="opacity:1" fill="#659c59" d="M 7.5,28.5 C 8.34464,29.6715 9.01131,31.0048 9.5,32.5C 8.16667,32.5 6.83333,32.5 5.5,32.5C 6.60048,31.3951 7.26714,30.0618 7.5,28.5 Z"/></g>
<g><path style="opacity:1" fill="#a9c947" d="M 5.5,32.5 C 6.83333,32.5 8.16667,32.5 9.5,32.5C 10.4511,33.9187 10.7845,35.5853 10.5,37.5C 9.73209,36.7375 9.23209,35.7375 9,34.5C 8.51617,36.9129 8.8495,39.2462 10,41.5C 10.7697,42.5981 11.603,42.5981 12.5,41.5C 13.3657,43.144 13.8657,44.8107 14,46.5C 10.2574,44.2603 7.42404,41.2603 5.5,37.5C 5.5,35.8333 5.5,34.1667 5.5,32.5 Z"/></g>
<g><path style="opacity:1" fill="#cadd8c" d="M 10.5,37.5 C 11.3446,38.6715 12.0113,40.0048 12.5,41.5C 11.603,42.5981 10.7697,42.5981 10,41.5C 8.8495,39.2462 8.51617,36.9129 9,34.5C 9.23209,35.7375 9.73209,36.7375 10.5,37.5 Z"/></g>
<g><path style="opacity:1" fill="#648e65" d="M 5.5,39.5 C 6.5,41.8333 5.83333,42.5 3.5,41.5C 3.5,40.1667 4.16667,39.5 5.5,39.5 Z"/></g>
<g><path style="opacity:1" fill="#73b87b" d="M 171.5,30.5 C 172.398,32.9052 173.898,34.9052 176,36.5C 177.034,41.2634 176.201,45.5967 173.5,49.5C 167.474,47.7915 165.307,43.7915 167,37.5C 168.524,35.1019 170.024,32.7686 171.5,30.5 Z"/></g>
<g><path style="opacity:1" fill="#5a9b43" d="M 3.5,44.5 C 4.87344,44.3433 6.20677,44.51 7.5,45C 9.30505,47.4029 11.6384,49.0695 14.5,50C 16.607,51.2635 17.607,53.0968 17.5,55.5C 15.4727,55.6621 13.4727,55.4955 11.5,55C 9.92209,53.9055 8.25542,53.0722 6.5,52.5C 2.76053,50.7475 1.76053,48.0808 3.5,44.5 Z"/></g>
<g><path style="opacity:1" fill="#4c8635" d="M 173.5,51.5 C 174.675,51.281 175.675,51.6143 176.5,52.5C 175.68,54.1112 174.346,54.7778 172.5,54.5C 172.557,53.391 172.89,52.391 173.5,51.5 Z"/></g>
<g><path style="opacity:1" fill="#b2ca28" d="M 172.5,54.5 C 173.531,55.2485 174.698,55.9152 176,56.5C 176.556,58.8848 176.39,61.2181 175.5,63.5C 168.549,65.8742 164.882,63.5409 164.5,56.5C 165.29,57.6085 165.79,58.9419 166,60.5C 166.273,58.8988 166.773,57.3988 167.5,56C 166.584,55.7216 165.918,55.2216 165.5,54.5C 167.688,53.3773 170.021,53.3773 172.5,54.5 Z"/></g>
<g><path style="opacity:1" fill="#dae387" d="M 165.5,54.5 C 165.918,55.2216 166.584,55.7216 167.5,56C 166.773,57.3988 166.273,58.8988 166,60.5C 165.79,58.9419 165.29,57.6085 164.5,56.5C 164.328,55.5084 164.662,54.8417 165.5,54.5 Z"/></g>
<g><path style="opacity:1" fill="#edf2e6" d="M 121.5,5.5 C 121.821,7.04814 122.821,7.71481 124.5,7.5C 125.167,7.5 125.833,7.5 126.5,7.5C 126.123,9.25797 125.456,10.9246 124.5,12.5C 132.033,15.4011 136.7,13.0678 138.5,5.5C 139.167,6.5 139.833,7.5 140.5,8.5C 136.169,14.353 137.169,19.1863 143.5,23C 151.528,24.14 155.194,20.64 154.5,12.5C 155.167,12.5 155.833,12.5 156.5,12.5C 156.821,14.0481 157.821,14.7148 159.5,14.5C 160.492,14.3284 161.158,14.6618 161.5,15.5C 160.624,15.3691 159.957,15.7025 159.5,16.5C 162.206,18.5237 163.539,21.1903 163.5,24.5C 162.732,23.7375 162.232,22.7375 162,21.5C 161.692,22.3081 161.192,22.9747 160.5,23.5C 159.583,22.8728 158.583,22.5394 157.5,22.5C 157.631,21.7611 157.464,21.0944 157,20.5C 153.833,22.3333 150.667,24.1667 147.5,26C 149.134,26.4935 150.801,26.6602 152.5,26.5C 149.149,26.9329 145.816,26.9329 142.5,26.5C 142.306,24.0882 140.973,23.0882 138.5,23.5C 138.5,24.8333 138.5,26.1667 138.5,27.5C 139.833,27.5 141.167,27.5 142.5,27.5C 142.5,28.1667 142.833,28.5 143.5,28.5C 144.579,30.543 146.246,31.8763 148.5,32.5C 148.5,33.5 148.5,34.5 148.5,35.5C 147.833,35.5 147.5,35.1667 147.5,34.5C 147.44,33.9569 147.107,33.6236 146.5,33.5C 145.066,34.5884 144.066,35.9217 143.5,37.5C 138.285,36.7372 133.952,38.2372 130.5,42C 131.707,43.3002 132.374,44.8002 132.5,46.5C 134.398,45.9035 136.065,45.9035 137.5,46.5C 135.862,47.7046 135.529,49.0379 136.5,50.5C 134.028,51.6421 133.028,53.6421 133.5,56.5C 132.609,55.8902 131.609,55.5569 130.5,55.5C 129.604,56.5063 128.938,56.5063 128.5,55.5C 129.079,53.1329 130.412,51.2995 132.5,50C 130.578,48.5804 129.245,46.7471 128.5,44.5C 126.672,45.7952 124.672,46.7952 122.5,47.5C 122.792,49.6887 122.792,51.6887 122.5,53.5C 121.791,54.404 120.791,54.7373 119.5,54.5C 119.216,51.2234 119.549,48.0567 120.5,45C 119.668,44.3123 119.002,44.479 118.5,45.5C 115.489,49.6744 115.822,53.3411 119.5,56.5C 118.833,57.1667 118.167,57.8333 117.5,58.5C 118.018,62.8453 119.684,66.6787 122.5,70C 123.833,70.6667 125.167,70.6667 126.5,70C 127.373,68.955 128.373,68.1217 129.5,67.5C 129.557,68.609 129.89,69.609 130.5,70.5C 129.596,71.209 129.263,72.209 129.5,73.5C 130.5,73.5 131.5,73.5 132.5,73.5C 131.432,74.4345 130.099,74.7678 128.5,74.5C 128.946,77.0101 128.28,79.0101 126.5,80.5C 127.301,82.0418 127.634,83.7085 127.5,85.5C 126.833,85.5 126.167,85.5 125.5,85.5C 126.562,84.4246 126.562,83.4246 125.5,82.5C 124.614,83.325 124.281,84.325 124.5,85.5C 123.833,85.8333 123.167,86.1667 122.5,86.5C 121.833,86.8333 121.167,87.1667 120.5,87.5C 120.062,86.4937 119.396,86.4937 118.5,87.5C 118.5,86.8333 118.5,86.1667 118.5,85.5C 119.789,82.0185 118.789,80.6852 115.5,81.5C 114.833,80.8333 114.167,80.1667 113.5,79.5C 115.199,79.6602 116.866,79.4935 118.5,79C 117.584,78.7216 116.918,78.2216 116.5,77.5C 117.645,76.2073 117.311,75.0407 115.5,74C 113.866,73.5065 112.199,73.3398 110.5,73.5C 110.473,71.8007 109.806,70.4674 108.5,69.5C 108.896,66.9556 108.229,64.7889 106.5,63C 106.833,62.6667 107.167,62.3333 107.5,62C 106.619,61.2917 105.953,60.4584 105.5,59.5C 105.189,58.5222 104.522,57.8555 103.5,57.5C 102.304,57.8457 102.304,58.3457 103.5,59C 100.665,59.784 97.9986,60.1174 95.5,60C 97.0267,61.0319 98.36,62.1986 99.5,63.5C 100.562,64.5754 100.562,65.5754 99.5,66.5C 97.9713,65.2371 96.3046,64.2371 94.5,63.5C 93.8865,61.7175 92.7198,60.3841 91,59.5C 90.376,57.5355 90.876,55.8689 92.5,54.5C 99.9999,55.5753 100.167,55.2419 93,53.5C 92.1667,53.8333 91.3333,54.1667 90.5,54.5C 89.9495,56.6568 89.2829,58.6568 88.5,60.5C 87.1667,60.5 85.8333,60.5 84.5,60.5C 84.6509,64.314 86.6509,65.9807 90.5,65.5C 90.4326,66.9587 90.7659,68.2921 91.5,69.5C 90.5041,69.5858 89.6708,69.2524 89,68.5C 88.2174,70.4335 88.7174,71.9335 90.5,73C 89.7476,73.6708 89.4142,74.5041 89.5,75.5C 88.08,73.1137 87.08,70.447 86.5,67.5C 85.0169,75.3595 88.3502,79.3595 96.5,79.5C 96.5,80.1667 96.5,80.8333 96.5,81.5C 93.7938,81.4249 91.1272,81.0916 88.5,80.5C 88.7148,82.1788 88.0481,83.1788 86.5,83.5C 85.9744,81.7697 84.9744,80.4363 83.5,79.5C 82.791,78.596 81.791,78.2627 80.5,78.5C 80.815,82.3714 80.4816,86.0381 79.5,89.5C 79.665,86.1501 79.4983,82.8168 79,79.5C 77.5391,78.1175 76.7058,78.4508 76.5,80.5C 75.8333,80.5 75.1667,80.5 74.5,80.5C 74.281,75.3706 73.6144,75.3706 72.5,80.5C 71.5,80.5 70.5,80.5 69.5,80.5C 69.5,79.8333 69.5,79.1667 69.5,78.5C 72.8109,72.5485 71.6442,67.5485 66,63.5C 65.79,65.0581 65.29,66.3915 64.5,67.5C 64.1924,65.076 64.5258,62.7427 65.5,60.5C 66.1924,61.0253 66.6924,61.6919 67,62.5C 68.7189,61.1312 70.5522,60.1312 72.5,59.5C 82.2956,62.3108 85.2956,59.1441 81.5,50C 78.5178,49.2971 75.8512,49.7971 73.5,51.5C 72.6618,51.8417 72.3284,52.5084 72.5,53.5C 70.0502,54.7114 68.0502,56.378 66.5,58.5C 66.4894,56.9826 65.8228,55.8159 64.5,55C 60.2845,53.3158 55.9512,52.1491 51.5,51.5C 51.2606,53.4672 51.5939,55.3005 52.5,57C 55.0804,58.1445 57.7471,58.9778 60.5,59.5C 62.6037,62.003 62.9371,64.6697 61.5,67.5C 61.9193,64.6755 60.9193,62.5088 58.5,61C 54.611,61.7484 50.611,62.2484 46.5,62.5C 47.8856,60.2395 47.2189,59.4062 44.5,60C 43.5939,61.6995 43.2606,63.5328 43.5,65.5C 40.133,64.9987 39.7996,63.832 42.5,62C 41.9444,60.9889 41.2778,60.1556 40.5,59.5C 42.7454,57.6386 45.4121,56.6386 48.5,56.5C 48.5,55.5 48.5,54.5 48.5,53.5C 49.1098,52.609 49.4431,51.609 49.5,50.5C 50.9217,50.2914 52.255,49.7914 53.5,49C 55.2559,43.7831 58.9226,41.6164 64.5,42.5C 65.1667,41.8333 65.8333,41.1667 66.5,40.5C 68.0481,40.1788 68.7148,39.1788 68.5,37.5C 69.1667,38.5 69.8333,39.5 70.5,40.5C 69.1938,41.4674 68.5271,42.8007 68.5,44.5C 71.1667,44.8333 73.8333,45.1667 76.5,45.5C 76.9689,42.6067 75.9689,40.6067 73.5,39.5C 74.2905,38.5987 75.2905,37.9321 76.5,37.5C 76.6767,40.984 77.6767,43.984 79.5,46.5C 80.29,45.3915 80.79,44.0581 81,42.5C 81.3826,43.056 81.8826,43.3893 82.5,43.5C 83.6855,51.0031 87.1855,52.3364 93,47.5C 93.6667,46.1667 93.6667,44.8333 93,43.5C 90.6303,40.9614 88.1303,38.6281 85.5,36.5C 83.3647,34.631 80.6981,33.9644 77.5,34.5C 78.2625,33.7321 79.2625,33.2321 80.5,33C 78.4834,30.1388 75.8167,28.3054 72.5,27.5C 70.369,26.6862 68.0356,26.1862 65.5,26C 68.9552,25.8804 71.6219,25.3804 73.5,24.5C 72.9423,23.2101 71.9423,22.3768 70.5,22C 65.4682,20.5875 61.1349,21.5875 57.5,25C 58.7375,25.2321 59.7375,25.7321 60.5,26.5C 58.4458,26.6347 56.7791,25.968 55.5,24.5C 55.5123,21.858 54.179,20.5246 51.5,20.5C 51.5912,18.3023 50.9245,17.9689 49.5,19.5C 47.901,19.7678 46.5676,19.4345 45.5,18.5C 47.3797,18.7709 48.713,18.1042 49.5,16.5C 50.9538,14.7367 50.6204,13.4033 48.5,12.5C 48.0831,11.8761 47.4164,11.5427 46.5,11.5C 44.9589,12.2858 43.6256,13.2858 42.5,14.5C 42.5,13.8333 42.1667,13.5 41.5,13.5C 41.5,12.1667 41.5,10.8333 41.5,9.5C 42.3382,9.15829 42.6716,8.49162 42.5,7.5C 47.9161,9.39001 53.5827,10.39 59.5,10.5C 59.5,9.5 59.5,8.5 59.5,7.5C 60.2679,8.26253 60.7679,9.26253 61,10.5C 61.3826,9.94404 61.8826,9.61071 62.5,9.5C 58.8124,16.2925 60.6457,18.9592 68,17.5C 68.4536,15.4636 69.2869,13.6303 70.5,12C 70.2568,11.0979 69.9234,10.2646 69.5,9.5C 71.2469,10.9807 72.4136,12.9807 73,15.5C 73.6708,16.2524 74.5041,16.5858 75.5,16.5C 74.9094,17.1515 74.2427,17.8182 73.5,18.5C 74.8532,19.5237 75.5198,20.857 75.5,22.5C 76.8333,22.5 78.1667,22.5 79.5,22.5C 79.5,21.5 79.5,20.5 79.5,19.5C 80.8333,20.8333 82.1667,22.1667 83.5,23.5C 79.091,22.899 77.7576,24.5657 79.5,28.5C 81.9133,31.124 84.2466,31.124 86.5,28.5C 87.6049,29.6005 88.9382,30.2671 90.5,30.5C 88.5391,34.7486 89.5391,38.082 93.5,40.5C 93.8333,40.1667 94.1667,39.8333 94.5,39.5C 91.6295,35.3628 91.9629,31.5294 95.5,28C 94.9341,27.0053 94.2674,26.172 93.5,25.5C 94.5,24.5 95.5,23.5 96.5,22.5C 96.2291,24.3797 96.8958,25.713 98.5,26.5C 99.0736,27.5281 99.407,28.5281 99.5,29.5C 102.032,29.0856 104.532,28.7523 107,28.5C 108.483,25.2976 108.817,21.9643 108,18.5C 107.617,17.944 107.117,17.6107 106.5,17.5C 105.833,17.5 105.5,17.1667 105.5,16.5C 107.028,15.1979 108.028,13.5313 108.5,11.5C 108.543,21.3599 113.21,24.5265 122.5,21C 121.944,20.6174 121.611,20.1174 121.5,19.5C 121.389,18.8826 121.056,18.3826 120.5,18C 116.594,18.1517 113.261,16.985 110.5,14.5C 110.768,12.901 110.434,11.5676 109.5,10.5C 110.926,9.65882 112.26,8.65882 113.5,7.5C 113.682,9.59136 113.348,11.5914 112.5,13.5C 114.332,14.2485 115.999,15.2485 117.5,16.5C 118.563,14.5653 119.897,12.8986 121.5,11.5C 120.137,10.1072 119.304,8.44051 119,6.5C 118.617,7.05596 118.117,7.38929 117.5,7.5C 116.105,6.35233 116.272,5.35233 118,4.5C 119.011,5.33663 120.178,5.66997 121.5,5.5 Z"/></g>
<g><path style="opacity:1" fill="#96bb3c" d="M 105.5,16.5 C 105.5,17.1667 105.833,17.5 106.5,17.5C 106.002,20.4869 105.502,23.4869 105,26.5C 104.282,27.4506 103.449,27.6172 102.5,27C 100.68,26.0206 99.513,24.5206 99,22.5C 98.51,23.7932 98.3433,25.1266 98.5,26.5C 96.8958,25.713 96.2291,24.3797 96.5,22.5C 98.8122,20.8545 100.812,18.8545 102.5,16.5C 103.527,17.7914 104.527,17.7914 105.5,16.5 Z"/></g>
<g><path style="opacity:1" fill="#aecb72" d="M 106.5,17.5 C 107.117,17.6107 107.617,17.944 108,18.5C 108.817,21.9643 108.483,25.2976 107,28.5C 104.532,28.7523 102.032,29.0856 99.5,29.5C 99.407,28.5281 99.0736,27.5281 98.5,26.5C 98.3433,25.1266 98.51,23.7932 99,22.5C 99.513,24.5206 100.68,26.0206 102.5,27C 103.449,27.6172 104.282,27.4506 105,26.5C 105.502,23.4869 106.002,20.4869 106.5,17.5 Z"/></g>
<g><path style="opacity:1" fill="#c7d583" d="M 152.5,17.5 C 151.886,20.7658 149.886,22.0991 146.5,21.5C 143.692,21.9223 141.692,20.9223 140.5,18.5C 140.5,17.5 140.5,16.5 140.5,15.5C 143.689,16.5146 146.856,16.5146 150,15.5C 151.376,15.6842 152.209,16.3509 152.5,17.5 Z"/></g>
<g><path style="opacity:1" fill="#598550" d="M 75.5,16.5 C 77.4044,16.7376 78.7377,17.7376 79.5,19.5C 79.5,20.5 79.5,21.5 79.5,22.5C 78.1667,22.5 76.8333,22.5 75.5,22.5C 75.5198,20.857 74.8532,19.5237 73.5,18.5C 74.2427,17.8182 74.9094,17.1515 75.5,16.5 Z"/></g>
<g><path style="opacity:1" fill="#dfe7ad" d="M 110.5,14.5 C 113.261,16.985 116.594,18.1517 120.5,18C 121.056,18.3826 121.389,18.8826 121.5,19.5C 118.915,18.9276 116.249,18.7609 113.5,19C 110.741,18.1657 109.741,16.6657 110.5,14.5 Z"/></g>
<g><path style="opacity:1" fill="#bfcb79" d="M 54.5,13.5 C 56.1439,13.2865 57.6439,13.6198 59,14.5C 59.4955,16.4727 59.6621,18.4727 59.5,20.5C 54.6283,20.4178 52.9617,18.0845 54.5,13.5 Z"/></g>
<g><path style="opacity:1" fill="#afca3b" d="M 127.5,15.5 C 134.494,14.4937 137.494,17.4937 136.5,24.5C 136.167,26.5 135.833,28.5 135.5,30.5C 134.914,30.7093 134.414,31.0426 134,31.5C 131.333,28.8333 128.667,26.1667 126,23.5C 125.282,20.5929 125.782,17.9262 127.5,15.5 Z"/></g>
<g><path style="opacity:1" fill="#f1f2c9" d="M 127.5,20.5 C 128.837,21.3149 129.837,22.4815 130.5,24C 128.066,24.3329 127.066,23.1662 127.5,20.5 Z"/></g>
<g><path style="opacity:1" fill="#569245" d="M 69.5,15.5 C 71.4759,16.4271 71.8092,17.7605 70.5,19.5C 69.5713,18.3112 69.238,16.9778 69.5,15.5 Z"/></g>
<g><path style="opacity:1" fill="#c6d670" d="M 109.5,10.5 C 110.434,11.5676 110.768,12.901 110.5,14.5C 109.741,16.6657 110.741,18.1657 113.5,19C 116.249,18.7609 118.915,18.9276 121.5,19.5C 121.611,20.1174 121.944,20.6174 122.5,21C 113.21,24.5265 108.543,21.3599 108.5,11.5C 109.167,11.5 109.5,11.1667 109.5,10.5 Z"/></g>
<g><path style="opacity:1" fill="#b5cc36" d="M 69.5,9.5 C 69.9234,10.2646 70.2568,11.0979 70.5,12C 69.2869,13.6303 68.4536,15.4636 68,17.5C 60.6457,18.9592 58.8124,16.2925 62.5,9.5C 64.8333,8.16667 67.1667,8.16667 69.5,9.5 Z"/></g>
<g><path style="opacity:1" fill="#c5d57a" d="M 113.5,7.5 C 114.833,7.5 116.167,7.5 117.5,7.5C 118.117,7.38929 118.617,7.05596 119,6.5C 119.304,8.44051 120.137,10.1072 121.5,11.5C 119.897,12.8986 118.563,14.5653 117.5,16.5C 115.999,15.2485 114.332,14.2485 112.5,13.5C 113.348,11.5914 113.682,9.59136 113.5,7.5 Z"/></g>
<g><path style="opacity:1" fill="#488d38" d="M 6.5,54.5 C 11.1181,56.212 12.1181,59.0453 9.5,63C 7.86586,63.4935 6.19919,63.6602 4.5,63.5C 1.55249,59.627 2.21915,56.627 6.5,54.5 Z"/></g>
<g><path style="opacity:1" fill="#94b533" d="M 10.5,77.5 C 9.16667,76.5 7.83333,75.5 6.5,74.5C 6.49523,66.0042 10.4952,63.1708 18.5,66C 20.9883,68.627 21.1549,71.4603 19,74.5C 16.5084,76.4971 13.675,77.4971 10.5,77.5 Z"/></g>
<g><path style="opacity:1" fill="#f1f5ec" d="M 32.5,6.5 C 30.4952,10.4946 30.1618,14.4946 31.5,18.5C 31.8333,19.8333 32.1667,21.1667 32.5,22.5C 33.452,23.452 34.452,24.452 35.5,25.5C 37.5486,24.1182 39.2153,22.4516 40.5,20.5C 41.4682,18.3926 41.8016,16.0593 41.5,13.5C 42.1667,13.5 42.5,13.8333 42.5,14.5C 42.7376,16.4044 43.7376,17.7377 45.5,18.5C 46.5676,19.4345 47.901,19.7678 49.5,19.5C 47.3021,20.1653 44.9688,20.8319 42.5,21.5C 43.7287,22.2811 45.062,22.7811 46.5,23C 44.3772,23.8147 42.3772,24.8147 40.5,26C 42.1966,26.3845 43.8632,26.2178 45.5,25.5C 44.4891,27.4024 44.3224,29.4024 45,31.5C 45.6667,30.1667 46.3333,28.8333 47,27.5C 48.0291,33.1167 48.8624,33.45 49.5,28.5C 50.8333,28.5 52.1667,28.5 53.5,28.5C 53.5271,26.8007 54.1938,25.4674 55.5,24.5C 56.7791,25.968 58.4458,26.6347 60.5,26.5C 61.5,26.5 62.5,26.5 63.5,26.5C 63.5,27.5 63.5,28.5 63.5,29.5C 63.7993,32.6421 65.4659,34.8088 68.5,36C 71.7719,36.7881 74.7719,36.2881 77.5,34.5C 80.6981,33.9644 83.3647,34.631 85.5,36.5C 84.1779,36.33 83.0113,36.6634 82,37.5C 81.5099,39.5454 81.6765,41.5454 82.5,43.5C 81.8826,43.3893 81.3826,43.056 81,42.5C 80.79,44.0581 80.29,45.3915 79.5,46.5C 79.6633,44.1432 79.4966,41.8098 79,39.5C 78.5831,38.244 77.7498,37.5774 76.5,37.5C 75.2905,37.9321 74.2905,38.5987 73.5,39.5C 72.609,40.1098 71.609,40.4431 70.5,40.5C 69.8333,39.5 69.1667,38.5 68.5,37.5C 66.9519,37.8212 66.2852,38.8212 66.5,40.5C 65.8333,41.1667 65.1667,41.8333 64.5,42.5C 64.4226,41.2502 63.756,40.4169 62.5,40C 60.5,39.3333 58.5,39.3333 56.5,40C 53.2881,42.9267 50.9547,46.4267 49.5,50.5C 49.4431,51.609 49.1098,52.609 48.5,53.5C 47.5489,52.0813 47.2155,50.4147 47.5,48.5C 44.7276,48.78 42.2276,48.1134 40,46.5C 39.1522,49.38 37.6522,51.88 35.5,54C 37.6857,55.4117 39.3524,57.245 40.5,59.5C 41.2778,60.1556 41.9444,60.9889 42.5,62C 39.7996,63.832 40.133,64.9987 43.5,65.5C 44.1667,65.5 44.8333,65.5 45.5,65.5C 45.4142,66.4959 45.7476,67.3292 46.5,68C 49.6243,69.3135 52.791,70.4802 56,71.5C 58.5345,71.1323 60.3678,69.799 61.5,67.5C 62.9371,64.6697 62.6037,62.003 60.5,59.5C 62.5648,59.4828 64.5648,59.1495 66.5,58.5C 68.0502,56.378 70.0502,54.7114 72.5,53.5C 73.3382,53.8417 73.6716,54.5084 73.5,55.5C 72.5655,56.5676 72.2322,57.901 72.5,59.5C 70.5522,60.1312 68.7189,61.1312 67,62.5C 66.6924,61.6919 66.1924,61.0253 65.5,60.5C 64.5258,62.7427 64.1924,65.076 64.5,67.5C 62.1685,73.1635 63.8352,76.8302 69.5,78.5C 69.5,79.1667 69.5,79.8333 69.5,80.5C 68.5269,82.0683 68.3603,83.735 69,85.5C 70.1667,87.1667 71.3333,88.8333 72.5,90.5C 74.2985,91.7879 75.9652,91.7879 77.5,90.5C 78.1667,90.5 78.5,90.1667 78.5,89.5C 78.8333,89.5 79.1667,89.5 79.5,89.5C 80.4816,86.0381 80.815,82.3714 80.5,78.5C 81.791,78.2627 82.791,78.596 83.5,79.5C 83.1949,82.414 83.1949,85.0807 83.5,87.5C 83.281,88.675 83.6143,89.675 84.5,90.5C 85.4288,91.5498 86.0954,91.5498 86.5,90.5C 89.0098,90.0733 91.3432,89.4067 93.5,88.5C 98.3233,87.4799 99.3233,85.1465 96.5,81.5C 96.5,80.8333 96.5,80.1667 96.5,79.5C 100.089,78.9078 102.422,76.9078 103.5,73.5C 101.972,72.6908 100.306,72.0241 98.5,71.5C 96.6264,70.7148 94.6264,70.0482 92.5,69.5C 92.1667,69.5 91.8333,69.5 91.5,69.5C 90.7659,68.2921 90.4326,66.9587 90.5,65.5C 90.5,64.5 90.5,63.5 90.5,62.5C 91.8333,63.5 93.1667,64.5 94.5,65.5C 96.6514,67.7184 99.3181,69.0517 102.5,69.5C 104.309,70.2907 106.309,70.2907 108.5,69.5C 109.806,70.4674 110.473,71.8007 110.5,73.5C 106.54,74.2952 104.207,76.6285 103.5,80.5C 103.235,82.7377 103.068,85.071 103,87.5C 104.667,86.2668 106.167,84.9335 107.5,83.5C 107.5,82.8333 107.5,82.1667 107.5,81.5C 108.803,79.8577 110.136,78.1911 111.5,76.5C 113.415,76.2155 115.081,76.5489 116.5,77.5C 116.918,78.2216 117.584,78.7216 118.5,79C 116.866,79.4935 115.199,79.6602 113.5,79.5C 109.746,80.8276 108.579,83.4942 110,87.5C 112.95,90.1445 115.783,90.1445 118.5,87.5C 119.396,86.4937 120.062,86.4937 120.5,87.5C 120.402,89.5529 121.069,91.2196 122.5,92.5C 127.84,93.991 130.006,91.991 129,86.5C 128.617,85.944 128.117,85.6107 127.5,85.5C 127.634,83.7085 127.301,82.0418 126.5,80.5C 128.28,79.0101 128.946,77.0101 128.5,74.5C 130.099,74.7678 131.432,74.4345 132.5,73.5C 132.715,71.8212 132.048,70.8212 130.5,70.5C 129.89,69.609 129.557,68.609 129.5,67.5C 129.753,65.1727 129.086,63.1727 127.5,61.5C 124.122,60.4092 120.789,59.4092 117.5,58.5C 118.167,57.8333 118.833,57.1667 119.5,56.5C 119.5,55.8333 119.5,55.1667 119.5,54.5C 120.791,54.7373 121.791,54.404 122.5,53.5C 124.858,53.2525 126.858,53.9192 128.5,55.5C 128.938,56.5063 129.604,56.5063 130.5,55.5C 130.488,58.142 131.821,59.4754 134.5,59.5C 134.833,59.5 135.167,59.5 135.5,59.5C 139.4,58.5701 143.4,58.2367 147.5,58.5C 150.041,56.5599 150.041,54.3932 147.5,52C 143.94,50.7633 140.273,50.2633 136.5,50.5C 135.529,49.0379 135.862,47.7046 137.5,46.5C 139.044,46.7031 140.378,47.3698 141.5,48.5C 142.859,47.3757 143.859,46.0423 144.5,44.5C 145.766,45.0899 147.099,45.5899 148.5,46C 147.833,46.3333 147.167,46.6667 146.5,47C 148.224,47.4482 148.891,48.2815 148.5,49.5C 149.411,45.88 150.078,42.2134 150.5,38.5C 150.36,36.9704 149.693,35.9704 148.5,35.5C 148.5,34.5 148.5,33.5 148.5,32.5C 154.471,33.5143 158.805,31.3477 161.5,26C 159.893,26.0187 158.226,26.1854 156.5,26.5C 154.887,27.6923 153.22,28.6923 151.5,29.5C 148.763,29.5987 146.096,29.2653 143.5,28.5C 142.833,28.5 142.5,28.1667 142.5,27.5C 142.5,27.1667 142.5,26.8333 142.5,26.5C 145.816,26.9329 149.149,26.9329 152.5,26.5C 154.795,25.8645 156.461,24.5311 157.5,22.5C 158.583,22.5394 159.583,22.8728 160.5,23.5C 161.192,22.9747 161.692,22.3081 162,21.5C 162.232,22.7375 162.732,23.7375 163.5,24.5C 162.237,28.2706 162.404,31.9372 164,35.5C 166.549,31.2278 167.716,26.5612 167.5,21.5C 168.451,22.9187 168.784,24.5853 168.5,26.5C 169.5,26.5 170.5,26.5 171.5,26.5C 171.5,27.8333 171.5,29.1667 171.5,30.5C 170.024,32.7686 168.524,35.1019 167,37.5C 165.307,43.7915 167.474,47.7915 173.5,49.5C 173.082,50.2216 172.416,50.7216 171.5,51C 172.094,51.4643 172.761,51.631 173.5,51.5C 172.89,52.391 172.557,53.391 172.5,54.5C 170.021,53.3773 167.688,53.3773 165.5,54.5C 164.662,54.8417 164.328,55.5084 164.5,56.5C 164.882,63.5409 168.549,65.8742 175.5,63.5C 173.974,65.13 171.974,65.9633 169.5,66C 171.119,66.2355 172.119,67.0689 172.5,68.5C 170.856,68.2865 169.356,68.6198 168,69.5C 167.505,71.4727 167.338,73.4727 167.5,75.5C 166.732,74.7375 166.232,73.7375 166,72.5C 165.076,74.4951 163.91,74.8284 162.5,73.5C 163.376,73.6309 164.043,73.2975 164.5,72.5C 163.395,71.1076 162.061,69.941 160.5,69C 162.9,68.8142 165.234,68.3142 167.5,67.5C 164.346,65.9741 161.013,65.3075 157.5,65.5C 157.5,65.1667 157.5,64.8333 157.5,64.5C 159.903,63.1648 161.236,61.4981 161.5,59.5C 159.479,60.8545 157.812,62.5212 156.5,64.5C 155.399,65.7997 154.066,66.2997 152.5,66C 153.638,64.2657 154.138,62.4324 154,60.5C 152.311,62.76 151.144,65.26 150.5,68C 148.1,68.1858 145.766,68.6858 143.5,69.5C 145.291,70.1698 146.958,70.8365 148.5,71.5C 148.261,73.4672 148.594,75.3005 149.5,77C 151.352,77.7726 152.686,77.2726 153.5,75.5C 155.167,75.5 156.833,75.5 158.5,75.5C 159.833,76.1667 161.167,76.8333 162.5,77.5C 157.874,76.7004 154.04,78.0337 151,81.5C 150.211,83.7116 150.378,85.7116 151.5,87.5C 152.609,87.4431 153.609,87.1098 154.5,86.5C 156.228,85.621 158.061,84.9543 160,84.5C 161.825,84.9434 163.658,85.2767 165.5,85.5C 165.981,88.0778 165.981,90.0778 165.5,91.5C 163.76,92.8092 162.427,92.4759 161.5,90.5C 163.048,90.1788 163.715,89.1788 163.5,87.5C 162.5,87.5 161.5,87.5 160.5,87.5C 160.5,88.5 160.5,89.5 160.5,90.5C 160.167,90.5 159.833,90.5 159.5,90.5C 151.535,87.9538 148.535,90.6205 150.5,98.5C 152.045,99.4519 153.712,99.7852 155.5,99.5C 154.081,100.451 152.415,100.784 150.5,100.5C 150.167,100.5 149.833,100.5 149.5,100.5C 148.828,99.7326 147.995,99.0659 147,98.5C 146.22,100.387 146.387,102.054 147.5,103.5C 146.167,104.167 144.833,104.833 143.5,105.5C 139.901,105.855 136.735,107.189 134,109.5C 133.51,111.545 133.677,113.545 134.5,115.5C 134.167,115.5 133.833,115.5 133.5,115.5C 132.725,112.368 131.059,109.702 128.5,107.5C 127.749,108.376 127.249,109.376 127,110.5C 126.96,115.157 127.294,119.824 128,124.5C 129.011,125.337 130.178,125.67 131.5,125.5C 130.081,126.451 128.415,126.784 126.5,126.5C 125.412,122.252 122.745,120.752 118.5,122C 114.565,125.496 114.565,128.996 118.5,132.5C 117.175,133.953 116.342,133.619 116,131.5C 115.768,132.737 115.268,133.737 114.5,134.5C 113.886,130.865 113.552,127.198 113.5,123.5C 114.242,121.574 115.242,119.741 116.5,118C 113.54,118.606 111.373,120.439 110,123.5C 109.503,126.146 109.336,128.813 109.5,131.5C 108.691,129.708 108.191,127.708 108,125.5C 107.51,126.793 107.343,128.127 107.5,129.5C 106.127,129.343 104.793,129.51 103.5,130C 104.634,131.016 104.301,131.683 102.5,132C 105.524,133.513 108.191,135.513 110.5,138C 109.897,140.071 108.564,141.238 106.5,141.5C 103.109,140.859 99.7761,139.692 96.5,138C 95.6634,136.989 95.33,135.822 95.5,134.5C 96.9778,134.762 98.3112,134.429 99.5,133.5C 99.1131,132.28 98.2798,131.613 97,131.5C 94.755,132.137 92.5883,132.97 90.5,134C 91.6226,135.044 92.9559,135.71 94.5,136C 93.8333,136.333 93.1667,136.667 92.5,137C 95.9101,140.979 100.243,142.479 105.5,141.5C 104.833,142.167 104.167,142.833 103.5,143.5C 102.833,143.5 102.167,143.5 101.5,143.5C 100.833,142.167 100.167,142.167 99.5,143.5C 97.6208,142.659 95.6208,142.325 93.5,142.5C 92.5985,146.241 93.9319,148.241 97.5,148.5C 95.8148,150.818 93.4815,151.818 90.5,151.5C 90.6633,149.143 90.4966,146.81 90,144.5C 89.79,146.058 89.29,147.391 88.5,148.5C 88.5,147.5 88.5,146.5 88.5,145.5C 85.7628,145.401 83.0961,145.735 80.5,146.5C 80.1583,145.662 79.4916,145.328 78.5,145.5C 81.1234,142.471 80.7901,139.638 77.5,137C 74.328,135.248 71.328,133.248 68.5,131C 66.5273,130.505 64.5273,130.338 62.5,130.5C 62.5,131.5 62.5,132.5 62.5,133.5C 61.5326,132.194 60.1993,131.527 58.5,131.5C 62.822,127.248 63.4887,122.581 60.5,117.5C 61.1667,116.833 61.8333,116.167 62.5,115.5C 63.1847,114.846 64.1847,114.846 65.5,115.5C 66.6473,115.182 67.4806,114.516 68,113.5C 68.4643,114.094 68.631,114.761 68.5,115.5C 67.9522,117.532 66.6188,118.532 64.5,118.5C 65.8492,121.859 67.1825,125.193 68.5,128.5C 70.1016,130.074 72.1016,130.741 74.5,130.5C 74.6465,127.557 75.3132,124.724 76.5,122C 75.9231,120.1 75.2565,118.267 74.5,116.5C 76.0481,116.179 76.7148,115.179 76.5,113.5C 77.7383,113.19 77.7383,112.69 76.5,112C 75.255,111.209 73.9217,110.709 72.5,110.5C 70.5713,109.994 68.9047,108.994 67.5,107.5C 66.6143,108.325 66.281,109.325 66.5,110.5C 65.7777,109.449 64.7777,108.782 63.5,108.5C 67.5807,105.263 68.2474,101.43 65.5,97C 62.3386,96.7967 60.1719,98.2967 59,101.5C 59.1214,105.348 58.9547,109.015 58.5,112.5C 58.7373,111.209 58.404,110.209 57.5,109.5C 56.8333,109.167 56.1667,108.833 55.5,108.5C 54.3991,107.402 53.0657,107.235 51.5,108C 49.5854,110.4 47.9188,112.9 46.5,115.5C 45.8826,115.611 45.3826,115.944 45,116.5C 44.5045,118.473 44.3379,120.473 44.5,122.5C 43.596,121.791 43.2627,120.791 43.5,119.5C 42.1779,119.33 41.0113,119.663 40,120.5C 37.2861,117.843 35.1194,114.843 33.5,111.5C 36.2919,111.548 38.1253,110.215 39,107.5C 40.9039,104.077 41.7372,100.41 41.5,96.5C 39.6096,96.2965 38.1096,96.9632 37,98.5C 34.3185,102.191 32.4852,106.191 31.5,110.5C 30.5655,109.432 30.2322,108.099 30.5,106.5C 33.7493,103.015 33.0826,101.015 28.5,100.5C 28.8333,99.8333 29.1667,99.1667 29.5,98.5C 33.8835,98.6012 36.0502,96.6012 36,92.5C 32.5343,91.2833 29.0343,91.2833 25.5,92.5C 25.5,92.1667 25.5,91.8333 25.5,91.5C 26.0114,89.8053 26.6781,88.1386 27.5,86.5C 28.3957,87.5063 29.0623,87.5063 29.5,86.5C 28.6872,85.1861 27.6872,84.0195 26.5,83C 27.727,81.4126 27.3937,80.0793 25.5,79C 21.6626,78.2387 17.9959,78.7387 14.5,80.5C 15.6016,81.1757 16.6016,81.8423 17.5,82.5C 15.0274,82.0882 13.6941,83.0882 13.5,85.5C 10.8711,83.2666 9.87109,80.6 10.5,77.5C 13.675,77.4971 16.5084,76.4971 19,74.5C 21.1549,71.4603 20.9883,68.627 18.5,66C 10.4952,63.1708 6.49523,66.0042 6.5,74.5C 6.05741,71.1856 5.05741,68.019 3.5,65C 4.05596,64.6174 4.38929,64.1174 4.5,63.5C 6.19919,63.6602 7.86586,63.4935 9.5,63C 12.1181,59.0453 11.1181,56.212 6.5,54.5C 6.5,53.8333 6.5,53.1667 6.5,52.5C 8.25542,53.0722 9.92209,53.9055 11.5,55C 13.4727,55.4955 15.4727,55.6621 17.5,55.5C 17.607,53.0968 16.607,51.2635 14.5,50C 11.6384,49.0695 9.30505,47.4029 7.5,45C 6.20677,44.51 4.87344,44.3433 3.5,44.5C 3.5,43.5 3.5,42.5 3.5,41.5C 5.83333,42.5 6.5,41.8333 5.5,39.5C 5.5,38.8333 5.5,38.1667 5.5,37.5C 7.42404,41.2603 10.2574,44.2603 14,46.5C 13.8657,44.8107 13.3657,43.144 12.5,41.5C 12.0113,40.0048 11.3446,38.6715 10.5,37.5C 10.7845,35.5853 10.4511,33.9187 9.5,32.5C 9.01131,31.0048 8.34464,29.6715 7.5,28.5C 8.76712,26.9611 9.76712,25.2944 10.5,23.5C 9.40815,28.1225 11.0748,29.9558 15.5,29C 19.8772,25.3007 20.5438,21.1341 17.5,16.5C 18.2702,14.0646 19.9368,12.7313 22.5,12.5C 21.1147,15.5457 21.2814,18.5457 23,21.5C 25.2418,24.4739 27.4085,24.8072 29.5,22.5C 29.5,17.8333 29.5,13.1667 29.5,8.5C 30.2223,7.44886 31.2223,6.78219 32.5,6.5 Z"/></g>
<g><path style="opacity:1" fill="#bbc7a4" d="M 156.5,64.5 C 156.833,64.5 157.167,64.5 157.5,64.5C 157.5,64.8333 157.5,65.1667 157.5,65.5C 156.909,66.1515 156.243,66.8182 155.5,67.5C 155.624,68.1067 155.957,68.44 156.5,68.5C 155.07,69.5375 153.403,70.2041 151.5,70.5C 150.391,70.5569 149.391,70.8902 148.5,71.5C 146.958,70.8365 145.291,70.1698 143.5,69.5C 145.766,68.6858 148.1,68.1858 150.5,68C 151.144,65.26 152.311,62.76 154,60.5C 154.138,62.4324 153.638,64.2657 152.5,66C 154.066,66.2997 155.399,65.7997 156.5,64.5 Z"/></g>
<g><path style="opacity:1" fill="#b1cb41" d="M 117.5,58.5 C 120.789,59.4092 124.122,60.4092 127.5,61.5C 129.086,63.1727 129.753,65.1727 129.5,67.5C 128.373,68.1217 127.373,68.955 126.5,70C 125.167,70.6667 123.833,70.6667 122.5,70C 119.684,66.6787 118.018,62.8453 117.5,58.5 Z"/></g>
<g><path style="opacity:1" fill="#95c175" d="M 23.5,60.5 C 26.5184,60.3354 29.5184,60.502 32.5,61C 35.977,64.4816 39.977,67.1482 44.5,69C 38.9567,69.5566 33.29,69.8899 27.5,70C 22.7795,68.189 21.4461,65.0223 23.5,60.5 Z"/></g>
<g><path style="opacity:1" fill="#729956" d="M 157.5,65.5 C 161.013,65.3075 164.346,65.9741 167.5,67.5C 165.234,68.3142 162.9,68.8142 160.5,69C 162.061,69.941 163.395,71.1076 164.5,72.5C 164.043,73.2975 163.376,73.6309 162.5,73.5C 162.027,72.0937 161.027,71.427 159.5,71.5C 158.833,70.1667 157.833,69.1667 156.5,68.5C 155.957,68.44 155.624,68.1067 155.5,67.5C 156.243,66.8182 156.909,66.1515 157.5,65.5 Z"/></g>
<g><path style="opacity:1" fill="#c0cb5e" d="M 104.5,64.5 C 105.833,66.8242 105.166,68.4908 102.5,69.5C 99.3181,69.0517 96.6514,67.7184 94.5,65.5C 94.5,64.8333 94.5,64.1667 94.5,63.5C 96.3046,64.2371 97.9713,65.2371 99.5,66.5C 100.562,65.5754 100.562,64.5754 99.5,63.5C 99.4346,63.0618 99.6012,62.7284 100,62.5C 101.353,63.6853 102.52,65.0186 103.5,66.5C 104.298,66.0431 104.631,65.3764 104.5,64.5 Z"/></g>
<g><path style="opacity:1" fill="#adbc66" d="M 69.5,61.5 C 72.8078,60.9738 74.9745,62.3072 76,65.5C 76.8902,68.7055 76.5569,71.7055 75,74.5C 74.6667,72.1667 74.3333,69.8333 74,67.5C 71.8733,65.8863 70.3733,63.8863 69.5,61.5 Z"/></g>
<g><path style="opacity:1" fill="#adc938" d="M 61.5,67.5 C 60.3678,69.799 58.5345,71.1323 56,71.5C 52.791,70.4802 49.6243,69.3135 46.5,68C 45.7476,67.3292 45.4142,66.4959 45.5,65.5C 45.5569,64.391 45.8902,63.391 46.5,62.5C 50.611,62.2484 54.611,61.7484 58.5,61C 60.9193,62.5088 61.9193,64.6755 61.5,67.5 Z"/></g>
<g><path style="opacity:1" fill="#73953b" d="M 141.5,60.5 C 143.527,60.3379 145.527,60.5045 147.5,61C 149.527,62.3957 149.86,64.0624 148.5,66C 143.072,68.0168 137.572,68.5168 132,67.5C 131.837,65.6133 132.671,64.1133 134.5,63C 137.004,62.3024 139.337,61.4691 141.5,60.5 Z"/></g>
<g><path style="opacity:1" fill="#9eb46c" d="M 105.5,59.5 C 105.953,60.4584 106.619,61.2917 107.5,62C 107.167,62.3333 106.833,62.6667 106.5,63C 108.229,64.7889 108.896,66.9556 108.5,69.5C 106.309,70.2907 104.309,70.2907 102.5,69.5C 105.166,68.4908 105.833,66.8242 104.5,64.5C 103.128,62.5227 103.462,60.8561 105.5,59.5 Z"/></g>
<g><path style="opacity:1" fill="#becb77" d="M 88.5,60.5 C 88.8333,61.5 89.5,62.1667 90.5,62.5C 90.5,63.5 90.5,64.5 90.5,65.5C 86.6509,65.9807 84.6509,64.314 84.5,60.5C 85.8333,60.5 87.1667,60.5 88.5,60.5 Z"/></g>
<g><path style="opacity:1" fill="#b7d27a" d="M 161.5,62.5 C 163.337,62.6395 163.67,63.3061 162.5,64.5C 161.702,64.0431 161.369,63.3764 161.5,62.5 Z"/></g>
<g><path style="opacity:1" fill="#eef0c3" d="M 124.5,63.5 C 125.497,62.2875 126.497,62.4542 127.5,64C 126.423,64.4696 125.423,64.3029 124.5,63.5 Z"/></g>
<g><path style="opacity:1" fill="#e6ecad" d="M 53.5,62.5 C 54.9778,62.238 56.3112,62.5713 57.5,63.5C 55.9255,64.6309 54.2588,64.7975 52.5,64C 53.056,63.6174 53.3893,63.1174 53.5,62.5 Z"/></g>
<g><path style="opacity:1" fill="#579b32" d="M 46.5,62.5 C 45.8902,63.391 45.5569,64.391 45.5,65.5C 44.8333,65.5 44.1667,65.5 43.5,65.5C 43.2606,63.5328 43.5939,61.6995 44.5,60C 47.2189,59.4062 47.8856,60.2395 46.5,62.5 Z"/></g>
<g><path style="opacity:1" fill="#6f9256" d="M 157.5,64.5 C 157.167,64.5 156.833,64.5 156.5,64.5C 157.812,62.5212 159.479,60.8545 161.5,59.5C 161.236,61.4981 159.903,63.1648 157.5,64.5 Z"/></g>
<g><path style="opacity:1" fill="#8eb47b" d="M 17.5,58.5 C 17.9731,59.9063 18.9731,60.573 20.5,60.5C 15.8125,63.6757 14.8125,63.009 17.5,58.5 Z"/></g>
<g><path style="opacity:1" fill="#ccd6b4" d="M 105.5,59.5 C 103.462,60.8561 103.128,62.5227 104.5,64.5C 104.631,65.3764 104.298,66.0431 103.5,66.5C 102.52,65.0186 101.353,63.6853 100,62.5C 99.6012,62.7284 99.4346,63.0618 99.5,63.5C 98.36,62.1986 97.0267,61.0319 95.5,60C 97.9986,60.1174 100.665,59.784 103.5,59C 102.304,58.3457 102.304,57.8457 103.5,57.5C 104.522,57.8555 105.189,58.5222 105.5,59.5 Z"/></g>
<g><path style="opacity:1" fill="#66a540" d="M 113.5,57.5 C 114.675,57.281 115.675,57.6143 116.5,58.5C 115.215,60.6589 113.548,61.3255 111.5,60.5C 112.193,59.4822 112.859,58.4822 113.5,57.5 Z"/></g>
<g><path style="opacity:1" fill="#558355" d="M 35.5,57.5 C 36.5,57.5 37.5,57.5 38.5,57.5C 38.5,58.5 38.5,59.5 38.5,60.5C 37.5,60.5 36.5,60.5 35.5,60.5C 35.5,59.5 35.5,58.5 35.5,57.5 Z"/></g>
<g><path style="opacity:1" fill="#4d7f31" d="M 130.5,55.5 C 131.609,55.5569 132.609,55.8902 133.5,56.5C 133.557,57.609 133.89,58.609 134.5,59.5C 131.821,59.4754 130.488,58.142 130.5,55.5 Z"/></g>
<g><path style="opacity:1" fill="#719832" d="M 66.5,58.5 C 64.5648,59.1495 62.5648,59.4828 60.5,59.5C 57.7471,58.9778 55.0804,58.1445 52.5,57C 51.5939,55.3005 51.2606,53.4672 51.5,51.5C 55.9512,52.1491 60.2845,53.3158 64.5,55C 65.8228,55.8159 66.4894,56.9826 66.5,58.5 Z"/></g>
<g><path style="opacity:1" fill="#c2d173" d="M 122.5,55.5 C 124.346,55.2222 125.68,55.8888 126.5,57.5C 125.311,58.4287 123.978,58.762 122.5,58.5C 122.5,57.5 122.5,56.5 122.5,55.5 Z"/></g>
<g><path style="opacity:1" fill="#d6db8a" d="M 30.5,55.5 C 31.2891,55.7828 31.9558,56.2828 32.5,57C 28.6098,57.1057 24.9431,57.939 21.5,59.5C 20.3079,58.4341 20.6412,57.6008 22.5,57C 25.3647,56.8171 28.0314,56.3171 30.5,55.5 Z"/></g>
<g><path style="opacity:1" fill="#a9b14a" d="M 151.5,44.5 C 152.224,47.0826 153.057,49.7493 154,52.5C 160.373,58.893 159.706,59.893 152,55.5C 150.178,51.91 150.011,48.2433 151.5,44.5 Z"/></g>
<g><path style="opacity:1" fill="#b5be32" d="M 30.5,55.5 C 28.0314,56.3171 25.3647,56.8171 22.5,57C 20.6412,57.6008 20.3079,58.4341 21.5,59.5C 21.5,60.1667 21.1667,60.5 20.5,60.5C 18.9731,60.573 17.9731,59.9063 17.5,58.5C 21.0886,54.62 25.422,53.62 30.5,55.5 Z"/></g>
<g><path style="opacity:1" fill="#dfe5a2" d="M 147.5,58.5 C 143.4,58.2367 139.4,58.5701 135.5,59.5C 133.205,54.6638 134.705,51.9971 140,51.5C 145.114,51.2732 147.614,53.6065 147.5,58.5 Z"/></g>
<g><path style="opacity:1" fill="#becdaf" d="M 94.5,63.5 C 94.5,64.1667 94.5,64.8333 94.5,65.5C 93.1667,64.5 91.8333,63.5 90.5,62.5C 89.5,62.1667 88.8333,61.5 88.5,60.5C 89.2829,58.6568 89.9495,56.6568 90.5,54.5C 91.3333,54.1667 92.1667,53.8333 93,53.5C 100.167,55.2419 99.9999,55.5753 92.5,54.5C 90.876,55.8689 90.376,57.5355 91,59.5C 92.7198,60.3841 93.8865,61.7175 94.5,63.5 Z"/></g>
<g><path style="opacity:1" fill="#c7db9e" d="M 48.5,53.5 C 48.5,54.5 48.5,55.5 48.5,56.5C 45.4121,56.6386 42.7454,57.6386 40.5,59.5C 39.3524,57.245 37.6857,55.4117 35.5,54C 37.6522,51.88 39.1522,49.38 40,46.5C 42.2276,48.1134 44.7276,48.78 47.5,48.5C 47.2155,50.4147 47.5489,52.0813 48.5,53.5 Z"/></g>
<g><path style="opacity:1" fill="#adc948" d="M 136.5,50.5 C 140.273,50.2633 143.94,50.7633 147.5,52C 150.041,54.3932 150.041,56.5599 147.5,58.5C 147.614,53.6065 145.114,51.2732 140,51.5C 134.705,51.9971 133.205,54.6638 135.5,59.5C 135.167,59.5 134.833,59.5 134.5,59.5C 133.89,58.609 133.557,57.609 133.5,56.5C 133.028,53.6421 134.028,51.6421 136.5,50.5 Z"/></g>
<g><path style="opacity:1" fill="#4f7f4f" d="M 85.5,52.5 C 86.5,52.5 87.5,52.5 88.5,52.5C 88.5,53.5 88.5,54.5 88.5,55.5C 87.5,55.5 86.5,55.5 85.5,55.5C 85.5,54.5 85.5,53.5 85.5,52.5 Z"/></g>
<g><path style="opacity:1" fill="#9ec562" d="M 72.5,59.5 C 72.2322,57.901 72.5655,56.5676 73.5,55.5C 74.7603,55.7986 75.927,55.7986 77,55.5C 78.9148,52.233 77.7481,50.8996 73.5,51.5C 75.8512,49.7971 78.5178,49.2971 81.5,50C 85.2956,59.1441 82.2956,62.3108 72.5,59.5 Z"/></g>
<g><path style="opacity:1" fill="#528831" d="M 73.5,51.5 C 77.7481,50.8996 78.9148,52.233 77,55.5C 75.927,55.7986 74.7603,55.7986 73.5,55.5C 73.6716,54.5084 73.3382,53.8417 72.5,53.5C 72.3284,52.5084 72.6618,51.8417 73.5,51.5 Z"/></g>
<g><path style="opacity:1" fill="#b1c3a2" d="M 19.5,38.5 C 16.5405,44.7766 18.3739,49.11 25,51.5C 27.0093,51.2421 28.8427,50.5755 30.5,49.5C 31.6921,50.5659 31.3588,51.3992 29.5,52C 19.864,53.1979 15.864,49.0312 17.5,39.5C 17.9569,38.7025 18.6236,38.3691 19.5,38.5 Z"/></g>
<g><path style="opacity:1" fill="#489132" d="M 113.5,41.5 C 114.995,41.4148 115.995,42.0815 116.5,43.5C 115.068,48.2007 112.734,52.3673 109.5,56C 107.833,56.6667 106.167,56.6667 104.5,56C 103.483,54.9505 103.316,53.7839 104,52.5C 107.174,48.802 110.341,45.1353 113.5,41.5 Z"/></g>
<g><path style="opacity:1" fill="#c7d457" d="M 128.5,55.5 C 126.858,53.9192 124.858,53.2525 122.5,53.5C 122.792,51.6887 122.792,49.6887 122.5,47.5C 124.672,46.7952 126.672,45.7952 128.5,44.5C 129.245,46.7471 130.578,48.5804 132.5,50C 130.412,51.2995 129.079,53.1329 128.5,55.5 Z"/></g>
<g><path style="opacity:1" fill="#c8d386" d="M 19.5,38.5 C 21.2225,40.2528 22.7225,42.2528 24,44.5C 26.3256,46.0657 28.4922,47.7324 30.5,49.5C 28.8427,50.5755 27.0093,51.2421 25,51.5C 18.3739,49.11 16.5405,44.7766 19.5,38.5 Z"/></g>
<g><path style="opacity:1" fill="#d9e0ce" d="M 161.5,42.5 C 161.435,42.0618 161.601,41.7284 162,41.5C 163.092,44.0444 163.759,46.7111 164,49.5C 164.497,47.1902 164.663,44.8568 164.5,42.5C 166.685,48.3079 165.185,52.9746 160,56.5C 155.404,51.8768 153.571,46.5435 154.5,40.5C 154.415,41.9953 155.081,42.9953 156.5,43.5C 157.243,42.0921 158.077,40.7588 159,39.5C 159.333,41.5 159.667,43.5 160,45.5C 160.513,44.4734 161.013,43.4734 161.5,42.5 Z"/></g>
<g><path style="opacity:1" fill="#8fa962" d="M 119.5,54.5 C 119.5,55.1667 119.5,55.8333 119.5,56.5C 115.822,53.3411 115.489,49.6744 118.5,45.5C 119.002,44.479 119.668,44.3123 120.5,45C 119.549,48.0567 119.216,51.2234 119.5,54.5 Z"/></g>
<g><path style="opacity:1" fill="#b1b981" d="M 85.5,36.5 C 88.1303,38.6281 90.6303,40.9614 93,43.5C 93.6667,44.8333 93.6667,46.1667 93,47.5C 87.1855,52.3364 83.6855,51.0031 82.5,43.5C 81.6765,41.5454 81.5099,39.5454 82,37.5C 83.0113,36.6634 84.1779,36.33 85.5,36.5 Z"/></g>
<g><path style="opacity:1" fill="#d8e094" d="M 66.5,45.5 C 70.3924,46.7423 71.3924,49.2423 69.5,53C 66.0009,52.0449 62.3342,51.2115 58.5,50.5C 58.33,49.1779 58.6634,48.0113 59.5,47C 62.0356,46.8138 64.369,46.3138 66.5,45.5 Z"/></g>
<g><path style="opacity:1" fill="#89bb4b" d="M 104.5,45.5 C 107.137,47.1538 106.803,47.6538 103.5,47C 104.056,46.6174 104.389,46.1174 104.5,45.5 Z"/></g>
<g><path style="opacity:1" fill="#6da536" d="M 96.5,39.5 C 100.991,41.8152 102.824,45.4818 102,50.5C 100.232,54.325 98.2317,54.325 96,50.5C 95.5499,46.8125 95.7166,43.1458 96.5,39.5 Z"/></g>
<g><path style="opacity:1" fill="#64441e" d="M 85.5,43.5 C 86.8333,43.5 88.1667,43.5 89.5,43.5C 89.5,44.8333 89.5,46.1667 89.5,47.5C 86.5,47.8333 85.1667,46.5 85.5,43.5 Z"/></g>
<g><path style="opacity:1" fill="#b6cf54" d="M 66.5,45.5 C 64.369,46.3138 62.0356,46.8138 59.5,47C 58.6634,48.0113 58.33,49.1779 58.5,50.5C 56.7658,46.8508 58.0992,44.8508 62.5,44.5C 63.8492,44.8457 65.1825,45.179 66.5,45.5 Z"/></g>
<g><path style="opacity:1" fill="#648c3b" d="M 76.5,37.5 C 77.7498,37.5774 78.5831,38.244 79,39.5C 79.4966,41.8098 79.6633,44.1432 79.5,46.5C 77.6767,43.984 76.6767,40.984 76.5,37.5 Z"/></g>
<g><path style="opacity:1" fill="#b9ca61" d="M 73.5,39.5 C 75.9689,40.6067 76.9689,42.6067 76.5,45.5C 73.8333,45.1667 71.1667,44.8333 68.5,44.5C 68.5271,42.8007 69.1938,41.4674 70.5,40.5C 71.609,40.4431 72.609,40.1098 73.5,39.5 Z"/></g>
<g><path style="opacity:1" fill="#71a75b" d="M 64.5,42.5 C 58.9226,41.6164 55.2559,43.7831 53.5,49C 52.255,49.7914 50.9217,50.2914 49.5,50.5C 50.9547,46.4267 53.2881,42.9267 56.5,40C 58.5,39.3333 60.5,39.3333 62.5,40C 63.756,40.4169 64.4226,41.2502 64.5,42.5 Z"/></g>
<g><path style="opacity:1" fill="#a5be5a" d="M 33.5,37.5 C 36.5904,36.83 38.257,37.9967 38.5,41C 38.099,44.5624 36.099,46.0624 32.5,45.5C 32.2786,42.7212 32.612,40.0545 33.5,37.5 Z"/></g>
<g><path style="opacity:1" fill="#b3ce57" d="M 143.5,37.5 C 143.383,39.4835 144.05,41.1502 145.5,42.5C 145.137,43.1835 144.804,43.8501 144.5,44.5C 143.859,46.0423 142.859,47.3757 141.5,48.5C 140.378,47.3698 139.044,46.7031 137.5,46.5C 136.065,45.9035 134.398,45.9035 132.5,46.5C 132.374,44.8002 131.707,43.3002 130.5,42C 133.952,38.2372 138.285,36.7372 143.5,37.5 Z"/></g>
<g><path style="opacity:1" fill="#cbd264" d="M 162.5,37.5 C 163.537,38.9303 164.204,40.597 164.5,42.5C 164.663,44.8568 164.497,47.1902 164,49.5C 163.759,46.7111 163.092,44.0444 162,41.5C 161.601,41.7284 161.435,42.0618 161.5,42.5C 160.322,40.6621 160.655,38.9955 162.5,37.5 Z"/></g>
<g><path style="opacity:1" fill="#bfcba7" d="M 147.5,34.5 C 143.904,36.2499 143.737,38.2499 147,40.5C 149.324,39.2247 149.824,37.558 148.5,35.5C 149.693,35.9704 150.36,36.9704 150.5,38.5C 150.078,42.2134 149.411,45.88 148.5,49.5C 148.891,48.2815 148.224,47.4482 146.5,47C 147.167,46.6667 147.833,46.3333 148.5,46C 147.099,45.5899 145.766,45.0899 144.5,44.5C 144.804,43.8501 145.137,43.1835 145.5,42.5C 144.05,41.1502 143.383,39.4835 143.5,37.5C 144.066,35.9217 145.066,34.5884 146.5,33.5C 147.107,33.6236 147.44,33.9569 147.5,34.5 Z"/></g>
<g><path style="opacity:1" fill="#53762d" d="M 98.5,32.5 C 103.529,32.3854 107.363,34.3854 110,38.5C 110.25,44.58 107.75,45.9133 102.5,42.5C 100.259,39.5395 98.9253,36.2061 98.5,32.5 Z"/></g>
<g><path style="opacity:1" fill="#97b174" d="M 41.5,37.5 C 41.4142,36.5041 41.7476,35.6708 42.5,35C 50.1874,33.3523 53.0207,36.1856 51,43.5C 47.6667,47.5 44.3333,47.5 41,43.5C 40.2109,41.2884 40.3775,39.2884 41.5,37.5 Z"/></g>
<g><path style="opacity:1" fill="#c5d47e" d="M 41.5,37.5 C 45.2533,34.5207 48.2533,35.1873 50.5,39.5C 49.626,43.2492 47.2927,44.7492 43.5,44C 41.771,42.2111 41.1043,40.0444 41.5,37.5 Z"/></g>
<g><path style="opacity:1" fill="#6cb575" d="M 68.5,37.5 C 68.7148,39.1788 68.0481,40.1788 66.5,40.5C 66.2852,38.8212 66.9519,37.8212 68.5,37.5 Z"/></g>
<g><path style="opacity:1" fill="#94c698" d="M 151.5,34.5 C 152.5,34.5 153.5,34.5 154.5,34.5C 154.5,35.5 154.5,36.5 154.5,37.5C 153.5,37.5 152.5,37.5 151.5,37.5C 151.5,36.5 151.5,35.5 151.5,34.5 Z"/></g>
<g><path style="opacity:1" fill="#9eb450" d="M 147.5,34.5 C 147.5,35.1667 147.833,35.5 148.5,35.5C 149.824,37.558 149.324,39.2247 147,40.5C 143.737,38.2499 143.904,36.2499 147.5,34.5 Z"/></g>
<g><path style="opacity:1" fill="#a7bb71" d="M 162.5,37.5 C 160.655,38.9955 160.322,40.6621 161.5,42.5C 161.013,43.4734 160.513,44.4734 160,45.5C 159.667,43.5 159.333,41.5 159,39.5C 158.077,40.7588 157.243,42.0921 156.5,43.5C 155.081,42.9953 154.415,41.9953 154.5,40.5C 154.991,37.5177 156.491,35.1844 159,33.5C 160.032,35.0267 161.199,36.36 162.5,37.5 Z"/></g>
<g><path style="opacity:1" fill="#afc467" d="M 120.5,28.5 C 128.491,26.66 131.658,29.66 130,37.5C 125.942,43.0667 121.276,43.7334 116,39.5C 115.333,37.5 115.333,35.5 116,33.5C 117.366,31.6383 118.866,29.9717 120.5,28.5 Z"/></g>
<g><path style="opacity:1" fill="#798444" d="M 122.5,30.5 C 130.351,33.2009 130.351,36.2009 122.5,39.5C 120.893,39.363 119.559,38.6964 118.5,37.5C 119.534,34.954 120.867,32.6206 122.5,30.5 Z"/></g>
<g><path style="opacity:1" fill="#579c44" d="M 55.5,28.5 C 61.2925,29.4215 62.6258,32.2548 59.5,37C 54.4125,37.6713 52.2458,35.5047 53,30.5C 53.9947,29.9341 54.828,29.2674 55.5,28.5 Z"/></g>
<g><path style="opacity:1" fill="#b5d05c" d="M 29.5,30.5 C 30.9953,30.4148 31.9953,31.0815 32.5,32.5C 31.1319,34.637 30.1319,36.9703 29.5,39.5C 28.7836,40.311 27.9503,40.9777 27,41.5C 23.8057,38.3611 22.9724,34.6945 24.5,30.5C 26.2341,29.438 27.9008,29.438 29.5,30.5 Z"/></g>
<g><path style="opacity:1" fill="#7ebd86" d="M 17.5,29.5 C 20.2231,32.9704 19.5564,35.9704 15.5,38.5C 12.5747,34.7976 13.2414,31.7976 17.5,29.5 Z"/></g>
<g><path style="opacity:1" fill="#e2ebc2" d="M 122.5,33.5 C 123.5,33.5 124.5,33.5 125.5,33.5C 125.616,36.9103 123.95,38.2436 120.5,37.5C 120.527,35.8007 121.194,34.4674 122.5,33.5 Z"/></g>
<g><path style="opacity:1" fill="#80ae50" d="M 93.5,25.5 C 94.2674,26.172 94.9341,27.0053 95.5,28C 91.9629,31.5294 91.6295,35.3628 94.5,39.5C 94.1667,39.8333 93.8333,40.1667 93.5,40.5C 89.5391,38.082 88.5391,34.7486 90.5,30.5C 91.7368,29.0351 92.7368,27.3684 93.5,25.5 Z"/></g>
<g><path style="opacity:1" fill="#5f9d34" d="M 72.5,27.5 C 75.8167,28.3054 78.4834,30.1388 80.5,33C 79.2625,33.2321 78.2625,33.7321 77.5,34.5C 74.7719,36.2881 71.7719,36.7881 68.5,36C 65.4659,34.8088 63.7993,32.6421 63.5,29.5C 66.1625,27.7319 69.1625,27.0653 72.5,27.5 Z"/></g>
<g><path style="opacity:1" fill="#a1c442" d="M 39.5,29.5 C 40.4911,33.1864 38.8244,34.8531 34.5,34.5C 34.5,33.1667 34.5,31.8333 34.5,30.5C 36.4147,30.7845 38.0813,30.4511 39.5,29.5 Z"/></g>
<g><path style="opacity:1" fill="#a8ae3c" d="M 148.5,32.5 C 146.246,31.8763 144.579,30.543 143.5,28.5C 146.096,29.2653 148.763,29.5987 151.5,29.5C 154.373,30.8904 156.039,29.8904 156.5,26.5C 158.226,26.1854 159.893,26.0187 161.5,26C 158.805,31.3477 154.471,33.5143 148.5,32.5 Z"/></g>
<g><path style="opacity:1" fill="#5da037" d="M 137.5,31.5 C 139.288,31.2148 140.955,31.5481 142.5,32.5C 140.737,34.9361 138.737,35.1027 136.5,33C 137.056,32.6174 137.389,32.1174 137.5,31.5 Z"/></g>
<g><path style="opacity:1" fill="#87a465" d="M 115.5,25.5 C 110.712,26.123 108.879,28.7897 110,33.5C 110.816,34.8228 111.983,35.4894 113.5,35.5C 113.631,36.3764 113.298,37.0431 112.5,37.5C 107.604,33.7227 107.271,29.5561 111.5,25C 113.743,24.2034 115.077,24.3701 115.5,25.5 Z"/></g>
<g><path style="opacity:1" fill="#cad88b" d="M 115.5,25.5 C 115.69,29.0318 115.023,32.3652 113.5,35.5C 111.983,35.4894 110.816,34.8228 110,33.5C 108.879,28.7897 110.712,26.123 115.5,25.5 Z"/></g>
<g><path style="opacity:1" fill="#d4d699" d="M 156.5,26.5 C 156.039,29.8904 154.373,30.8904 151.5,29.5C 153.22,28.6923 154.887,27.6923 156.5,26.5 Z"/></g>
<g><path style="opacity:1" fill="#d4e298" d="M 39.5,29.5 C 38.0813,30.4511 36.4147,30.7845 34.5,30.5C 35.9955,28.655 37.6621,28.3217 39.5,29.5 Z"/></g>
<g><path style="opacity:1" fill="#aac362" d="M 83.5,23.5 C 84.925,24.922 85.925,26.5887 86.5,28.5C 84.2466,31.124 81.9133,31.124 79.5,28.5C 77.7576,24.5657 79.091,22.899 83.5,23.5 Z"/></g>
<g><path style="opacity:1" fill="#a0b456" d="M 24.5,30.5 C 23.4168,30.4606 22.4168,30.1272 21.5,29.5C 20.2267,28.7435 20.2267,28.0768 21.5,27.5C 24.8333,26.1667 25.8333,27.1667 24.5,30.5 Z"/></g>
<g><path style="opacity:1" fill="#cedcbd" d="M 73.5,24.5 C 71.6219,25.3804 68.9552,25.8804 65.5,26C 68.0356,26.1862 70.369,26.6862 72.5,27.5C 69.1625,27.0653 66.1625,27.7319 63.5,29.5C 63.5,28.5 63.5,27.5 63.5,26.5C 64.5981,25.603 64.5981,24.7697 63.5,24C 64,23.8333 64.5,23.6667 65,23.5C 67.7695,24.3479 70.6029,24.6813 73.5,24.5 Z"/></g>
<g><path style="opacity:1" fill="#739957" d="M 48.5,25.5 C 48.5569,26.609 48.8902,27.609 49.5,28.5C 48.8624,33.45 48.0291,33.1167 47,27.5C 46.3333,28.8333 45.6667,30.1667 45,31.5C 44.3224,29.4024 44.4891,27.4024 45.5,25.5C 46.5,24.1667 47.5,24.1667 48.5,25.5 Z"/></g>
<g><path style="opacity:1" fill="#becbab" d="M 29.5,30.5 C 27.9008,29.438 26.2341,29.438 24.5,30.5C 25.8333,27.1667 24.8333,26.1667 21.5,27.5C 21.67,26.1779 21.3366,25.0113 20.5,24C 22.1311,22.1644 22.7978,22.6644 22.5,25.5C 26.2279,25.7947 29.8946,26.4614 33.5,27.5C 31.8164,28.1497 30.4831,29.1497 29.5,30.5 Z"/></g>
<g><path style="opacity:1" fill="#5a9b44" d="M 142.5,26.5 C 142.5,26.8333 142.5,27.1667 142.5,27.5C 141.167,27.5 139.833,27.5 138.5,27.5C 138.5,26.1667 138.5,24.8333 138.5,23.5C 140.973,23.0882 142.306,24.0882 142.5,26.5 Z"/></g>
<g><path style="opacity:1" fill="#7e9d4d" d="M 73.5,24.5 C 70.6029,24.6813 67.7695,24.3479 65,23.5C 64.5,23.6667 64,23.8333 63.5,24C 64.5981,24.7697 64.5981,25.603 63.5,26.5C 62.5,26.5 61.5,26.5 60.5,26.5C 59.7375,25.7321 58.7375,25.2321 57.5,25C 61.1349,21.5875 65.4682,20.5875 70.5,22C 71.9423,22.3768 72.9423,23.2101 73.5,24.5 Z"/></g>
<g><path style="opacity:1" fill="#a6ba72" d="M 40.5,20.5 C 39.2153,22.4516 37.5486,24.1182 35.5,25.5C 34.452,24.452 33.452,23.452 32.5,22.5C 33.8471,21.8288 35.0138,21.8288 36,22.5C 36.4643,21.9056 36.631,21.2389 36.5,20.5C 38.3331,15.38 39.6664,15.38 40.5,20.5 Z"/></g>
<g><path style="opacity:1" fill="#4e933e" d="M 112.5,64.5 C 117.486,64.3049 119.152,66.4716 117.5,71C 111.741,72.1387 110.074,69.972 112.5,64.5 Z"/></g>
<g><path style="opacity:1" fill="#7f932d" d="M 79.5,62.5 C 80.8221,62.33 81.9887,62.6634 83,63.5C 83.4069,66.682 83.9069,69.8486 84.5,73C 84.3346,77.2322 82.8346,78.0656 80,75.5C 78.5363,71.1409 78.3696,66.8075 79.5,62.5 Z"/></g>
<g><path style="opacity:1" fill="#d1dcaa" d="M 92.5,69.5 C 94.6264,70.0482 96.6264,70.7148 98.5,71.5C 97.2502,71.5774 96.4169,72.244 96,73.5C 95.6667,73.1667 95.3333,72.8333 95,72.5C 94.6905,73.7659 94.1905,74.9326 93.5,76C 95.8473,76.3336 98.1806,76.167 100.5,75.5C 96.8745,79.3503 93.2078,79.3503 89.5,75.5C 90.4959,75.4142 91.3292,75.7476 92,76.5C 93.8071,74.2602 93.9738,71.9269 92.5,69.5 Z"/></g>
<g><path style="opacity:1" fill="#bfcf70" d="M 156.5,68.5 C 157.833,69.1667 158.833,70.1667 159.5,71.5C 159.768,73.099 159.434,74.4324 158.5,75.5C 156.833,75.5 155.167,75.5 153.5,75.5C 152.833,73.8333 152.167,72.1667 151.5,70.5C 153.403,70.2041 155.07,69.5375 156.5,68.5 Z"/></g>
<g><path style="opacity:1" fill="#71862c" d="M 13.5,66.5 C 14.7079,67.2341 16.0413,67.5674 17.5,67.5C 18.0555,71.6845 16.2222,74.0179 12,74.5C 10.5659,74.0696 9.39925,73.2362 8.5,72C 9.36903,69.3455 11.0357,67.5122 13.5,66.5 Z"/></g>
<g><path style="opacity:1" fill="#e8f1cf" d="M 12.5,69.5 C 14.3547,69.272 15.1881,69.9387 15,71.5C 12.1924,72.8596 11.3591,72.1929 12.5,69.5 Z"/></g>
<g><path style="opacity:1" fill="#50804f" d="M 130.5,70.5 C 132.048,70.8212 132.715,71.8212 132.5,73.5C 131.5,73.5 130.5,73.5 129.5,73.5C 129.263,72.209 129.596,71.209 130.5,70.5 Z"/></g>
<g><path style="opacity:1" fill="#93ba42" d="M 151.5,70.5 C 152.167,72.1667 152.833,73.8333 153.5,75.5C 152.686,77.2726 151.352,77.7726 149.5,77C 148.594,75.3005 148.261,73.4672 148.5,71.5C 149.391,70.8902 150.391,70.5569 151.5,70.5 Z"/></g>
<g><path style="opacity:1" fill="#74974f" d="M 89.5,75.5 C 93.2078,79.3503 96.8745,79.3503 100.5,75.5C 101.5,74.8333 102.5,74.1667 103.5,73.5C 102.422,76.9078 100.089,78.9078 96.5,79.5C 88.3502,79.3595 85.0169,75.3595 86.5,67.5C 87.08,70.447 88.08,73.1137 89.5,75.5 Z"/></g>
<g><path style="opacity:1" fill="#bbcc70" d="M 98.5,71.5 C 100.306,72.0241 101.972,72.6908 103.5,73.5C 102.5,74.1667 101.5,74.8333 100.5,75.5C 98.1806,76.167 95.8473,76.3336 93.5,76C 94.1905,74.9326 94.6905,73.7659 95,72.5C 95.3333,72.8333 95.6667,73.1667 96,73.5C 96.4169,72.244 97.2502,71.5774 98.5,71.5 Z"/></g>
<g><path style="opacity:1" fill="#8fb84e" d="M 22.5,70.5 C 25.2257,70.2639 27.559,71.0972 29.5,73C 32.6669,73.2518 35.6669,73.4185 38.5,73.5C 36.0519,77.6911 32.7185,78.5244 28.5,76C 26.1631,74.3662 24.1631,72.5329 22.5,70.5 Z"/></g>
<g><path style="opacity:1" fill="#b8ca63" d="M 91.5,69.5 C 91.8333,69.5 92.1667,69.5 92.5,69.5C 93.9738,71.9269 93.8071,74.2602 92,76.5C 91.3292,75.7476 90.4959,75.4142 89.5,75.5C 89.4142,74.5041 89.7476,73.6708 90.5,73C 88.7174,71.9335 88.2174,70.4335 89,68.5C 89.6708,69.2524 90.5041,69.5858 91.5,69.5 Z"/></g>
<g><path style="opacity:1" fill="#aac262" d="M 172.5,68.5 C 174.812,74.1579 173.146,76.4913 167.5,75.5C 167.338,73.4727 167.505,71.4727 168,69.5C 169.356,68.6198 170.856,68.2865 172.5,68.5 Z"/></g>
<g><path style="opacity:1" fill="#76b67a" d="M 21.5,74.5 C 23.337,74.6395 23.6704,75.3061 22.5,76.5C 21.7025,76.0431 21.3691,75.3764 21.5,74.5 Z"/></g>
<g><path style="opacity:1" fill="#a4c633" d="M 110.5,73.5 C 112.199,73.3398 113.866,73.5065 115.5,74C 117.311,75.0407 117.645,76.2073 116.5,77.5C 115.081,76.5489 113.415,76.2155 111.5,76.5C 111.44,75.9569 111.107,75.6236 110.5,75.5C 108.308,76.8587 106.641,78.6921 105.5,81C 106.094,81.4643 106.761,81.631 107.5,81.5C 107.5,82.1667 107.5,82.8333 107.5,83.5C 105.368,83.4456 104.035,82.4456 103.5,80.5C 104.207,76.6285 106.54,74.2952 110.5,73.5 Z"/></g>
<g><path style="opacity:1" fill="#89be60" d="M 55.5,73.5 C 62.1816,72.8251 64.6816,75.8251 63,82.5C 60.9658,85.859 58.6324,86.1924 56,83.5C 55.3054,81.2779 54.4721,79.1113 53.5,77C 53.9783,75.6974 54.645,74.5307 55.5,73.5 Z"/></g>
<g><path style="opacity:1" fill="#77af3a" d="M 69.5,78.5 C 63.8352,76.8302 62.1685,73.1635 64.5,67.5C 65.29,66.3915 65.79,65.0581 66,63.5C 71.6442,67.5485 72.8109,72.5485 69.5,78.5 Z"/></g>
<g><path style="opacity:1" fill="#268537" d="M 50.5,79.5 C 48.183,77.1032 46.183,77.6032 44.5,81C 45.056,81.3826 45.3893,81.8826 45.5,82.5C 43.623,83.6246 41.7897,83.2912 40,81.5C 38.9355,72.5627 42.4355,69.8961 50.5,73.5C 51.7928,75.6365 51.7928,77.6365 50.5,79.5 Z"/></g>
<g><path style="opacity:1" fill="#c9dc83" d="M 111.5,76.5 C 110.136,78.1911 108.803,79.8577 107.5,81.5C 106.761,81.631 106.094,81.4643 105.5,81C 106.641,78.6921 108.308,76.8587 110.5,75.5C 111.107,75.6236 111.44,75.9569 111.5,76.5 Z"/></g>
<g><path style="opacity:1" fill="#8eac35" d="M 126.5,80.5 C 121.051,82.2209 118.885,80.2209 120,74.5C 121.786,71.6384 124.119,70.9717 127,72.5C 127.602,75.2205 127.435,77.8872 126.5,80.5 Z"/></g>
<g><path style="opacity:1" fill="#d5e1ad" d="M 122.5,75.5 C 124.465,75.9483 124.798,76.9483 123.5,78.5C 122.614,77.675 122.281,76.675 122.5,75.5 Z"/></g>
<g><path style="opacity:1" fill="#bacb75" d="M 166.5,84.5 C 163.436,82.657 160.103,82.157 156.5,83C 155.177,83.8159 154.511,84.9826 154.5,86.5C 153.609,87.1098 152.609,87.4431 151.5,87.5C 151.245,83.5075 152.911,80.6742 156.5,79C 161.87,77.5119 165.203,79.3452 166.5,84.5 Z"/></g>
<g><path style="opacity:1" fill="#7fc096" d="M 50.5,79.5 C 50.8665,83.0838 49.1998,84.0838 45.5,82.5C 45.3893,81.8826 45.056,81.3826 44.5,81C 46.183,77.6032 48.183,77.1032 50.5,79.5 Z"/></g>
<g><path style="opacity:1" fill="#cbd89d" d="M 134.5,77.5 C 134.368,80.5701 134.701,83.5701 135.5,86.5C 133.05,86.1257 132.05,84.6257 132.5,82C 132.307,79.9919 132.974,78.4919 134.5,77.5 Z"/></g>
<g><path style="opacity:1" fill="#b4c5a6" d="M 162.5,77.5 C 165.478,78.4777 167.478,80.4777 168.5,83.5C 168.043,84.2975 167.376,84.6309 166.5,84.5C 165.203,79.3452 161.87,77.5119 156.5,79C 152.911,80.6742 151.245,83.5075 151.5,87.5C 150.378,85.7116 150.211,83.7116 151,81.5C 154.04,78.0337 157.874,76.7004 162.5,77.5 Z"/></g>
<g><path style="opacity:1" fill="#99bd38" d="M 14.5,85.5 C 14.1667,85.5 13.8333,85.5 13.5,85.5C 13.6941,83.0882 15.0274,82.0882 17.5,82.5C 20.0961,81.7347 22.7628,81.4013 25.5,81.5C 25.1667,83.5 24.8333,85.5 24.5,87.5C 20.963,87.6893 17.6297,87.0226 14.5,85.5 Z"/></g>
<g><path style="opacity:1" fill="#c0d181" d="M 32.5,80.5 C 36.9575,81.6303 40.6241,83.9637 43.5,87.5C 43.0431,88.2975 42.3764,88.6309 41.5,88.5C 34.6704,90.0001 31.6704,87.3334 32.5,80.5 Z"/></g>
<g><path style="opacity:1" fill="#6fa527" d="M 79.5,89.5 C 79.1667,89.5 78.8333,89.5 78.5,89.5C 79.0545,85.9878 78.3878,82.9878 76.5,80.5C 76.7058,78.4508 77.5391,78.1175 79,79.5C 79.4983,82.8168 79.665,86.1501 79.5,89.5 Z"/></g>
<g><path style="opacity:1" fill="#508d32" d="M 113.5,79.5 C 114.167,80.1667 114.833,80.8333 115.5,81.5C 114.224,82.3864 114.224,83.3864 115.5,84.5C 116.213,86.435 117.213,86.7683 118.5,85.5C 118.5,86.1667 118.5,86.8333 118.5,87.5C 115.783,90.1445 112.95,90.1445 110,87.5C 108.579,83.4942 109.746,80.8276 113.5,79.5 Z"/></g>
<g><path style="opacity:1" fill="#81b427" d="M 118.5,85.5 C 117.213,86.7683 116.213,86.435 115.5,84.5C 114.224,83.3864 114.224,82.3864 115.5,81.5C 118.789,80.6852 119.789,82.0185 118.5,85.5 Z"/></g>
<g><path style="opacity:1" fill="#77af39" d="M 145.5,92.5 C 145.167,92.5 144.833,92.5 144.5,92.5C 142.167,89.9974 140.001,87.3307 138,84.5C 137.333,81.1667 137.333,77.8333 138,74.5C 138.804,73.1955 139.971,72.5288 141.5,72.5C 144.441,73.6058 146.608,75.6058 148,78.5C 147.507,83.1815 146.674,87.8482 145.5,92.5 Z"/></g>
<g><path style="opacity:1" fill="#c4d0af" d="M 83.5,79.5 C 84.9744,80.4363 85.9744,81.7697 86.5,83.5C 87.2068,87.3281 89.5401,88.9948 93.5,88.5C 91.3432,89.4067 89.0098,90.0733 86.5,90.5C 87.8333,87.1667 86.8333,86.1667 83.5,87.5C 83.1949,85.0807 83.1949,82.414 83.5,79.5 Z"/></g>
<g><path style="opacity:1" fill="#4a7d3a" d="M 125.5,85.5 C 125.167,85.5 124.833,85.5 124.5,85.5C 124.281,84.325 124.614,83.325 125.5,82.5C 126.562,83.4246 126.562,84.4246 125.5,85.5 Z"/></g>
<g><path style="opacity:1" fill="#8cad3a" d="M 134.5,77.5 C 132.974,78.4919 132.307,79.9919 132.5,82C 132.05,84.6257 133.05,86.1257 135.5,86.5C 134.807,91.4721 133.307,91.4721 131,86.5C 129.316,80.6222 130.982,75.9555 136,72.5C 135.866,74.1893 135.366,75.856 134.5,77.5 Z"/></g>
<g><path style="opacity:1" fill="#adc968" d="M 74.5,80.5 C 73.791,81.404 72.791,81.7373 71.5,81.5C 71.5065,84.5176 72.5065,87.1843 74.5,89.5C 75.325,90.3857 76.325,90.719 77.5,90.5C 75.9652,91.7879 74.2985,91.7879 72.5,90.5C 71.3333,88.8333 70.1667,87.1667 69,85.5C 68.3603,83.735 68.5269,82.0683 69.5,80.5C 70.5,80.5 71.5,80.5 72.5,80.5C 73.6144,75.3706 74.281,75.3706 74.5,80.5 Z"/></g>
<g><path style="opacity:1" fill="#adcd85" d="M 76.5,80.5 C 78.3878,82.9878 79.0545,85.9878 78.5,89.5C 78.5,90.1667 78.1667,90.5 77.5,90.5C 77.6576,87.0977 77.3242,83.7644 76.5,80.5 Z"/></g>
<g><path style="opacity:1" fill="#8cb479" d="M 103.5,80.5 C 104.035,82.4456 105.368,83.4456 107.5,83.5C 106.167,84.9335 104.667,86.2668 103,87.5C 103.068,85.071 103.235,82.7377 103.5,80.5 Z"/></g>
<g><path style="opacity:1" fill="#cfd1a1" d="M 166.5,84.5 C 166.5,85.1667 166.167,85.5 165.5,85.5C 163.658,85.2767 161.825,84.9434 160,84.5C 158.061,84.9543 156.228,85.621 154.5,86.5C 154.511,84.9826 155.177,83.8159 156.5,83C 160.103,82.157 163.436,82.657 166.5,84.5 Z"/></g>
<g><path style="opacity:1" fill="#8ba769" d="M 32.5,80.5 C 31.6704,87.3334 34.6704,90.0001 41.5,88.5C 35.6742,91.589 32.0075,89.7556 30.5,83C 30.6667,82.1667 30.8333,81.3333 31,80.5C 31.69,79.2617 32.19,79.2617 32.5,80.5 Z"/></g>
<g><path style="opacity:1" fill="#95ba36" d="M 74.5,80.5 C 75.1667,80.5 75.8333,80.5 76.5,80.5C 77.3242,83.7644 77.6576,87.0977 77.5,90.5C 76.325,90.719 75.325,90.3857 74.5,89.5C 72.5065,87.1843 71.5065,84.5176 71.5,81.5C 72.791,81.7373 73.791,81.404 74.5,80.5 Z"/></g>
<g><path style="opacity:1" fill="#b6d05b" d="M 96.5,81.5 C 99.3233,85.1465 98.3233,87.4799 93.5,88.5C 89.5401,88.9948 87.2068,87.3281 86.5,83.5C 88.0481,83.1788 88.7148,82.1788 88.5,80.5C 91.1272,81.0916 93.7938,81.4249 96.5,81.5 Z"/></g>
<g><path style="opacity:1" fill="#9bbf62" d="M 25.5,91.5 C 21.9513,91.5608 18.6179,90.7275 15.5,89C 14.6634,87.9887 14.33,86.8221 14.5,85.5C 17.6297,87.0226 20.963,87.6893 24.5,87.5C 24.8333,85.5 25.1667,83.5 25.5,81.5C 22.7628,81.4013 20.0961,81.7347 17.5,82.5C 16.6016,81.8423 15.6016,81.1757 14.5,80.5C 17.9959,78.7387 21.6626,78.2387 25.5,79C 27.3937,80.0793 27.727,81.4126 26.5,83C 27.6872,84.0195 28.6872,85.1861 29.5,86.5C 29.0623,87.5063 28.3957,87.5063 27.5,86.5C 26.6781,88.1386 26.0114,89.8053 25.5,91.5 Z"/></g>
<g><path style="opacity:1" fill="#a1b55d" d="M 86.5,90.5 C 86.0954,91.5498 85.4288,91.5498 84.5,90.5C 83.6143,89.675 83.281,88.675 83.5,87.5C 86.8333,86.1667 87.8333,87.1667 86.5,90.5 Z"/></g>
<g><path style="opacity:1" fill="#afc929" d="M 124.5,85.5 C 124.833,85.5 125.167,85.5 125.5,85.5C 126.167,85.5 126.833,85.5 127.5,85.5C 128.117,85.6107 128.617,85.944 129,86.5C 130.006,91.991 127.84,93.991 122.5,92.5C 122.935,90.7033 122.935,88.7033 122.5,86.5C 123.167,86.1667 123.833,85.8333 124.5,85.5 Z"/></g>
<g><path style="opacity:1" fill="#7eb83b" d="M 161.5,90.5 C 161.167,90.5 160.833,90.5 160.5,90.5C 160.5,89.5 160.5,88.5 160.5,87.5C 161.5,87.5 162.5,87.5 163.5,87.5C 163.715,89.1788 163.048,90.1788 161.5,90.5 Z"/></g>
<g><path style="opacity:1" fill="#468b36" d="M 63.5,85.5 C 69.2581,87.5458 69.7581,90.2125 65,93.5C 62.2562,93.5879 61.0895,92.2546 61.5,89.5C 61.8029,87.8857 62.4695,86.5523 63.5,85.5 Z"/></g>
<g><path style="opacity:1" fill="#bdcb75" d="M 98.5,88.5 C 101.524,88.3642 103.024,89.6975 103,92.5C 100.507,93.9455 98.6735,93.2789 97.5,90.5C 97.8627,89.8165 98.1961,89.1499 98.5,88.5 Z"/></g>
<g><path style="opacity:1" fill="#86bb47" d="M 105.5,88.5 C 108.957,88.6672 109.29,89.6672 106.5,91.5C 105.614,90.675 105.281,89.675 105.5,88.5 Z"/></g>
<g><path style="opacity:1" fill="#cad878" d="M 48.5,85.5 C 50.7505,85.1814 52.7505,85.6814 54.5,87C 52.324,87.1629 50.4907,87.9963 49,89.5C 48,92.8333 47,96.1667 46,99.5C 42.2033,93.9434 43.0366,89.2767 48.5,85.5 Z"/></g>
<g><path style="opacity:1" fill="#d5df7b" d="M 122.5,86.5 C 122.935,88.7033 122.935,90.7033 122.5,92.5C 121.069,91.2196 120.402,89.5529 120.5,87.5C 121.167,87.1667 121.833,86.8333 122.5,86.5 Z"/></g>
<g><path style="opacity:1" fill="#5b875b" d="M 69.5,92.5 C 71.337,92.6395 71.6704,93.3061 70.5,94.5C 69.7025,94.0431 69.3691,93.3764 69.5,92.5 Z"/></g>
<g><path style="opacity:1" fill="#888e64" d="M 141.5,102.5 C 141.945,99.6354 141.278,97.1354 139.5,95C 135.43,94.7793 131.43,95.2793 127.5,96.5C 129.026,94.87 131.026,94.0367 133.5,94C 141.333,92.3274 144,95.1607 141.5,102.5 Z"/></g>
<g><path style="opacity:1" fill="#508e34" d="M 159.5,90.5 C 159.5,92.5 159.5,94.5 159.5,96.5C 157.365,92.8129 155.365,93.1463 153.5,97.5C 154.243,98.1818 154.909,98.8485 155.5,99.5C 153.712,99.7852 152.045,99.4519 150.5,98.5C 148.535,90.6205 151.535,87.9538 159.5,90.5 Z"/></g>
<g><path style="opacity:1" fill="#c8d65b" d="M 56.5,89.5 C 58.4482,91.0655 59.6149,93.0655 60,95.5C 58.3257,96.6765 56.8257,98.0098 55.5,99.5C 54.1585,97.9951 52.4918,97.3285 50.5,97.5C 50.9926,95.1944 51.3259,92.861 51.5,90.5C 53.4147,90.7845 55.0813,90.4511 56.5,89.5 Z"/></g>
<g><path style="opacity:1" fill="#bbd69c" d="M 144.5,92.5 C 144.833,92.5 145.167,92.5 145.5,92.5C 146.782,93.7082 146.782,95.0416 145.5,96.5C 144.571,95.3112 144.238,93.9778 144.5,92.5 Z"/></g>
<g><path style="opacity:1" fill="#79bb81" d="M 29.5,98.5 C 27.3936,97.2171 25.0602,96.3838 22.5,96C 24.0557,95.2798 25.0557,94.1132 25.5,92.5C 29.0343,91.2833 32.5343,91.2833 36,92.5C 36.0502,96.6012 33.8835,98.6012 29.5,98.5 Z"/></g>
<g><path style="opacity:1" fill="#bcc585" d="M 141.5,102.5 C 140.688,103.993 139.355,104.66 137.5,104.5C 134.51,103.674 131.51,102.841 128.5,102C 126.447,100.322 126.113,98.4888 127.5,96.5C 131.43,95.2793 135.43,94.7793 139.5,95C 141.278,97.1354 141.945,99.6354 141.5,102.5 Z"/></g>
<g><path style="opacity:1" fill="#77ba7e" d="M 89.5,90.5 C 93.0254,90.3459 95.8587,91.6792 98,94.5C 98.0589,97.8224 99.2256,100.656 101.5,103C 93.3342,102.999 89.3342,98.8323 89.5,90.5 Z"/></g>
<g><path style="opacity:1" fill="#6db37f" d="M 115.5,96.5 C 117.027,96.573 118.027,95.9063 118.5,94.5C 119.117,94.3893 119.617,94.056 120,93.5C 120.903,94.7014 122.069,95.5348 123.5,96C 121.021,98.7094 118.355,98.876 115.5,96.5 Z"/></g>
<g><path style="opacity:1" fill="#63431f" d="M 135.5,96.5 C 139.161,96.3501 140.161,97.8501 138.5,101C 134.707,101.487 133.707,99.9866 135.5,96.5 Z"/></g>
<g><path style="opacity:1" fill="#78ae30" d="M 159.5,96.5 C 159.306,98.9118 157.973,99.9118 155.5,99.5C 154.909,98.8485 154.243,98.1818 153.5,97.5C 155.365,93.1463 157.365,92.8129 159.5,96.5 Z"/></g>
<g><path style="opacity:1" fill="#689f4e" d="M 118.5,94.5 C 118.027,95.9063 117.027,96.573 115.5,96.5C 110.738,96.2453 106.738,97.912 103.5,101.5C 102.386,100.277 102.219,98.9437 103,97.5C 107.231,92.0122 112.397,91.0122 118.5,94.5 Z"/></g>
<g><path style="opacity:1" fill="#6aa845" d="M 149.5,100.5 C 149.715,102.179 149.048,103.179 147.5,103.5C 146.387,102.054 146.22,100.387 147,98.5C 147.995,99.0659 148.828,99.7326 149.5,100.5 Z"/></g>
<g><path style="opacity:1" fill="#b9cd4a" d="M 28.5,100.5 C 33.0826,101.015 33.7493,103.015 30.5,106.5C 27.2295,106.321 25.5629,104.488 25.5,101C 25.6667,100.5 25.8333,100 26,99.5C 26.6708,100.252 27.5041,100.586 28.5,100.5 Z"/></g>
<g><path style="opacity:1" fill="#89c362" d="M 93.5,104.5 C 92.791,105.404 91.791,105.737 90.5,105.5C 91.1403,102.318 92.1403,101.985 93.5,104.5 Z"/></g>
<g><path style="opacity:1" fill="#95b680" d="M 149.5,100.5 C 149.833,100.5 150.167,100.5 150.5,100.5C 150.33,101.822 150.663,102.989 151.5,104C 150.016,104.662 148.683,105.496 147.5,106.5C 146.432,105.566 145.099,105.232 143.5,105.5C 144.833,104.833 146.167,104.167 147.5,103.5C 149.048,103.179 149.715,102.179 149.5,100.5 Z"/></g>
<g><path style="opacity:1" fill="#678f31" d="M 63.5,108.5 C 61.3809,109.986 59.8809,111.986 59,114.5C 58.5357,113.906 58.369,113.239 58.5,112.5C 58.9547,109.015 59.1214,105.348 59,101.5C 60.1719,98.2967 62.3386,96.7967 65.5,97C 68.2474,101.43 67.5807,105.263 63.5,108.5 Z"/></g>
<g><path style="opacity:1" fill="#7fa734" d="M 112.5,99.5 C 114.857,99.3367 117.19,99.5034 119.5,100C 121.705,101.706 124.038,103.206 126.5,104.5C 123.097,108.747 118.763,110.247 113.5,109C 107.368,106.177 107.035,103.011 112.5,99.5 Z"/></g>
<g><path style="opacity:1" fill="#4b9231" d="M 33.5,111.5 C 32.8333,111.167 32.1667,110.833 31.5,110.5C 32.4852,106.191 34.3185,102.191 37,98.5C 38.1096,96.9632 39.6096,96.2965 41.5,96.5C 41.7372,100.41 40.9039,104.077 39,107.5C 38.1253,110.215 36.2919,111.548 33.5,111.5 Z"/></g>
<g><path style="opacity:1" fill="#afc355" d="M 74.5,93.5 C 79.7654,92.5706 84.2654,93.9039 88,97.5C 88.543,104.795 85.043,108.461 77.5,108.5C 71.1423,108.069 68.6423,104.736 70,98.5C 71.7073,96.9625 73.2073,95.2959 74.5,93.5 Z"/></g>
<g><path style="opacity:1" fill="#848f44" d="M 79.5,95.5 C 81.0109,96.5025 82.6776,97.1692 84.5,97.5C 84.5,99.5 84.5,101.5 84.5,103.5C 82.8762,103.36 81.7096,104.027 81,105.5C 78.9114,105.255 76.9114,105.255 75,105.5C 74.5604,103.924 73.727,102.59 72.5,101.5C 74.1606,98.6232 76.4939,96.6232 79.5,95.5 Z"/></g>
<g><path style="opacity:1" fill="#ecf3d8" d="M 76.5,99.5 C 78.288,99.2148 79.9547,99.5481 81.5,100.5C 80.3315,102.217 78.6648,102.884 76.5,102.5C 76.5,101.5 76.5,100.5 76.5,99.5 Z"/></g>
<g><path style="opacity:1" fill="#7da651" d="M 46.5,101.5 C 49.8066,101.063 52.8066,101.73 55.5,103.5C 48.5832,104.752 44.2498,108.752 42.5,115.5C 41.3717,116.262 40.2051,116.929 39,117.5C 39.4857,111.204 41.9857,105.87 46.5,101.5 Z"/></g>
<g><path style="opacity:1" fill="#7b9c65" d="M 97.5,104.5 C 99.9052,105.398 101.905,106.898 103.5,109C 101.721,108.956 100.055,108.289 98.5,107C 97.7476,106.329 97.4142,105.496 97.5,104.5 Z"/></g>
<g><path style="opacity:1" fill="#4c774a" d="M 93.5,104.5 C 94.4972,104.47 95.1639,104.97 95.5,106C 94.2927,107.3 93.6261,108.8 93.5,110.5C 88.4922,110.742 87.4922,109.075 90.5,105.5C 91.791,105.737 92.791,105.404 93.5,104.5 Z"/></g>
<g><path style="opacity:1" fill="#bfc887" d="M 55.5,108.5 C 56.3653,114.049 55.6986,119.382 53.5,124.5C 46.9123,124.595 44.579,121.595 46.5,115.5C 47.9188,112.9 49.5854,110.4 51.5,108C 53.0657,107.235 54.3991,107.402 55.5,108.5 Z"/></g>
<g><path style="opacity:1" fill="#b5c3a0" d="M 111.5,114.5 C 108.946,113.612 106.279,113.279 103.5,113.5C 103.5,112.5 103.5,111.5 103.5,110.5C 104.675,110.719 105.675,110.386 106.5,109.5C 105.36,107.922 104.86,106.256 105,104.5C 106.419,106.336 107.586,108.336 108.5,110.5C 110.5,111.167 112.5,111.833 114.5,112.5C 115.645,113.891 115.645,115.224 114.5,116.5C 113.833,115.5 113.167,114.5 112.5,113.5C 111.893,113.624 111.56,113.957 111.5,114.5 Z"/></g>
<g><path style="opacity:1" fill="#b0ca3d" d="M 143.5,105.5 C 145.099,105.232 146.432,105.566 147.5,106.5C 147.649,107.552 147.483,108.552 147,109.5C 145.346,112.121 143.513,114.621 141.5,117C 138.935,117.609 136.601,117.109 134.5,115.5C 133.677,113.545 133.51,111.545 134,109.5C 136.735,107.189 139.901,105.855 143.5,105.5 Z"/></g>
<g><path style="opacity:1" fill="#bbc9a7" d="M 72.5,110.5 C 71.6993,112.042 71.366,113.708 71.5,115.5C 73.5542,115.635 75.2209,114.968 76.5,113.5C 76.7148,115.179 76.0481,116.179 74.5,116.5C 73.1667,116.5 71.8333,116.5 70.5,116.5C 70.1583,115.662 69.4916,115.328 68.5,115.5C 68.631,114.761 68.4643,114.094 68,113.5C 67.4806,114.516 66.6473,115.182 65.5,115.5C 64.1847,114.846 63.1847,114.846 62.5,115.5C 61.2267,114.923 61.2267,114.257 62.5,113.5C 64.5352,112.959 66.5352,112.292 68.5,111.5C 68.0431,110.702 67.3764,110.369 66.5,110.5C 66.281,109.325 66.6143,108.325 67.5,107.5C 68.9047,108.994 70.5713,109.994 72.5,110.5 Z"/></g>
<g><path style="opacity:1" fill="#a1b757" d="M 72.5,110.5 C 73.9217,110.709 75.255,111.209 76.5,112C 77.7383,112.69 77.7383,113.19 76.5,113.5C 75.2209,114.968 73.5542,115.635 71.5,115.5C 71.366,113.708 71.6993,112.042 72.5,110.5 Z"/></g>
<g><path style="opacity:1" fill="#5a9c42" d="M 133.5,115.5 C 133.966,119.162 133.299,122.495 131.5,125.5C 130.178,125.67 129.011,125.337 128,124.5C 127.294,119.824 126.96,115.157 127,110.5C 127.249,109.376 127.749,108.376 128.5,107.5C 131.059,109.702 132.725,112.368 133.5,115.5 Z"/></g>
<g><path style="opacity:1" fill="#eff1c3" d="M 140.5,112.5 C 143.012,113.216 143.012,114.216 140.5,115.5C 139.438,114.575 139.438,113.575 140.5,112.5 Z"/></g>
<g><path style="opacity:1" fill="#a0a482" d="M 55.5,108.5 C 56.1667,108.833 56.8333,109.167 57.5,109.5C 57.6655,113.514 57.4988,117.514 57,121.5C 56.5776,123.426 55.4109,124.426 53.5,124.5C 55.6986,119.382 56.3653,114.049 55.5,108.5 Z"/></g>
<g><path style="opacity:1" fill="#7a9d60" d="M 103.5,110.5 C 103.5,111.5 103.5,112.5 103.5,113.5C 102.5,113.833 101.833,114.5 101.5,115.5C 96.3999,118.47 95.7332,117.97 99.5,114C 97.7444,113.798 96.0777,113.298 94.5,112.5C 97.1934,110.73 100.193,110.063 103.5,110.5 Z"/></g>
<g><path style="opacity:1" fill="#aac063" d="M 80.5,112.5 C 84.7966,113.288 85.63,115.621 83,119.5C 81.6667,120.167 80.3333,120.833 79,121.5C 78.068,118.177 78.568,115.177 80.5,112.5 Z"/></g>
<g><path style="opacity:1" fill="#8bb637" d="M 110.5,118.5 C 109.5,119.833 108.5,119.833 107.5,118.5C 107.238,117.022 107.571,115.689 108.5,114.5C 110.111,115.32 110.778,116.654 110.5,118.5 Z"/></g>
<g><path style="opacity:1" fill="#c0d173" d="M 103.5,113.5 C 106.279,113.279 108.946,113.612 111.5,114.5C 111.768,116.099 111.434,117.432 110.5,118.5C 110.778,116.654 110.111,115.32 108.5,114.5C 107.571,115.689 107.238,117.022 107.5,118.5C 106.07,118.421 104.736,118.754 103.5,119.5C 101.889,118.68 101.222,117.346 101.5,115.5C 101.833,114.5 102.5,113.833 103.5,113.5 Z"/></g>
<g><path style="opacity:1" fill="#9dc063" d="M 119.5,111.5 C 125.445,112.773 126.778,115.44 123.5,119.5C 121.929,118.691 120.262,118.357 118.5,118.5C 118.298,116.05 118.631,113.717 119.5,111.5 Z"/></g>
<g><path style="opacity:1" fill="#64411d" d="M 49.5,115.5 C 53.35,115.701 54.35,117.534 52.5,121C 51.2068,121.49 49.8734,121.657 48.5,121.5C 48.5172,119.435 48.8505,117.435 49.5,115.5 Z"/></g>
<g><path style="opacity:1" fill="#689038" d="M 86.5,111.5 C 91.1486,112.815 94.1486,115.815 95.5,120.5C 95.3918,121.442 95.0585,122.275 94.5,123C 90.8339,124.271 88.3339,123.104 87,119.5C 86.5026,116.854 86.3359,114.187 86.5,111.5 Z"/></g>
<g><path style="opacity:1" fill="#81865e" d="M 46.5,115.5 C 44.579,121.595 46.9123,124.595 53.5,124.5C 50.1966,125.904 47.1966,125.237 44.5,122.5C 44.3379,120.473 44.5045,118.473 45,116.5C 45.3826,115.944 45.8826,115.611 46.5,115.5 Z"/></g>
<g><path style="opacity:1" fill="#bbd46c" d="M 70.5,116.5 C 71.8333,116.5 73.1667,116.5 74.5,116.5C 75.2565,118.267 75.9231,120.1 76.5,122C 75.3132,124.724 74.6465,127.557 74.5,130.5C 72.1016,130.741 70.1016,130.074 68.5,128.5C 70.5492,128.294 70.8825,127.461 69.5,126C 70.428,125.612 71.0946,124.945 71.5,124C 70.3592,121.377 70.0258,118.877 70.5,116.5 Z"/></g>
<g><path style="opacity:1" fill="#adcb4c" d="M 68.5,115.5 C 69.4916,115.328 70.1583,115.662 70.5,116.5C 70.0258,118.877 70.3592,121.377 71.5,124C 71.0946,124.945 70.428,125.612 69.5,126C 70.8825,127.461 70.5492,128.294 68.5,128.5C 67.1825,125.193 65.8492,121.859 64.5,118.5C 66.6188,118.532 67.9522,117.532 68.5,115.5 Z"/></g>
<g><path style="opacity:1" fill="#98b176" d="M 126.5,126.5 C 126.771,128.38 126.104,129.713 124.5,130.5C 123.01,132.28 121.01,132.946 118.5,132.5C 114.565,128.996 114.565,125.496 118.5,122C 122.745,120.752 125.412,122.252 126.5,126.5 Z"/></g>
<g><path style="opacity:1" fill="#92c595" d="M 60.5,117.5 C 63.4887,122.581 62.822,127.248 58.5,131.5C 56.9907,132.859 56.324,132.359 56.5,130C 58.3341,125.872 59.6674,121.705 60.5,117.5 Z"/></g>
<g><path style="opacity:1" fill="#c3d999" d="M 100.5,119.5 C 102.742,120.648 105.076,121.648 107.5,122.5C 106.652,124.409 106.318,126.409 106.5,128.5C 104.173,128.247 102.173,128.914 100.5,130.5C 99.7657,128.185 98.4324,126.352 96.5,125C 98.588,123.7 99.9214,121.867 100.5,119.5 Z"/></g>
<g><path style="opacity:1" fill="#b7cb86" d="M 113.5,123.5 C 113.552,127.198 113.886,130.865 114.5,134.5C 114.649,135.552 114.483,136.552 114,137.5C 112.855,136.364 111.688,135.364 110.5,134.5C 111.643,134.092 112.643,133.425 113.5,132.5C 112.383,131.051 111.716,129.384 111.5,127.5C 111.585,125.667 112.252,124.334 113.5,123.5 Z"/></g>
<g><path style="opacity:1" fill="#c5d483" d="M 124.5,130.5 C 119.692,132.183 117.192,130.517 117,125.5C 121.128,121.206 123.962,122.039 125.5,128C 124.748,128.671 124.414,129.504 124.5,130.5 Z"/></g>
<g><path style="opacity:1" fill="#dfe4a1" d="M 84.5,125.5 C 85.0675,129.967 86.7342,133.967 89.5,137.5C 84.8275,140.105 81.3275,138.771 79,133.5C 77.401,128.208 79.2343,125.541 84.5,125.5 Z"/></g>
<g><path style="opacity:1" fill="#c0ce7d" d="M 89.5,125.5 C 93.0289,124.889 94.8622,126.223 95,129.5C 91.4829,131.193 88.6495,130.36 86.5,127C 87.7375,126.768 88.7375,126.268 89.5,125.5 Z"/></g>
<g><path style="opacity:1" fill="#9db42c" d="M 113.5,123.5 C 112.252,124.334 111.585,125.667 111.5,127.5C 111.716,129.384 112.383,131.051 113.5,132.5C 112.643,133.425 111.643,134.092 110.5,134.5C 109.89,133.609 109.557,132.609 109.5,131.5C 109.336,128.813 109.503,126.146 110,123.5C 111.373,120.439 113.54,118.606 116.5,118C 115.242,119.741 114.242,121.574 113.5,123.5 Z"/></g>
<g><path style="opacity:1" fill="#adc843" d="M 84.5,125.5 C 79.2343,125.541 77.401,128.208 79,133.5C 81.3275,138.771 84.8275,140.105 89.5,137.5C 90.6921,138.566 90.3588,139.399 88.5,140C 79.7987,139.951 75.9653,135.451 77,126.5C 79.3569,124.354 81.8569,124.021 84.5,125.5 Z"/></g>
<g><path style="opacity:1" fill="#bbca73" d="M 106.5,141.5 C 106.167,141.5 105.833,141.5 105.5,141.5C 100.243,142.479 95.9101,140.979 92.5,137C 93.1667,136.667 93.8333,136.333 94.5,136C 92.9559,135.71 91.6226,135.044 90.5,134C 92.5883,132.97 94.755,132.137 97,131.5C 98.2798,131.613 99.1131,132.28 99.5,133.5C 98.3112,134.429 96.9778,134.762 95.5,134.5C 95.33,135.822 95.6634,136.989 96.5,138C 99.7761,139.692 103.109,140.859 106.5,141.5 Z"/></g>
<g><path style="opacity:1" fill="#579353" d="M 78.5,145.5 C 77.1266,145.657 75.7932,145.49 74.5,145C 70.575,140.911 66.575,137.078 62.5,133.5C 62.5,132.5 62.5,131.5 62.5,130.5C 64.5273,130.338 66.5273,130.505 68.5,131C 71.328,133.248 74.328,135.248 77.5,137C 80.7901,139.638 81.1234,142.471 78.5,145.5 Z"/></g>
<g><path style="opacity:1" fill="#2f8a41" d="M 99.5,143.5 C 99.5979,145.553 98.9313,147.22 97.5,148.5C 93.9319,148.241 92.5985,146.241 93.5,142.5C 95.6208,142.325 97.6208,142.659 99.5,143.5 Z"/></g>
<g><path style="opacity:1" fill="#84b843" d="M 101.5,143.5 C 102.167,143.5 102.833,143.5 103.5,143.5C 102.833,146.167 102.167,146.167 101.5,143.5 Z"/></g>
<g><path style="opacity:1" fill="#bacc62" d="M 88.5,148.5 C 85.1569,151.332 82.4902,150.666 80.5,146.5C 83.0961,145.735 85.7628,145.401 88.5,145.5C 88.5,146.5 88.5,147.5 88.5,148.5 Z"/></g>
<g><path style="opacity:1" fill="#5f8737" d="M 90.5,151.5 C 89.5768,152.303 88.5768,152.47 87.5,152C 88.3366,150.989 88.67,149.822 88.5,148.5C 89.29,147.391 89.79,146.058 90,144.5C 90.4966,146.81 90.6633,149.143 90.5,151.5 Z"/></g>
</svg>
