<?xml version="1.0" encoding="UTF-8"?>
<!DOCTYPE svg PUBLIC "-//W3C//DTD SVG 1.1//EN" "http://www.w3.org/Graphics/SVG/1.1/DTD/svg11.dtd">
<svg xmlns="http://www.w3.org/2000/svg" version="1.1" width="338px" height="175px" style="shape-rendering:geometricPrecision; text-rendering:geometricPrecision; image-rendering:optimizeQuality; fill-rule:evenodd; clip-rule:evenodd" xmlns:xlink="http://www.w3.org/1999/xlink">
<g><path style="opacity:0.975" fill="#ff9403" d="M 337.5,14.5 C 337.5,43.5 337.5,72.5 337.5,101.5C 309.346,101.887 281.012,103.22 252.5,105.5C 251.914,105.291 251.414,104.957 251,104.5C 236.575,105.325 222.075,105.825 207.5,106C 206.737,106.944 205.737,107.444 204.5,107.5C 202.723,106.397 200.889,106.397 199,107.5C 197.553,107.055 196.22,106.388 195,105.5C 193.848,107.512 192.682,107.678 191.5,106C 179.833,105.333 168.167,105.333 156.5,106C 162.856,106.957 169.19,107.623 175.5,108C 170.914,108.197 166.414,108.697 162,109.5C 158.059,108.399 154.392,108.399 151,109.5C 150.333,108.833 149.667,108.167 149,107.5C 147.293,108.138 145.46,108.138 143.5,107.5C 143.671,110.797 143.005,111.131 141.5,108.5C 116.798,107.824 92.1309,107.158 67.5,106.5C 66.6043,107.506 65.9377,107.506 65.5,106.5C 67.9589,105.674 70.4589,105.007 73,104.5C 75.9356,104.429 78.9356,104.763 82,105.5C 93.9737,103.281 105.974,103.281 118,105.5C 119.833,105.333 121.667,105.167 123.5,105C 120.833,104.333 118.167,103.667 115.5,103C 116,102.5 116.5,102 117,101.5C 119.063,101.24 121.23,101.574 123.5,102.5C 128.5,101.833 133.5,101.167 138.5,100.5C 139.772,100.57 140.938,100.903 142,101.5C 156.123,100.791 170.29,100.124 184.5,99.5C 184.5,100.5 184.5,101.5 184.5,102.5C 180.9,103.576 182.233,103.576 188.5,102.5C 187.242,103.016 186.242,102.35 185.5,100.5C 186.376,99.7492 187.376,99.2492 188.5,99C 201.833,98.6667 215.167,98.3333 228.5,98C 227.975,97.3076 227.308,96.8076 226.5,96.5C 217.31,97.0077 208.143,97.3411 199,97.5C 196.579,96.5262 194.079,95.8595 191.5,95.5C 187.348,96.2283 183.015,96.2283 178.5,95.5C 175.593,96.0099 172.759,96.6766 170,97.5C 165.658,97.1334 160.992,96.8 156,96.5C 155,97.5 154,98.5 153,99.5C 152.309,97.1088 151.309,97.1088 150,99.5C 148.333,96.3426 146.833,96.176 145.5,99C 143.567,99.7826 142.067,99.2826 141,97.5C 139.333,100.167 137.667,100.167 136,97.5C 135.043,99.7092 133.876,99.5425 132.5,97C 130.965,96.5038 129.465,96.6705 128,97.5C 127.055,97.0946 126.388,96.428 126,95.5C 122.256,96.7647 118.422,97.7647 114.5,98.5C 103.02,97.7845 91.3537,97.7845 79.5,98.5C 75.5335,97.9108 71.8668,96.5775 68.5,94.5C 66.2324,95.5443 63.8991,95.711 61.5,95C 62.3247,93.3117 63.3247,93.1451 64.5,94.5C 69.2449,92.4532 74.2449,91.9532 79.5,93C 80.3133,94.8847 81.6467,95.5513 83.5,95C 81.6652,94.0723 81.3318,92.9056 82.5,91.5C 84,91.1667 85.5,90.8333 87,90.5C 89.6536,91.0898 92.1536,91.0898 94.5,90.5C 96.6967,90.8481 98.53,91.8481 100,93.5C 100.507,92.0039 100.007,90.8373 98.5,90C 101.095,89.7744 103.595,89.2744 106,88.5C 105.427,90.8041 104.26,92.9708 102.5,95C 109.217,95.4426 115.884,94.9426 122.5,93.5C 125.089,93.5272 127.589,93.8606 130,94.5C 130.853,92.8753 131.853,92.5419 133,93.5C 133.483,92.552 133.649,91.552 133.5,90.5C 130.901,90.4506 128.734,89.4506 127,87.5C 126.667,88.8333 126.333,90.1667 126,91.5C 124.743,89.2542 122.91,87.9209 120.5,87.5C 120.66,89.1992 120.494,90.8659 120,92.5C 117.805,89.8168 118.138,87.4834 121,85.5C 121.561,86.0219 122.228,86.3552 123,86.5C 129.121,85.9931 135.121,84.9931 141,83.5C 150.846,84.9697 160.679,84.6364 170.5,82.5C 173.475,83.1393 176.475,83.6393 179.5,84C 178.953,84.9246 178.287,85.7579 177.5,86.5C 175.464,84.6554 173.13,84.1554 170.5,85C 172.835,86.5196 172.668,88.0196 170,89.5C 167.452,85.5346 164.785,85.5346 162,89.5C 161.517,88.552 161.351,87.552 161.5,86.5C 157.486,86.3345 153.486,86.5012 149.5,87C 151.886,87.2835 152.552,88.2835 151.5,90C 154.047,90.0674 156.214,90.9007 158,92.5C 158.711,90.6332 158.211,89.1332 156.5,88C 157.833,87.3333 159.167,87.3333 160.5,88C 160.043,88.414 159.709,88.914 159.5,89.5C 161.812,91.2388 164.312,92.5721 167,93.5C 168.38,90.5192 170.546,89.8525 173.5,91.5C 172.271,92.2811 170.938,92.7811 169.5,93C 170.333,93.1667 171.167,93.3333 172,93.5C 175.031,92.4381 178.031,91.4381 181,90.5C 182.167,90.8333 183.333,91.1667 184.5,91.5C 182.234,92.3142 179.9,92.8142 177.5,93C 178.5,93.5 179.5,94 180.5,94.5C 189.444,93.2977 198.611,93.2977 208,94.5C 208.5,94 209,93.5 209.5,93C 207.744,92.7978 206.078,92.2978 204.5,91.5C 206.571,88.4625 209.237,87.1292 212.5,87.5C 215.38,88.9466 216.713,90.9466 216.5,93.5C 217.541,90.4076 218.374,87.4076 219,84.5C 217.32,85.6034 215.82,85.2701 214.5,83.5C 213.186,84.3128 212.019,85.3128 211,86.5C 210.667,85.8333 210.333,85.1667 210,84.5C 207.667,87.1667 205.333,87.1667 203,84.5C 202.667,85.5 202.333,86.5 202,87.5C 200.899,85.6061 199.566,84.9394 198,85.5C 197.517,84.552 197.351,83.552 197.5,82.5C 195.088,82.244 193.421,83.244 192.5,85.5C 189.997,84.0357 187.33,82.869 184.5,82C 201.983,81.7122 219.316,80.8788 236.5,79.5C 243.167,79.8333 249.833,80.1667 256.5,80.5C 255.672,81.4147 254.672,82.0814 253.5,82.5C 245.885,81.6932 238.385,81.3598 231,81.5C 230.781,82.938 230.281,84.2713 229.5,85.5C 228.232,84.5721 226.899,84.4054 225.5,85C 227.155,87.5074 227.989,90.3408 228,93.5C 228.414,93.0426 228.914,92.7093 229.5,92.5C 233.632,93.2748 237.799,93.9414 242,94.5C 249.986,93.6488 257.819,93.6488 265.5,94.5C 268.251,94.1457 270.917,93.479 273.5,92.5C 276.5,93.8333 279.5,93.8333 282.5,92.5C 284.572,94.433 286.905,94.433 289.5,92.5C 291.922,92.7451 294.255,92.7451 296.5,92.5C 300.34,94.4325 304.006,94.4325 307.5,92.5C 316.208,95.2745 324.541,94.6078 332.5,90.5C 333.281,91.7366 334.281,92.7366 335.5,93.5C 336.491,89.5546 336.824,85.5546 336.5,81.5C 333.813,81.3359 331.146,81.5026 328.5,82C 329.938,82.2189 331.271,82.7189 332.5,83.5C 330.326,84.8932 328.493,84.5598 327,82.5C 325.582,85.001 324.582,84.6677 324,81.5C 320.868,82.4004 317.534,82.7338 314,82.5C 307.65,82.1831 301.483,81.1831 295.5,79.5C 294.5,80.8333 293.5,80.8333 292.5,79.5C 291.483,82.028 290.316,82.028 289,79.5C 288.309,81.8912 287.309,81.8912 286,79.5C 284.333,80.1667 282.667,80.8333 281,81.5C 278.581,79.7874 276.081,79.1207 273.5,79.5C 272.152,81.4613 270.819,81.6279 269.5,80C 266.5,79.6667 263.5,79.3333 260.5,79C 261.108,78.1301 261.941,77.6301 263,77.5C 271.851,78.3464 280.351,78.6798 288.5,78.5C 304.482,77.7114 320.482,77.2114 336.5,77C 335.975,76.3076 335.308,75.8076 334.5,75.5C 320.112,75.9811 305.612,75.9811 291,75.5C 288.931,74.7362 286.764,74.2362 284.5,74C 287.833,73.3333 291.167,72.6667 294.5,72C 290.593,71.323 286.759,70.4896 283,69.5C 278.532,70.0172 273.865,70.6839 269,71.5C 265.476,70.6872 262.143,70.6872 259,71.5C 257.771,69.0532 256.271,68.8865 254.5,71C 241.231,71.1354 228.231,72.1354 215.5,74C 223.5,75.3244 223.5,75.9911 215.5,76C 214.299,75.0975 213.465,73.9308 213,72.5C 209.865,73.7994 206.699,73.7994 203.5,72.5C 201.821,74.1045 199.821,74.7711 197.5,74.5C 197.5,73.5 197.5,72.5 197.5,71.5C 206.563,71.3035 215.229,71.3035 223.5,71.5C 225.092,69.4381 226.925,69.1048 229,70.5C 234.644,70.0543 240.144,68.8876 245.5,67C 242.118,66.8236 238.785,66.3236 235.5,65.5C 239.511,64.7733 243.511,64.1066 247.5,63.5C 253.996,64.4382 260.329,64.7715 266.5,64.5C 267.705,62.8624 269.038,62.5291 270.5,63.5C 273.316,62.9818 275.982,62.1485 278.5,61C 275.881,60.8485 273.547,60.0152 271.5,58.5C 268.945,61.2508 267.945,60.5841 268.5,56.5C 267.325,56.281 266.325,56.6143 265.5,57.5C 266.59,58.6086 266.59,59.6086 265.5,60.5C 263.711,59.1228 261.711,58.1228 259.5,57.5C 254.627,57.7302 249.627,58.2302 244.5,59C 242.863,60.951 241.363,60.7843 240,58.5C 239.333,59.1667 238.667,59.8333 238,60.5C 236.667,57.8333 235.333,57.8333 234,60.5C 233.333,59.8333 232.667,59.1667 232,58.5C 230.246,60.25 228.079,60.9167 225.5,60.5C 225.649,61.552 225.483,62.552 225,63.5C 223.922,61.6095 222.255,60.6095 220,60.5C 217.859,61.1115 215.859,61.1115 214,60.5C 212.417,62.055 210.584,63.2217 208.5,64C 209.938,64.2189 211.271,64.7189 212.5,65.5C 204.521,66.6649 196.521,66.8316 188.5,66C 192.233,64.8726 196.066,64.0393 200,63.5C 201.88,64.9295 203.38,64.5962 204.5,62.5C 202.047,61.1584 199.547,61.4917 197,63.5C 195.316,61.5406 193.316,61.5406 191,63.5C 190.5,62.3333 189.667,61.5 188.5,61C 192.229,59.2122 196.062,59.0455 200,60.5C 200.5,60 201,59.5 201.5,59C 198.443,58.7435 195.443,58.2435 192.5,57.5C 178.833,58.1667 165.167,58.8333 151.5,59.5C 150.707,59.0688 149.873,58.7355 149,58.5C 145.614,59.0873 142.28,59.7539 139,60.5C 117.287,60.71 94.4534,60.71 70.5,60.5C 69.624,59.7492 68.624,59.2492 67.5,59C 72.2007,58.2807 76.8673,58.4474 81.5,59.5C 82.1667,59.3333 82.8333,59.1667 83.5,59C 82.376,58.7508 81.376,58.2508 80.5,57.5C 87.9919,56.9331 95.3252,55.5997 102.5,53.5C 107.239,52.809 112.072,52.809 117,53.5C 137.032,50.4149 157.032,48.0815 177,46.5C 177.667,47.1667 178.333,47.8333 179,48.5C 182.555,46.9349 186.388,45.9349 190.5,45.5C 170.04,46.3732 149.373,46.3732 128.5,45.5C 121.5,46 114.5,46.5 107.5,47C 106,49.1667 104.833,49 104,46.5C 102.87,47.1136 101.537,47.1136 100,46.5C 98.6349,46.8443 97.4682,47.5109 96.5,48.5C 95.5,47.8333 94.5,47.1667 93.5,46.5C 83.0493,46.4007 72.216,46.734 61,47.5C 59.7949,46.9288 58.6283,46.2621 57.5,45.5C 57.6667,45.1667 57.8333,44.8333 58,44.5C 65.6399,44.8674 73.4732,45.2007 81.5,45.5C 83.444,44.8108 85.444,44.3108 87.5,44C 86.0745,42.2859 86.4078,40.9525 88.5,40C 94.8812,39.2789 101.048,38.1122 107,36.5C 108,39.1667 109,39.1667 110,36.5C 118.041,37.6587 125.875,37.3254 133.5,35.5C 134.442,35.6082 135.275,35.9415 136,36.5C 143.553,35.9862 151.053,34.9862 158.5,33.5C 159.894,33.6207 161.228,33.954 162.5,34.5C 169.565,34.1827 176.398,33.1827 183,31.5C 195.831,31.3347 208.664,31.6681 221.5,32.5C 222.308,32.1924 222.975,31.6924 223.5,31C 226.833,30.8333 230.167,30.6667 233.5,30.5C 245.154,31.6602 256.82,31.6602 268.5,30.5C 272.362,30.2996 276.029,30.9663 279.5,32.5C 287.143,31.4989 294.977,31.1655 303,31.5C 314.428,32.3274 325.428,32.994 336,33.5C 336.49,32.2068 336.657,30.8734 336.5,29.5C 326.161,29.6665 315.828,29.4998 305.5,29C 304.285,26.9045 303.451,27.0712 303,29.5C 301.507,27.6921 299.673,27.6921 297.5,29.5C 292.718,27.5948 287.718,27.0948 282.5,28C 282,28.5 281.5,29 281,29.5C 276.25,28.1964 271.25,27.5297 266,27.5C 260.75,27.5297 255.75,28.1964 251,29.5C 250.5,29 250,28.5 249.5,28C 245.57,27.9594 241.737,27.7927 238,27.5C 237.311,28.3567 236.478,29.0233 235.5,29.5C 233.546,28.3203 231.379,27.6537 229,27.5C 226.698,27.6004 224.698,28.267 223,29.5C 222.667,28.8333 222.333,28.1667 222,27.5C 219.371,31.1592 216.538,31.1592 213.5,27.5C 213.167,28.1667 212.833,28.8333 212.5,29.5C 211.833,28.8333 211.167,28.1667 210.5,27.5C 209.304,27.8457 209.304,28.3457 210.5,29C 206.445,29.2315 202.445,29.7315 198.5,30.5C 185.673,28.6741 172.673,28.0074 159.5,28.5C 150.48,29.1391 141.48,29.8058 132.5,30.5C 131.833,30.1667 131.167,29.8333 130.5,29.5C 121.023,29.8422 111.69,30.8422 102.5,32.5C 99.8687,31.2757 97.0354,30.609 94,30.5C 91.05,30.5676 88.3834,31.2343 86,32.5C 83.7572,31.0292 81.2572,30.0292 78.5,29.5C 86.5793,29.123 94.4127,28.123 102,26.5C 102.5,27 103,27.5 103.5,28C 109.029,28.8561 114.362,28.1895 119.5,26C 115.637,25.238 111.971,24.738 108.5,24.5C 107.353,24.8178 106.519,25.4844 106,26.5C 103.034,23.7348 100.367,24.0682 98,27.5C 93.7843,24.9147 89.451,24.9147 85,27.5C 83.0786,26.8095 81.2453,26.4762 79.5,26.5C 76.9575,29.1604 74.7908,28.8271 73,25.5C 67.4096,27.1837 61.5763,28.1837 55.5,28.5C 53.9019,26.0266 52.4019,26.0266 51,28.5C 49.583,27.9221 48.7496,26.9221 48.5,25.5C 53.0808,25.1487 57.5808,25.1487 62,25.5C 68.3409,23.3023 74.8409,22.6357 81.5,23.5C 88.2231,22.0374 95.0564,21.0374 102,20.5C 102.725,21.0585 103.558,21.3918 104.5,21.5C 117.807,20.7023 131.141,20.2023 144.5,20C 177.638,18.2125 210.638,16.2125 243.5,14C 274.827,14.2024 306.161,14.3691 337.5,14.5 Z"/></g>
<g><path style="opacity:0.005" fill="#feff00" d="M 4.5,74.5 C 3.83333,74.8333 3.16667,75.1667 2.5,75.5C 2.34527,72.1469 3.01193,71.8136 4.5,74.5 Z"/></g>
<g><path style="opacity:0.988" fill="#ff9605" d="M 337.5,101.5 C 337.5,119.167 337.5,136.833 337.5,154.5C 305.832,154.333 274.165,154.5 242.5,155C 225.833,156 209.167,157 192.5,158C 146.347,158.77 100.347,160.27 54.5,162.5C 53.0975,161.069 51.4308,159.902 49.5,159C 49.9574,158.586 50.2907,158.086 50.5,157.5C 49.0098,156.174 47.6765,154.674 46.5,153C 44.5594,152.257 42.7261,152.424 41,153.5C 40.3333,152.833 39.6667,152.167 39,151.5C 36.7116,151.737 34.2116,151.737 31.5,151.5C 30.8423,152.398 30.1757,153.398 29.5,154.5C 28.548,153.467 28.548,152.3 29.5,151C 27.5457,149.259 26.5457,147.092 26.5,144.5C 23.9339,144.656 21.4339,144.322 19,143.5C 17.416,143.988 16.2494,144.988 15.5,146.5C 14.6919,146.192 14.0253,145.692 13.5,145C 14.8627,142.871 14.5294,142.371 12.5,143.5C 11.4777,143.145 10.811,142.478 10.5,141.5C 12.1788,141.715 13.1788,141.048 13.5,139.5C 13.5,138.5 13.5,137.5 13.5,136.5C 12.5,136.5 11.5,136.5 10.5,136.5C 11.9929,131.249 11.4929,126.249 9,121.5C 8.25925,115.781 7.59258,110.114 7,104.5C 10.3454,101.048 14.3454,98.7143 19,97.5C 19.7811,96.2713 20.2811,94.938 20.5,93.5C 17.168,88.188 17.8347,83.5213 22.5,79.5C 18.0032,78.868 13.3365,78.7014 8.5,79C 9.65367,79.9138 9.48701,80.7471 8,81.5C 7.19293,79.0435 5.35959,77.0435 2.5,75.5C 3.16667,75.1667 3.83333,74.8333 4.5,74.5C 5.04309,74.44 5.37642,74.1067 5.5,73.5C 4.40698,71.6508 3.07365,69.9842 1.5,68.5C 2.71109,67.2798 2.71109,66.1131 1.5,65C 2.35668,64.3109 3.02335,63.4776 3.5,62.5C 0.586823,54.0297 -0.0798432,45.363 1.5,36.5C 3.85182,34.4153 6.51848,32.9153 9.5,32C 22.5725,29.8834 35.5725,27.7168 48.5,25.5C 48.7496,26.9221 49.583,27.9221 51,28.5C 52.4019,26.0266 53.9019,26.0266 55.5,28.5C 61.5763,28.1837 67.4096,27.1837 73,25.5C 74.7908,28.8271 76.9575,29.1604 79.5,26.5C 81.2453,26.4762 83.0786,26.8095 85,27.5C 89.451,24.9147 93.7843,24.9147 98,27.5C 100.367,24.0682 103.034,23.7348 106,26.5C 106.519,25.4844 107.353,24.8178 108.5,24.5C 111.971,24.738 115.637,25.238 119.5,26C 114.362,28.1895 109.029,28.8561 103.5,28C 103,27.5 102.5,27 102,26.5C 94.4127,28.123 86.5793,29.123 78.5,29.5C 81.2572,30.0292 83.7572,31.0292 86,32.5C 88.3834,31.2343 91.05,30.5676 94,30.5C 97.0354,30.609 99.8687,31.2757 102.5,32.5C 111.69,30.8422 121.023,29.8422 130.5,29.5C 131.167,29.8333 131.833,30.1667 132.5,30.5C 141.48,29.8058 150.48,29.1391 159.5,28.5C 172.673,28.0074 185.673,28.6741 198.5,30.5C 202.445,29.7315 206.445,29.2315 210.5,29C 209.304,28.3457 209.304,27.8457 210.5,27.5C 211.167,28.1667 211.833,28.8333 212.5,29.5C 212.833,28.8333 213.167,28.1667 213.5,27.5C 216.538,31.1592 219.371,31.1592 222,27.5C 222.333,28.1667 222.667,28.8333 223,29.5C 224.698,28.267 226.698,27.6004 229,27.5C 231.379,27.6537 233.546,28.3203 235.5,29.5C 236.478,29.0233 237.311,28.3567 238,27.5C 241.737,27.7927 245.57,27.9594 249.5,28C 250,28.5 250.5,29 251,29.5C 255.75,28.1964 260.75,27.5297 266,27.5C 271.25,27.5297 276.25,28.1964 281,29.5C 281.5,29 282,28.5 282.5,28C 287.718,27.0948 292.718,27.5948 297.5,29.5C 299.673,27.6921 301.507,27.6921 303,29.5C 303.451,27.0712 304.285,26.9045 305.5,29C 315.828,29.4998 326.161,29.6665 336.5,29.5C 336.657,30.8734 336.49,32.2068 336,33.5C 325.428,32.994 314.428,32.3274 303,31.5C 294.977,31.1655 287.143,31.4989 279.5,32.5C 276.029,30.9663 272.362,30.2996 268.5,30.5C 256.82,31.6602 245.154,31.6602 233.5,30.5C 230.167,30.6667 226.833,30.8333 223.5,31C 222.975,31.6924 222.308,32.1924 221.5,32.5C 208.664,31.6681 195.831,31.3347 183,31.5C 176.398,33.1827 169.565,34.1827 162.5,34.5C 161.228,33.954 159.894,33.6207 158.5,33.5C 151.053,34.9862 143.553,35.9862 136,36.5C 135.275,35.9415 134.442,35.6082 133.5,35.5C 125.875,37.3254 118.041,37.6587 110,36.5C 109,39.1667 108,39.1667 107,36.5C 101.048,38.1122 94.8812,39.2789 88.5,40C 86.4078,40.9525 86.0745,42.2859 87.5,44C 85.444,44.3108 83.444,44.8108 81.5,45.5C 73.4732,45.2007 65.6399,44.8674 58,44.5C 57.8333,44.8333 57.6667,45.1667 57.5,45.5C 58.6283,46.2621 59.7949,46.9288 61,47.5C 72.216,46.734 83.0493,46.4007 93.5,46.5C 94.5,47.1667 95.5,47.8333 96.5,48.5C 97.4682,47.5109 98.6349,46.8443 100,46.5C 101.537,47.1136 102.87,47.1136 104,46.5C 104.833,49 106,49.1667 107.5,47C 114.5,46.5 121.5,46 128.5,45.5C 149.373,46.3732 170.04,46.3732 190.5,45.5C 186.388,45.9349 182.555,46.9349 179,48.5C 178.333,47.8333 177.667,47.1667 177,46.5C 157.032,48.0815 137.032,50.4149 117,53.5C 112.072,52.809 107.239,52.809 102.5,53.5C 95.3252,55.5997 87.9919,56.9331 80.5,57.5C 81.376,58.2508 82.376,58.7508 83.5,59C 82.8333,59.1667 82.1667,59.3333 81.5,59.5C 76.8673,58.4474 72.2007,58.2807 67.5,59C 68.624,59.2492 69.624,59.7492 70.5,60.5C 94.4534,60.71 117.287,60.71 139,60.5C 142.28,59.7539 145.614,59.0873 149,58.5C 149.873,58.7355 150.707,59.0688 151.5,59.5C 165.167,58.8333 178.833,58.1667 192.5,57.5C 195.443,58.2435 198.443,58.7435 201.5,59C 201,59.5 200.5,60 200,60.5C 196.062,59.0455 192.229,59.2122 188.5,61C 189.667,61.5 190.5,62.3333 191,63.5C 193.316,61.5406 195.316,61.5406 197,63.5C 199.547,61.4917 202.047,61.1584 204.5,62.5C 203.38,64.5962 201.88,64.9295 200,63.5C 196.066,64.0393 192.233,64.8726 188.5,66C 196.521,66.8316 204.521,66.6649 212.5,65.5C 211.271,64.7189 209.938,64.2189 208.5,64C 210.584,63.2217 212.417,62.055 214,60.5C 215.859,61.1115 217.859,61.1115 220,60.5C 222.255,60.6095 223.922,61.6095 225,63.5C 225.483,62.552 225.649,61.552 225.5,60.5C 228.079,60.9167 230.246,60.25 232,58.5C 232.667,59.1667 233.333,59.8333 234,60.5C 235.333,57.8333 236.667,57.8333 238,60.5C 238.667,59.8333 239.333,59.1667 240,58.5C 241.363,60.7843 242.863,60.951 244.5,59C 249.627,58.2302 254.627,57.7302 259.5,57.5C 261.711,58.1228 263.711,59.1228 265.5,60.5C 266.59,59.6086 266.59,58.6086 265.5,57.5C 266.325,56.6143 267.325,56.281 268.5,56.5C 267.945,60.5841 268.945,61.2508 271.5,58.5C 273.547,60.0152 275.881,60.8485 278.5,61C 275.982,62.1485 273.316,62.9818 270.5,63.5C 269.038,62.5291 267.705,62.8624 266.5,64.5C 260.329,64.7715 253.996,64.4382 247.5,63.5C 243.511,64.1066 239.511,64.7733 235.5,65.5C 238.785,66.3236 242.118,66.8236 245.5,67C 240.144,68.8876 234.644,70.0543 229,70.5C 226.925,69.1048 225.092,69.4381 223.5,71.5C 215.229,71.3035 206.563,71.3035 197.5,71.5C 197.5,72.5 197.5,73.5 197.5,74.5C 199.821,74.7711 201.821,74.1045 203.5,72.5C 206.699,73.7994 209.865,73.7994 213,72.5C 213.465,73.9308 214.299,75.0975 215.5,76C 223.5,75.9911 223.5,75.3244 215.5,74C 228.231,72.1354 241.231,71.1354 254.5,71C 256.271,68.8865 257.771,69.0532 259,71.5C 262.143,70.6872 265.476,70.6872 269,71.5C 273.865,70.6839 278.532,70.0172 283,69.5C 286.759,70.4896 290.593,71.323 294.5,72C 291.167,72.6667 287.833,73.3333 284.5,74C 286.764,74.2362 288.931,74.7362 291,75.5C 305.612,75.9811 320.112,75.9811 334.5,75.5C 335.308,75.8076 335.975,76.3076 336.5,77C 320.482,77.2114 304.482,77.7114 288.5,78.5C 280.351,78.6798 271.851,78.3464 263,77.5C 261.941,77.6301 261.108,78.1301 260.5,79C 263.5,79.3333 266.5,79.6667 269.5,80C 270.819,81.6279 272.152,81.4613 273.5,79.5C 276.081,79.1207 278.581,79.7874 281,81.5C 282.667,80.8333 284.333,80.1667 286,79.5C 287.309,81.8912 288.309,81.8912 289,79.5C 290.316,82.028 291.483,82.028 292.5,79.5C 293.5,80.8333 294.5,80.8333 295.5,79.5C 301.483,81.1831 307.65,82.1831 314,82.5C 317.534,82.7338 320.868,82.4004 324,81.5C 324.582,84.6677 325.582,85.001 327,82.5C 328.493,84.5598 330.326,84.8932 332.5,83.5C 331.271,82.7189 329.938,82.2189 328.5,82C 331.146,81.5026 333.813,81.3359 336.5,81.5C 336.824,85.5546 336.491,89.5546 335.5,93.5C 334.281,92.7366 333.281,91.7366 332.5,90.5C 324.541,94.6078 316.208,95.2745 307.5,92.5C 304.006,94.4325 300.34,94.4325 296.5,92.5C 294.255,92.7451 291.922,92.7451 289.5,92.5C 286.905,94.433 284.572,94.433 282.5,92.5C 279.5,93.8333 276.5,93.8333 273.5,92.5C 270.917,93.479 268.251,94.1457 265.5,94.5C 257.819,93.6488 249.986,93.6488 242,94.5C 237.799,93.9414 233.632,93.2748 229.5,92.5C 228.914,92.7093 228.414,93.0426 228,93.5C 227.989,90.3408 227.155,87.5074 225.5,85C 226.899,84.4054 228.232,84.5721 229.5,85.5C 230.281,84.2713 230.781,82.938 231,81.5C 238.385,81.3598 245.885,81.6932 253.5,82.5C 254.672,82.0814 255.672,81.4147 256.5,80.5C 249.833,80.1667 243.167,79.8333 236.5,79.5C 219.316,80.8788 201.983,81.7122 184.5,82C 187.33,82.869 189.997,84.0357 192.5,85.5C 193.421,83.244 195.088,82.244 197.5,82.5C 197.351,83.552 197.517,84.552 198,85.5C 199.566,84.9394 200.899,85.6061 202,87.5C 202.333,86.5 202.667,85.5 203,84.5C 205.333,87.1667 207.667,87.1667 210,84.5C 210.333,85.1667 210.667,85.8333 211,86.5C 212.019,85.3128 213.186,84.3128 214.5,83.5C 215.82,85.2701 217.32,85.6034 219,84.5C 218.374,87.4076 217.541,90.4076 216.5,93.5C 216.713,90.9466 215.38,88.9466 212.5,87.5C 209.237,87.1292 206.571,88.4625 204.5,91.5C 206.078,92.2978 207.744,92.7978 209.5,93C 209,93.5 208.5,94 208,94.5C 198.611,93.2977 189.444,93.2977 180.5,94.5C 179.5,94 178.5,93.5 177.5,93C 179.9,92.8142 182.234,92.3142 184.5,91.5C 183.333,91.1667 182.167,90.8333 181,90.5C 178.031,91.4381 175.031,92.4381 172,93.5C 171.167,93.3333 170.333,93.1667 169.5,93C 170.938,92.7811 172.271,92.2811 173.5,91.5C 170.546,89.8525 168.38,90.5192 167,93.5C 164.312,92.5721 161.812,91.2388 159.5,89.5C 159.709,88.914 160.043,88.414 160.5,88C 159.167,87.3333 157.833,87.3333 156.5,88C 158.211,89.1332 158.711,90.6332 158,92.5C 156.214,90.9007 154.047,90.0674 151.5,90C 152.552,88.2835 151.886,87.2835 149.5,87C 153.486,86.5012 157.486,86.3345 161.5,86.5C 161.351,87.552 161.517,88.552 162,89.5C 164.785,85.5346 167.452,85.5346 170,89.5C 172.668,88.0196 172.835,86.5196 170.5,85C 173.13,84.1554 175.464,84.6554 177.5,86.5C 178.287,85.7579 178.953,84.9246 179.5,84C 176.475,83.6393 173.475,83.1393 170.5,82.5C 160.679,84.6364 150.846,84.9697 141,83.5C 135.121,84.9931 129.121,85.9931 123,86.5C 122.228,86.3552 121.561,86.0219 121,85.5C 118.138,87.4834 117.805,89.8168 120,92.5C 120.494,90.8659 120.66,89.1992 120.5,87.5C 122.91,87.9209 124.743,89.2542 126,91.5C 126.333,90.1667 126.667,88.8333 127,87.5C 128.734,89.4506 130.901,90.4506 133.5,90.5C 133.649,91.552 133.483,92.552 133,93.5C 131.853,92.5419 130.853,92.8753 130,94.5C 127.589,93.8606 125.089,93.5272 122.5,93.5C 115.884,94.9426 109.217,95.4426 102.5,95C 104.26,92.9708 105.427,90.8041 106,88.5C 103.595,89.2744 101.095,89.7744 98.5,90C 100.007,90.8373 100.507,92.0039 100,93.5C 98.53,91.8481 96.6967,90.8481 94.5,90.5C 92.1536,91.0898 89.6536,91.0898 87,90.5C 85.5,90.8333 84,91.1667 82.5,91.5C 81.3318,92.9056 81.6652,94.0723 83.5,95C 81.6467,95.5513 80.3133,94.8847 79.5,93C 74.2449,91.9532 69.2449,92.4532 64.5,94.5C 63.3247,93.1451 62.3247,93.3117 61.5,95C 63.8991,95.711 66.2324,95.5443 68.5,94.5C 71.8668,96.5775 75.5335,97.9108 79.5,98.5C 91.3537,97.7845 103.02,97.7845 114.5,98.5C 118.422,97.7647 122.256,96.7647 126,95.5C 126.388,96.428 127.055,97.0946 128,97.5C 129.465,96.6705 130.965,96.5038 132.5,97C 133.876,99.5425 135.043,99.7092 136,97.5C 137.667,100.167 139.333,100.167 141,97.5C 142.067,99.2826 143.567,99.7826 145.5,99C 146.833,96.176 148.333,96.3426 150,99.5C 151.309,97.1088 152.309,97.1088 153,99.5C 154,98.5 155,97.5 156,96.5C 160.992,96.8 165.658,97.1334 170,97.5C 172.759,96.6766 175.593,96.0099 178.5,95.5C 183.015,96.2283 187.348,96.2283 191.5,95.5C 194.079,95.8595 196.579,96.5262 199,97.5C 208.143,97.3411 217.31,97.0077 226.5,96.5C 227.308,96.8076 227.975,97.3076 228.5,98C 215.167,98.3333 201.833,98.6667 188.5,99C 187.376,99.2492 186.376,99.7492 185.5,100.5C 186.242,102.35 187.242,103.016 188.5,102.5C 182.233,103.576 180.9,103.576 184.5,102.5C 184.5,101.5 184.5,100.5 184.5,99.5C 170.29,100.124 156.123,100.791 142,101.5C 140.938,100.903 139.772,100.57 138.5,100.5C 133.5,101.167 128.5,101.833 123.5,102.5C 121.23,101.574 119.063,101.24 117,101.5C 116.5,102 116,102.5 115.5,103C 118.167,103.667 120.833,104.333 123.5,105C 121.667,105.167 119.833,105.333 118,105.5C 105.974,103.281 93.9737,103.281 82,105.5C 78.9356,104.763 75.9356,104.429 73,104.5C 70.4589,105.007 67.9589,105.674 65.5,106.5C 65.9377,107.506 66.6043,107.506 67.5,106.5C 92.1309,107.158 116.798,107.824 141.5,108.5C 143.005,111.131 143.671,110.797 143.5,107.5C 145.46,108.138 147.293,108.138 149,107.5C 149.667,108.167 150.333,108.833 151,109.5C 154.392,108.399 158.059,108.399 162,109.5C 166.414,108.697 170.914,108.197 175.5,108C 169.19,107.623 162.856,106.957 156.5,106C 168.167,105.333 179.833,105.333 191.5,106C 192.682,107.678 193.848,107.512 195,105.5C 196.22,106.388 197.553,107.055 199,107.5C 200.889,106.397 202.723,106.397 204.5,107.5C 205.737,107.444 206.737,106.944 207.5,106C 222.075,105.825 236.575,105.325 251,104.5C 251.414,104.957 251.914,105.291 252.5,105.5C 281.012,103.22 309.346,101.887 337.5,101.5 Z"/></g>
<g><path style="opacity:0.004" fill="#feff00" d="M 13.5,139.5 C 13.1788,141.048 12.1788,141.715 10.5,141.5C 10.8212,139.952 11.8212,139.285 13.5,139.5 Z"/></g>
<g><path style="opacity:0.315" fill="#ff85ff" d="M 31.5,151.5 C 34.2116,151.737 36.7116,151.737 39,151.5C 39.6667,152.167 40.3333,152.833 41,153.5C 42.7261,152.424 44.5594,152.257 46.5,153C 47.6765,154.674 49.0098,156.174 50.5,157.5C 50.2907,158.086 49.9574,158.586 49.5,159C 51.4308,159.902 53.0975,161.069 54.5,162.5C 53.2652,162.721 52.2652,163.388 51.5,164.5C 50.5081,161.423 48.6748,160.423 46,161.5C 44.9701,161.164 44.4701,160.497 44.5,159.5C 48.5,158.833 48.5,158.167 44.5,157.5C 40.381,156.517 36.0477,156.517 31.5,157.5C 31.5,155.5 31.5,153.5 31.5,151.5 Z"/></g>
<g><path style="opacity:0.008" fill="#ff82fb" d="M 26.5,151.5 C 27.7759,152.386 27.7759,153.386 26.5,154.5C 25.4376,153.575 25.4376,152.575 26.5,151.5 Z"/></g>
<g><path style="opacity:0.004" fill="#feff00" d="M 44.5,157.5 C 48.5,158.167 48.5,158.833 44.5,159.5C 44.5,158.833 44.5,158.167 44.5,157.5 Z"/></g>
</svg>
